G04 #@! TF.GenerationSoftware,KiCad,Pcbnew,(5.1.2)-1*
G04 #@! TF.CreationDate,2019-06-09T10:24:47-07:00*
G04 #@! TF.ProjectId,gen3basic,67656e33-6261-4736-9963-2e6b69636164,v1.0a*
G04 #@! TF.SameCoordinates,PX3072580PY2a640d0*
G04 #@! TF.FileFunction,Copper,L2,Bot*
G04 #@! TF.FilePolarity,Positive*
%FSLAX46Y46*%
G04 Gerber Fmt 4.6, Leading zero omitted, Abs format (unit mm)*
G04 Created by KiCad (PCBNEW (5.1.2)-1) date 2019-06-09 10:24:47*
%MOMM*%
%LPD*%
G04 APERTURE LIST*
%ADD10O,1.700000X1.700000*%
%ADD11R,1.700000X1.700000*%
%ADD12C,3.000000*%
%ADD13R,3.000000X3.000000*%
%ADD14C,1.700000*%
%ADD15C,2.000000*%
%ADD16C,1.500000*%
%ADD17C,1.800000*%
%ADD18R,1.800000X1.800000*%
%ADD19O,1.600000X1.600000*%
%ADD20R,1.600000X1.600000*%
%ADD21C,1.200000*%
%ADD22R,1.200000X1.200000*%
%ADD23C,0.800000*%
%ADD24C,0.250000*%
%ADD25C,0.254000*%
G04 APERTURE END LIST*
D10*
X40005000Y-1905000D03*
X37465000Y-1905000D03*
X34925000Y-1905000D03*
X32385000Y-1905000D03*
X29845000Y-1905000D03*
D11*
X27305000Y-1905000D03*
D12*
X22860000Y-45720000D03*
D13*
X17780000Y-45720000D03*
D14*
X37210000Y-44196000D03*
X33210000Y-44196000D03*
X29210000Y-44196000D03*
D15*
X27210000Y-48446000D03*
X39210000Y-48446000D03*
X39210000Y-42446000D03*
X27210000Y-42446000D03*
D16*
X4572000Y-20901000D03*
X4572000Y-25781000D03*
D10*
X32385000Y-22225000D03*
X32385000Y-19685000D03*
X32385000Y-17145000D03*
X32385000Y-14605000D03*
X32385000Y-12065000D03*
X32385000Y-9525000D03*
D11*
X32385000Y-6985000D03*
D10*
X37465000Y-37465000D03*
X37465000Y-34925000D03*
X37465000Y-32385000D03*
X37465000Y-29845000D03*
X37465000Y-27305000D03*
D11*
X37465000Y-24765000D03*
D17*
X11938000Y-38608000D03*
D18*
X9398000Y-38608000D03*
D17*
X11938000Y-32004000D03*
D18*
X9398000Y-32004000D03*
D17*
X11938000Y-45212000D03*
D18*
X9398000Y-45212000D03*
D19*
X23368000Y-1905000D03*
X15748000Y-34925000D03*
X23368000Y-4445000D03*
X15748000Y-32385000D03*
X23368000Y-6985000D03*
X15748000Y-29845000D03*
X23368000Y-9525000D03*
X15748000Y-27305000D03*
X23368000Y-12065000D03*
X15748000Y-24765000D03*
X23368000Y-14605000D03*
X15748000Y-22225000D03*
X23368000Y-17145000D03*
X15748000Y-19685000D03*
X23368000Y-19685000D03*
X15748000Y-17145000D03*
X23368000Y-22225000D03*
X15748000Y-14605000D03*
X23368000Y-24765000D03*
X15748000Y-12065000D03*
X23368000Y-27305000D03*
X15748000Y-9525000D03*
X23368000Y-29845000D03*
X15748000Y-6985000D03*
X23368000Y-32385000D03*
X15748000Y-4445000D03*
X23368000Y-34925000D03*
D20*
X15748000Y-1905000D03*
D12*
X45085000Y-46990000D03*
D13*
X45085000Y-31750000D03*
D12*
X45085000Y-41910000D03*
X45085000Y-36830000D03*
D10*
X12065000Y-19685000D03*
X12065000Y-17145000D03*
X12065000Y-14605000D03*
X12065000Y-12065000D03*
X12065000Y-9525000D03*
X12065000Y-6985000D03*
X12065000Y-4445000D03*
D11*
X12065000Y-1905000D03*
D10*
X40005000Y-19685000D03*
X37465000Y-19685000D03*
X40005000Y-17145000D03*
X37465000Y-17145000D03*
X40005000Y-14605000D03*
D11*
X37465000Y-14605000D03*
D21*
X39600000Y-8890000D03*
D22*
X38100000Y-8890000D03*
X19304000Y-39116000D03*
D21*
X20804000Y-39116000D03*
D23*
X47752000Y-28194000D03*
X9652000Y-16510000D03*
X3338500Y-32983500D03*
X34798000Y-33274000D03*
X7874000Y-8890000D03*
X3338500Y-36793500D03*
X2032000Y-34798000D03*
X42164000Y-19558000D03*
X12446000Y-27813000D03*
X8382000Y-19431000D03*
X47244000Y-16510000D03*
X47625000Y-8382000D03*
X15748000Y-38608000D03*
X30988000Y-27178000D03*
X21844000Y-37084000D03*
X28194000Y-6858000D03*
X26179999Y-5570001D03*
X45339000Y-24511000D03*
X41402000Y-25654000D03*
D24*
X19304000Y-39116000D02*
X19434998Y-39116000D01*
X18796000Y-38608000D02*
X19304000Y-39116000D01*
X15748000Y-38608000D02*
X18796000Y-38608000D01*
X14948001Y-31585001D02*
X15748000Y-32385000D01*
X13425001Y-30062001D02*
X14948001Y-31585001D01*
X13425001Y-21045001D02*
X13425001Y-30062001D01*
X12065000Y-19685000D02*
X13425001Y-21045001D01*
X14948001Y-26505001D02*
X15748000Y-27305000D01*
X13970000Y-25527000D02*
X14948001Y-26505001D01*
X13970000Y-16510000D02*
X13970000Y-25527000D01*
X12065000Y-14605000D02*
X13970000Y-16510000D01*
X36289999Y-26129999D02*
X36615001Y-26455001D01*
X36289999Y-23654999D02*
X36289999Y-26129999D01*
X36519007Y-23425991D02*
X36289999Y-23654999D01*
X41180001Y-21513589D02*
X39267599Y-23425991D01*
X41180001Y-16580999D02*
X41180001Y-21513589D01*
X39267599Y-23425991D02*
X36519007Y-23425991D01*
X39630997Y-15969999D02*
X40569001Y-15969999D01*
X36615001Y-26455001D02*
X37465000Y-27305000D01*
X38265998Y-14605000D02*
X39630997Y-15969999D01*
X40569001Y-15969999D02*
X41180001Y-16580999D01*
X37465000Y-14605000D02*
X38265998Y-14605000D01*
X39155001Y-17994999D02*
X40005000Y-17145000D01*
X38829999Y-18320001D02*
X39155001Y-17994999D01*
X38829999Y-20098001D02*
X38829999Y-18320001D01*
X31750000Y-27178000D02*
X38829999Y-20098001D01*
X30988000Y-27178000D02*
X31750000Y-27178000D01*
X17907000Y-37084000D02*
X15748000Y-34925000D01*
X21844000Y-37084000D02*
X17907000Y-37084000D01*
X16798000Y-1905000D02*
X15748000Y-1905000D01*
X17923001Y-3030001D02*
X16798000Y-1905000D01*
X24931686Y-3030001D02*
X17923001Y-3030001D01*
X28194000Y-6292315D02*
X24931686Y-3030001D01*
X28194000Y-6858000D02*
X28194000Y-6292315D01*
X16873001Y-5570001D02*
X15748000Y-4445000D01*
X26179999Y-5570001D02*
X16873001Y-5570001D01*
X37465000Y-24765000D02*
X37719000Y-24765000D01*
X37719000Y-24511000D02*
X37465000Y-24765000D01*
X45339000Y-24511000D02*
X37719000Y-24511000D01*
X41402000Y-25908000D02*
X41402000Y-25654000D01*
X37465000Y-29845000D02*
X41402000Y-25908000D01*
X31285000Y-6985000D02*
X32385000Y-6985000D01*
X29464000Y-8806000D02*
X31285000Y-6985000D01*
X29464000Y-20574000D02*
X29464000Y-8806000D01*
X24257000Y-20574000D02*
X23368000Y-19685000D01*
X29464000Y-20574000D02*
X24257000Y-20574000D01*
D25*
G36*
X6131714Y-751907D02*
G01*
X6166412Y-803349D01*
X6200428Y-855330D01*
X6206473Y-862742D01*
X6301269Y-977330D01*
X6345322Y-1021077D01*
X6388760Y-1065434D01*
X6396129Y-1071530D01*
X6511376Y-1165523D01*
X6563094Y-1199884D01*
X6614314Y-1234955D01*
X6622727Y-1239505D01*
X6754035Y-1309323D01*
X6811473Y-1332997D01*
X6868500Y-1357439D01*
X6877636Y-1360268D01*
X7020005Y-1403251D01*
X7080866Y-1415302D01*
X7141638Y-1428219D01*
X7151150Y-1429219D01*
X7299157Y-1443731D01*
X7299163Y-1443731D01*
X7332353Y-1447000D01*
X9177647Y-1447000D01*
X9206788Y-1444130D01*
X9211403Y-1444162D01*
X9220922Y-1443229D01*
X9368823Y-1427683D01*
X9429613Y-1415205D01*
X9490622Y-1403567D01*
X9499778Y-1400803D01*
X9641844Y-1356827D01*
X9699097Y-1332760D01*
X9756645Y-1309509D01*
X9765089Y-1305019D01*
X9895907Y-1234286D01*
X9947349Y-1199588D01*
X9999330Y-1165572D01*
X10006742Y-1159527D01*
X10121330Y-1064731D01*
X10165077Y-1020678D01*
X10209434Y-977240D01*
X10215530Y-969871D01*
X10309523Y-854624D01*
X10343884Y-802906D01*
X10378955Y-751686D01*
X10383505Y-743273D01*
X10414489Y-685000D01*
X10697188Y-685000D01*
X10684463Y-700506D01*
X10625498Y-810820D01*
X10589188Y-930518D01*
X10576928Y-1055000D01*
X10576928Y-2755000D01*
X10589188Y-2879482D01*
X10625498Y-2999180D01*
X10684463Y-3109494D01*
X10763815Y-3206185D01*
X10860506Y-3285537D01*
X10970820Y-3344502D01*
X11039687Y-3365393D01*
X11009866Y-3389866D01*
X10824294Y-3615986D01*
X10686401Y-3873966D01*
X10601487Y-4153889D01*
X10572815Y-4445000D01*
X10601487Y-4736111D01*
X10686401Y-5016034D01*
X10824294Y-5274014D01*
X11009866Y-5500134D01*
X11235986Y-5685706D01*
X11290791Y-5715000D01*
X11235986Y-5744294D01*
X11009866Y-5929866D01*
X10824294Y-6155986D01*
X10686401Y-6413966D01*
X10601487Y-6693889D01*
X10572815Y-6985000D01*
X10601487Y-7276111D01*
X10686401Y-7556034D01*
X10824294Y-7814014D01*
X11009866Y-8040134D01*
X11235986Y-8225706D01*
X11290791Y-8255000D01*
X11235986Y-8284294D01*
X11009866Y-8469866D01*
X10824294Y-8695986D01*
X10686401Y-8953966D01*
X10601487Y-9233889D01*
X10572815Y-9525000D01*
X10601487Y-9816111D01*
X10686401Y-10096034D01*
X10824294Y-10354014D01*
X11009866Y-10580134D01*
X11235986Y-10765706D01*
X11290791Y-10795000D01*
X11235986Y-10824294D01*
X11009866Y-11009866D01*
X10824294Y-11235986D01*
X10686401Y-11493966D01*
X10601487Y-11773889D01*
X10572815Y-12065000D01*
X10601487Y-12356111D01*
X10686401Y-12636034D01*
X10824294Y-12894014D01*
X11009866Y-13120134D01*
X11235986Y-13305706D01*
X11290791Y-13335000D01*
X11235986Y-13364294D01*
X11009866Y-13549866D01*
X10824294Y-13775986D01*
X10686401Y-14033966D01*
X10601487Y-14313889D01*
X10572815Y-14605000D01*
X10601487Y-14896111D01*
X10686401Y-15176034D01*
X10824294Y-15434014D01*
X11009866Y-15660134D01*
X11235986Y-15845706D01*
X11290791Y-15875000D01*
X11235986Y-15904294D01*
X11009866Y-16089866D01*
X10824294Y-16315986D01*
X10686401Y-16573966D01*
X10601487Y-16853889D01*
X10572815Y-17145000D01*
X10601487Y-17436111D01*
X10686401Y-17716034D01*
X10824294Y-17974014D01*
X11009866Y-18200134D01*
X11235986Y-18385706D01*
X11290791Y-18415000D01*
X11235986Y-18444294D01*
X11009866Y-18629866D01*
X10824294Y-18855986D01*
X10686401Y-19113966D01*
X10601487Y-19393889D01*
X10572815Y-19685000D01*
X10601487Y-19976111D01*
X10686401Y-20256034D01*
X10824294Y-20514014D01*
X11009866Y-20740134D01*
X11235986Y-20925706D01*
X11493966Y-21063599D01*
X11773889Y-21148513D01*
X11992050Y-21170000D01*
X12137950Y-21170000D01*
X12356111Y-21148513D01*
X12430995Y-21125797D01*
X12665001Y-21359803D01*
X12665002Y-30024669D01*
X12661325Y-30062001D01*
X12675999Y-30210986D01*
X12719455Y-30354247D01*
X12790027Y-30486277D01*
X12813188Y-30514498D01*
X12885001Y-30602002D01*
X12913999Y-30625800D01*
X14347292Y-32059094D01*
X14333764Y-32103691D01*
X14306057Y-32385000D01*
X14333764Y-32666309D01*
X14415818Y-32936808D01*
X14549068Y-33186101D01*
X14728392Y-33404608D01*
X14946899Y-33583932D01*
X15079858Y-33655000D01*
X14946899Y-33726068D01*
X14728392Y-33905392D01*
X14549068Y-34123899D01*
X14415818Y-34373192D01*
X14333764Y-34643691D01*
X14306057Y-34925000D01*
X14333764Y-35206309D01*
X14415818Y-35476808D01*
X14549068Y-35726101D01*
X14728392Y-35944608D01*
X14946899Y-36123932D01*
X15196192Y-36257182D01*
X15466691Y-36339236D01*
X15677508Y-36360000D01*
X15818492Y-36360000D01*
X16029309Y-36339236D01*
X16073906Y-36325708D01*
X17343201Y-37595003D01*
X17366999Y-37624001D01*
X17395997Y-37647799D01*
X17482723Y-37718974D01*
X17552201Y-37756111D01*
X17614753Y-37789546D01*
X17758014Y-37833003D01*
X17869667Y-37844000D01*
X17869676Y-37844000D01*
X17906999Y-37847676D01*
X17944322Y-37844000D01*
X21140289Y-37844000D01*
X21184226Y-37887937D01*
X21353744Y-38001205D01*
X21542102Y-38079226D01*
X21742061Y-38119000D01*
X21945939Y-38119000D01*
X22145898Y-38079226D01*
X22334256Y-38001205D01*
X22503774Y-37887937D01*
X22647937Y-37743774D01*
X22761205Y-37574256D01*
X22839226Y-37385898D01*
X22879000Y-37185939D01*
X22879000Y-36982061D01*
X22839226Y-36782102D01*
X22761205Y-36593744D01*
X22647937Y-36424226D01*
X22503774Y-36280063D01*
X22334256Y-36166795D01*
X22145898Y-36088774D01*
X21945939Y-36049000D01*
X21742061Y-36049000D01*
X21542102Y-36088774D01*
X21353744Y-36166795D01*
X21184226Y-36280063D01*
X21140289Y-36324000D01*
X18221802Y-36324000D01*
X17148708Y-35250906D01*
X17162236Y-35206309D01*
X17189943Y-34925000D01*
X17162236Y-34643691D01*
X17080182Y-34373192D01*
X16946932Y-34123899D01*
X16767608Y-33905392D01*
X16549101Y-33726068D01*
X16416142Y-33655000D01*
X16549101Y-33583932D01*
X16767608Y-33404608D01*
X16946932Y-33186101D01*
X17080182Y-32936808D01*
X17162236Y-32666309D01*
X17189943Y-32385000D01*
X17162236Y-32103691D01*
X17080182Y-31833192D01*
X16946932Y-31583899D01*
X16767608Y-31365392D01*
X16549101Y-31186068D01*
X16416142Y-31115000D01*
X16549101Y-31043932D01*
X16767608Y-30864608D01*
X16946932Y-30646101D01*
X17080182Y-30396808D01*
X17162236Y-30126309D01*
X17189943Y-29845000D01*
X17162236Y-29563691D01*
X17080182Y-29293192D01*
X16946932Y-29043899D01*
X16767608Y-28825392D01*
X16549101Y-28646068D01*
X16416142Y-28575000D01*
X16549101Y-28503932D01*
X16767608Y-28324608D01*
X16946932Y-28106101D01*
X17080182Y-27856808D01*
X17162236Y-27586309D01*
X17189943Y-27305000D01*
X17162236Y-27023691D01*
X17080182Y-26753192D01*
X16946932Y-26503899D01*
X16767608Y-26285392D01*
X16549101Y-26106068D01*
X16416142Y-26035000D01*
X16549101Y-25963932D01*
X16767608Y-25784608D01*
X16946932Y-25566101D01*
X17080182Y-25316808D01*
X17162236Y-25046309D01*
X17189943Y-24765000D01*
X17162236Y-24483691D01*
X17080182Y-24213192D01*
X16946932Y-23963899D01*
X16767608Y-23745392D01*
X16549101Y-23566068D01*
X16416142Y-23495000D01*
X16549101Y-23423932D01*
X16767608Y-23244608D01*
X16946932Y-23026101D01*
X17080182Y-22776808D01*
X17162236Y-22506309D01*
X17189943Y-22225000D01*
X17162236Y-21943691D01*
X17080182Y-21673192D01*
X16946932Y-21423899D01*
X16767608Y-21205392D01*
X16549101Y-21026068D01*
X16411318Y-20952421D01*
X16603131Y-20837385D01*
X16811519Y-20648414D01*
X16979037Y-20422420D01*
X17099246Y-20168087D01*
X17139904Y-20034039D01*
X17017915Y-19812000D01*
X15875000Y-19812000D01*
X15875000Y-19832000D01*
X15621000Y-19832000D01*
X15621000Y-19812000D01*
X15601000Y-19812000D01*
X15601000Y-19685000D01*
X21926057Y-19685000D01*
X21953764Y-19966309D01*
X22035818Y-20236808D01*
X22169068Y-20486101D01*
X22348392Y-20704608D01*
X22566899Y-20883932D01*
X22699858Y-20955000D01*
X22566899Y-21026068D01*
X22348392Y-21205392D01*
X22169068Y-21423899D01*
X22035818Y-21673192D01*
X21953764Y-21943691D01*
X21926057Y-22225000D01*
X21953764Y-22506309D01*
X22035818Y-22776808D01*
X22169068Y-23026101D01*
X22348392Y-23244608D01*
X22566899Y-23423932D01*
X22699858Y-23495000D01*
X22566899Y-23566068D01*
X22348392Y-23745392D01*
X22169068Y-23963899D01*
X22035818Y-24213192D01*
X21953764Y-24483691D01*
X21926057Y-24765000D01*
X21953764Y-25046309D01*
X22035818Y-25316808D01*
X22169068Y-25566101D01*
X22348392Y-25784608D01*
X22566899Y-25963932D01*
X22699858Y-26035000D01*
X22566899Y-26106068D01*
X22348392Y-26285392D01*
X22169068Y-26503899D01*
X22035818Y-26753192D01*
X21953764Y-27023691D01*
X21926057Y-27305000D01*
X21953764Y-27586309D01*
X22035818Y-27856808D01*
X22169068Y-28106101D01*
X22348392Y-28324608D01*
X22566899Y-28503932D01*
X22699858Y-28575000D01*
X22566899Y-28646068D01*
X22348392Y-28825392D01*
X22169068Y-29043899D01*
X22035818Y-29293192D01*
X21953764Y-29563691D01*
X21926057Y-29845000D01*
X21953764Y-30126309D01*
X22035818Y-30396808D01*
X22169068Y-30646101D01*
X22348392Y-30864608D01*
X22566899Y-31043932D01*
X22699858Y-31115000D01*
X22566899Y-31186068D01*
X22348392Y-31365392D01*
X22169068Y-31583899D01*
X22035818Y-31833192D01*
X21953764Y-32103691D01*
X21926057Y-32385000D01*
X21953764Y-32666309D01*
X22035818Y-32936808D01*
X22169068Y-33186101D01*
X22348392Y-33404608D01*
X22566899Y-33583932D01*
X22699858Y-33655000D01*
X22566899Y-33726068D01*
X22348392Y-33905392D01*
X22169068Y-34123899D01*
X22035818Y-34373192D01*
X21953764Y-34643691D01*
X21926057Y-34925000D01*
X21953764Y-35206309D01*
X22035818Y-35476808D01*
X22169068Y-35726101D01*
X22348392Y-35944608D01*
X22566899Y-36123932D01*
X22816192Y-36257182D01*
X23086691Y-36339236D01*
X23297508Y-36360000D01*
X23438492Y-36360000D01*
X23649309Y-36339236D01*
X23919808Y-36257182D01*
X24118241Y-36151117D01*
X29761000Y-36151117D01*
X29761000Y-36492883D01*
X29827675Y-36828081D01*
X29958463Y-37143831D01*
X30148337Y-37427998D01*
X30390002Y-37669663D01*
X30674169Y-37859537D01*
X30989919Y-37990325D01*
X31325117Y-38057000D01*
X31666883Y-38057000D01*
X32002081Y-37990325D01*
X32317831Y-37859537D01*
X32601998Y-37669663D01*
X32843663Y-37427998D01*
X33033537Y-37143831D01*
X33164325Y-36828081D01*
X33231000Y-36492883D01*
X33231000Y-36151117D01*
X33164325Y-35815919D01*
X33033537Y-35500169D01*
X32843663Y-35216002D01*
X32601998Y-34974337D01*
X32317831Y-34784463D01*
X32002081Y-34653675D01*
X31666883Y-34587000D01*
X31325117Y-34587000D01*
X30989919Y-34653675D01*
X30674169Y-34784463D01*
X30390002Y-34974337D01*
X30148337Y-35216002D01*
X29958463Y-35500169D01*
X29827675Y-35815919D01*
X29761000Y-36151117D01*
X24118241Y-36151117D01*
X24169101Y-36123932D01*
X24387608Y-35944608D01*
X24566932Y-35726101D01*
X24700182Y-35476808D01*
X24782236Y-35206309D01*
X24809943Y-34925000D01*
X24782236Y-34643691D01*
X24700182Y-34373192D01*
X24566932Y-34123899D01*
X24387608Y-33905392D01*
X24169101Y-33726068D01*
X24036142Y-33655000D01*
X24169101Y-33583932D01*
X24387608Y-33404608D01*
X24566932Y-33186101D01*
X24700182Y-32936808D01*
X24782236Y-32666309D01*
X24809943Y-32385000D01*
X24782236Y-32103691D01*
X24700182Y-31833192D01*
X24566932Y-31583899D01*
X24387608Y-31365392D01*
X24169101Y-31186068D01*
X24036142Y-31115000D01*
X24169101Y-31043932D01*
X24387608Y-30864608D01*
X24566932Y-30646101D01*
X24700182Y-30396808D01*
X24782236Y-30126309D01*
X24809943Y-29845000D01*
X24782236Y-29563691D01*
X24700182Y-29293192D01*
X24566932Y-29043899D01*
X24387608Y-28825392D01*
X24169101Y-28646068D01*
X24036142Y-28575000D01*
X24169101Y-28503932D01*
X24387608Y-28324608D01*
X24566932Y-28106101D01*
X24700182Y-27856808D01*
X24782236Y-27586309D01*
X24809943Y-27305000D01*
X24787395Y-27076061D01*
X29953000Y-27076061D01*
X29953000Y-27279939D01*
X29992774Y-27479898D01*
X30070795Y-27668256D01*
X30184063Y-27837774D01*
X30328226Y-27981937D01*
X30497744Y-28095205D01*
X30686102Y-28173226D01*
X30886061Y-28213000D01*
X31089939Y-28213000D01*
X31289898Y-28173226D01*
X31478256Y-28095205D01*
X31647774Y-27981937D01*
X31691711Y-27938000D01*
X31712678Y-27938000D01*
X31750000Y-27941676D01*
X31787322Y-27938000D01*
X31787333Y-27938000D01*
X31898986Y-27927003D01*
X32042247Y-27883546D01*
X32174276Y-27812974D01*
X32290001Y-27718001D01*
X32313804Y-27688997D01*
X35529999Y-24472802D01*
X35530000Y-26092667D01*
X35526323Y-26129999D01*
X35530000Y-26167332D01*
X35539206Y-26260795D01*
X35540997Y-26278984D01*
X35584453Y-26422245D01*
X35655025Y-26554275D01*
X35703668Y-26613546D01*
X35749999Y-26670000D01*
X35778997Y-26693798D01*
X36024203Y-26939004D01*
X36001487Y-27013889D01*
X35972815Y-27305000D01*
X36001487Y-27596111D01*
X36086401Y-27876034D01*
X36224294Y-28134014D01*
X36409866Y-28360134D01*
X36635986Y-28545706D01*
X36690791Y-28575000D01*
X36635986Y-28604294D01*
X36409866Y-28789866D01*
X36224294Y-29015986D01*
X36086401Y-29273966D01*
X36001487Y-29553889D01*
X35972815Y-29845000D01*
X36001487Y-30136111D01*
X36086401Y-30416034D01*
X36224294Y-30674014D01*
X36409866Y-30900134D01*
X36635986Y-31085706D01*
X36690791Y-31115000D01*
X36635986Y-31144294D01*
X36409866Y-31329866D01*
X36224294Y-31555986D01*
X36086401Y-31813966D01*
X36001487Y-32093889D01*
X35972815Y-32385000D01*
X36001487Y-32676111D01*
X36086401Y-32956034D01*
X36224294Y-33214014D01*
X36409866Y-33440134D01*
X36635986Y-33625706D01*
X36690791Y-33655000D01*
X36635986Y-33684294D01*
X36409866Y-33869866D01*
X36224294Y-34095986D01*
X36086401Y-34353966D01*
X36001487Y-34633889D01*
X35972815Y-34925000D01*
X36001487Y-35216111D01*
X36086401Y-35496034D01*
X36224294Y-35754014D01*
X36409866Y-35980134D01*
X36635986Y-36165706D01*
X36690791Y-36195000D01*
X36635986Y-36224294D01*
X36409866Y-36409866D01*
X36224294Y-36635986D01*
X36086401Y-36893966D01*
X36001487Y-37173889D01*
X35972815Y-37465000D01*
X36001487Y-37756111D01*
X36086401Y-38036034D01*
X36224294Y-38294014D01*
X36409866Y-38520134D01*
X36635986Y-38705706D01*
X36893966Y-38843599D01*
X37173889Y-38928513D01*
X37392050Y-38950000D01*
X37537950Y-38950000D01*
X37756111Y-38928513D01*
X38036034Y-38843599D01*
X38294014Y-38705706D01*
X38520134Y-38520134D01*
X38705706Y-38294014D01*
X38843599Y-38036034D01*
X38928513Y-37756111D01*
X38957185Y-37465000D01*
X38928513Y-37173889D01*
X38843599Y-36893966D01*
X38705706Y-36635986D01*
X38692358Y-36619721D01*
X42950000Y-36619721D01*
X42950000Y-37040279D01*
X43032047Y-37452756D01*
X43192988Y-37841302D01*
X43426637Y-38190983D01*
X43724017Y-38488363D01*
X44073698Y-38722012D01*
X44462244Y-38882953D01*
X44874721Y-38965000D01*
X45295279Y-38965000D01*
X45707756Y-38882953D01*
X46096302Y-38722012D01*
X46445983Y-38488363D01*
X46743363Y-38190983D01*
X46977012Y-37841302D01*
X47137953Y-37452756D01*
X47220000Y-37040279D01*
X47220000Y-36619721D01*
X47137953Y-36207244D01*
X46977012Y-35818698D01*
X46743363Y-35469017D01*
X46445983Y-35171637D01*
X46096302Y-34937988D01*
X45707756Y-34777047D01*
X45295279Y-34695000D01*
X44874721Y-34695000D01*
X44462244Y-34777047D01*
X44073698Y-34937988D01*
X43724017Y-35171637D01*
X43426637Y-35469017D01*
X43192988Y-35818698D01*
X43032047Y-36207244D01*
X42950000Y-36619721D01*
X38692358Y-36619721D01*
X38520134Y-36409866D01*
X38294014Y-36224294D01*
X38239209Y-36195000D01*
X38294014Y-36165706D01*
X38520134Y-35980134D01*
X38705706Y-35754014D01*
X38843599Y-35496034D01*
X38928513Y-35216111D01*
X38957185Y-34925000D01*
X38928513Y-34633889D01*
X38843599Y-34353966D01*
X38705706Y-34095986D01*
X38520134Y-33869866D01*
X38294014Y-33684294D01*
X38239209Y-33655000D01*
X38294014Y-33625706D01*
X38520134Y-33440134D01*
X38705706Y-33214014D01*
X38843599Y-32956034D01*
X38928513Y-32676111D01*
X38957185Y-32385000D01*
X38928513Y-32093889D01*
X38843599Y-31813966D01*
X38705706Y-31555986D01*
X38520134Y-31329866D01*
X38294014Y-31144294D01*
X38239209Y-31115000D01*
X38294014Y-31085706D01*
X38520134Y-30900134D01*
X38705706Y-30674014D01*
X38843599Y-30416034D01*
X38893965Y-30250000D01*
X42946928Y-30250000D01*
X42946928Y-33250000D01*
X42959188Y-33374482D01*
X42995498Y-33494180D01*
X43054463Y-33604494D01*
X43133815Y-33701185D01*
X43230506Y-33780537D01*
X43340820Y-33839502D01*
X43460518Y-33875812D01*
X43585000Y-33888072D01*
X46585000Y-33888072D01*
X46709482Y-33875812D01*
X46829180Y-33839502D01*
X46939494Y-33780537D01*
X47036185Y-33701185D01*
X47115537Y-33604494D01*
X47174502Y-33494180D01*
X47210812Y-33374482D01*
X47223072Y-33250000D01*
X47223072Y-30250000D01*
X47210812Y-30125518D01*
X47174502Y-30005820D01*
X47115537Y-29895506D01*
X47036185Y-29798815D01*
X46939494Y-29719463D01*
X46829180Y-29660498D01*
X46709482Y-29624188D01*
X46585000Y-29611928D01*
X43585000Y-29611928D01*
X43460518Y-29624188D01*
X43340820Y-29660498D01*
X43230506Y-29719463D01*
X43133815Y-29798815D01*
X43054463Y-29895506D01*
X42995498Y-30005820D01*
X42959188Y-30125518D01*
X42946928Y-30250000D01*
X38893965Y-30250000D01*
X38928513Y-30136111D01*
X38957185Y-29845000D01*
X38928513Y-29553889D01*
X38905797Y-29479004D01*
X41757976Y-26626826D01*
X41892256Y-26571205D01*
X42061774Y-26457937D01*
X42205937Y-26313774D01*
X42319205Y-26144256D01*
X42397226Y-25955898D01*
X42437000Y-25755939D01*
X42437000Y-25552061D01*
X42397226Y-25352102D01*
X42363632Y-25271000D01*
X44635289Y-25271000D01*
X44679226Y-25314937D01*
X44848744Y-25428205D01*
X45037102Y-25506226D01*
X45237061Y-25546000D01*
X45440939Y-25546000D01*
X45640898Y-25506226D01*
X45829256Y-25428205D01*
X45998774Y-25314937D01*
X46142937Y-25170774D01*
X46256205Y-25001256D01*
X46334226Y-24812898D01*
X46374000Y-24612939D01*
X46374000Y-24409061D01*
X46334226Y-24209102D01*
X46256205Y-24020744D01*
X46142937Y-23851226D01*
X45998774Y-23707063D01*
X45829256Y-23593795D01*
X45640898Y-23515774D01*
X45440939Y-23476000D01*
X45237061Y-23476000D01*
X45037102Y-23515774D01*
X44848744Y-23593795D01*
X44679226Y-23707063D01*
X44635289Y-23751000D01*
X40017391Y-23751000D01*
X41691004Y-22077388D01*
X41720002Y-22053590D01*
X41814975Y-21937865D01*
X41885547Y-21805836D01*
X41929004Y-21662575D01*
X41940001Y-21550922D01*
X41940001Y-21550912D01*
X41943677Y-21513589D01*
X41940001Y-21476266D01*
X41940001Y-16618321D01*
X41943677Y-16580998D01*
X41940001Y-16543675D01*
X41940001Y-16543666D01*
X41929004Y-16432013D01*
X41885547Y-16288752D01*
X41814975Y-16156723D01*
X41784004Y-16118985D01*
X41743800Y-16069995D01*
X41743796Y-16069991D01*
X41720002Y-16040998D01*
X41691010Y-16017205D01*
X41183552Y-15509749D01*
X41245706Y-15434014D01*
X41383599Y-15176034D01*
X41468513Y-14896111D01*
X41497185Y-14605000D01*
X41468513Y-14313889D01*
X41383599Y-14033966D01*
X41245706Y-13775986D01*
X41060134Y-13549866D01*
X40834014Y-13364294D01*
X40576034Y-13226401D01*
X40296111Y-13141487D01*
X40077950Y-13120000D01*
X39932050Y-13120000D01*
X39713889Y-13141487D01*
X39433966Y-13226401D01*
X39175986Y-13364294D01*
X38949866Y-13549866D01*
X38925393Y-13579687D01*
X38904502Y-13510820D01*
X38845537Y-13400506D01*
X38766185Y-13303815D01*
X38669494Y-13224463D01*
X38559180Y-13165498D01*
X38439482Y-13129188D01*
X38315000Y-13116928D01*
X36615000Y-13116928D01*
X36490518Y-13129188D01*
X36370820Y-13165498D01*
X36260506Y-13224463D01*
X36163815Y-13303815D01*
X36084463Y-13400506D01*
X36025498Y-13510820D01*
X35989188Y-13630518D01*
X35976928Y-13755000D01*
X35976928Y-15455000D01*
X35989188Y-15579482D01*
X36025498Y-15699180D01*
X36084463Y-15809494D01*
X36163815Y-15906185D01*
X36260506Y-15985537D01*
X36370820Y-16044502D01*
X36439687Y-16065393D01*
X36409866Y-16089866D01*
X36224294Y-16315986D01*
X36086401Y-16573966D01*
X36001487Y-16853889D01*
X35972815Y-17145000D01*
X36001487Y-17436111D01*
X36086401Y-17716034D01*
X36224294Y-17974014D01*
X36409866Y-18200134D01*
X36635986Y-18385706D01*
X36690791Y-18415000D01*
X36635986Y-18444294D01*
X36409866Y-18629866D01*
X36224294Y-18855986D01*
X36086401Y-19113966D01*
X36001487Y-19393889D01*
X35972815Y-19685000D01*
X36001487Y-19976111D01*
X36086401Y-20256034D01*
X36224294Y-20514014D01*
X36409866Y-20740134D01*
X36635986Y-20925706D01*
X36825953Y-21027245D01*
X31546683Y-26306516D01*
X31478256Y-26260795D01*
X31289898Y-26182774D01*
X31089939Y-26143000D01*
X30886061Y-26143000D01*
X30686102Y-26182774D01*
X30497744Y-26260795D01*
X30328226Y-26374063D01*
X30184063Y-26518226D01*
X30070795Y-26687744D01*
X29992774Y-26876102D01*
X29953000Y-27076061D01*
X24787395Y-27076061D01*
X24782236Y-27023691D01*
X24700182Y-26753192D01*
X24566932Y-26503899D01*
X24387608Y-26285392D01*
X24169101Y-26106068D01*
X24036142Y-26035000D01*
X24169101Y-25963932D01*
X24387608Y-25784608D01*
X24566932Y-25566101D01*
X24700182Y-25316808D01*
X24782236Y-25046309D01*
X24809943Y-24765000D01*
X24782236Y-24483691D01*
X24700182Y-24213192D01*
X24566932Y-23963899D01*
X24387608Y-23745392D01*
X24169101Y-23566068D01*
X24036142Y-23495000D01*
X24169101Y-23423932D01*
X24387608Y-23244608D01*
X24566932Y-23026101D01*
X24700182Y-22776808D01*
X24782236Y-22506309D01*
X24809943Y-22225000D01*
X24782236Y-21943691D01*
X24700182Y-21673192D01*
X24566932Y-21423899D01*
X24493154Y-21334000D01*
X29426667Y-21334000D01*
X29464000Y-21337677D01*
X29501333Y-21334000D01*
X29612986Y-21323003D01*
X29756247Y-21279546D01*
X29888276Y-21208974D01*
X30004001Y-21114001D01*
X30098974Y-20998276D01*
X30169546Y-20866247D01*
X30213003Y-20722986D01*
X30227677Y-20574000D01*
X30224000Y-20536667D01*
X30224000Y-9120801D01*
X31072457Y-8272345D01*
X31083815Y-8286185D01*
X31180506Y-8365537D01*
X31290820Y-8424502D01*
X31359687Y-8445393D01*
X31329866Y-8469866D01*
X31144294Y-8695986D01*
X31006401Y-8953966D01*
X30921487Y-9233889D01*
X30892815Y-9525000D01*
X30921487Y-9816111D01*
X31006401Y-10096034D01*
X31144294Y-10354014D01*
X31329866Y-10580134D01*
X31555986Y-10765706D01*
X31610791Y-10795000D01*
X31555986Y-10824294D01*
X31329866Y-11009866D01*
X31144294Y-11235986D01*
X31006401Y-11493966D01*
X30921487Y-11773889D01*
X30892815Y-12065000D01*
X30921487Y-12356111D01*
X31006401Y-12636034D01*
X31144294Y-12894014D01*
X31329866Y-13120134D01*
X31555986Y-13305706D01*
X31610791Y-13335000D01*
X31555986Y-13364294D01*
X31329866Y-13549866D01*
X31144294Y-13775986D01*
X31006401Y-14033966D01*
X30921487Y-14313889D01*
X30892815Y-14605000D01*
X30921487Y-14896111D01*
X31006401Y-15176034D01*
X31144294Y-15434014D01*
X31329866Y-15660134D01*
X31555986Y-15845706D01*
X31610791Y-15875000D01*
X31555986Y-15904294D01*
X31329866Y-16089866D01*
X31144294Y-16315986D01*
X31006401Y-16573966D01*
X30921487Y-16853889D01*
X30892815Y-17145000D01*
X30921487Y-17436111D01*
X31006401Y-17716034D01*
X31144294Y-17974014D01*
X31329866Y-18200134D01*
X31555986Y-18385706D01*
X31610791Y-18415000D01*
X31555986Y-18444294D01*
X31329866Y-18629866D01*
X31144294Y-18855986D01*
X31006401Y-19113966D01*
X30921487Y-19393889D01*
X30892815Y-19685000D01*
X30921487Y-19976111D01*
X31006401Y-20256034D01*
X31144294Y-20514014D01*
X31329866Y-20740134D01*
X31555986Y-20925706D01*
X31610791Y-20955000D01*
X31555986Y-20984294D01*
X31329866Y-21169866D01*
X31144294Y-21395986D01*
X31006401Y-21653966D01*
X30921487Y-21933889D01*
X30892815Y-22225000D01*
X30921487Y-22516111D01*
X31006401Y-22796034D01*
X31144294Y-23054014D01*
X31329866Y-23280134D01*
X31555986Y-23465706D01*
X31813966Y-23603599D01*
X32093889Y-23688513D01*
X32312050Y-23710000D01*
X32457950Y-23710000D01*
X32676111Y-23688513D01*
X32956034Y-23603599D01*
X33214014Y-23465706D01*
X33440134Y-23280134D01*
X33625706Y-23054014D01*
X33763599Y-22796034D01*
X33848513Y-22516111D01*
X33877185Y-22225000D01*
X33848513Y-21933889D01*
X33763599Y-21653966D01*
X33625706Y-21395986D01*
X33440134Y-21169866D01*
X33214014Y-20984294D01*
X33159209Y-20955000D01*
X33214014Y-20925706D01*
X33440134Y-20740134D01*
X33625706Y-20514014D01*
X33763599Y-20256034D01*
X33848513Y-19976111D01*
X33877185Y-19685000D01*
X33848513Y-19393889D01*
X33763599Y-19113966D01*
X33625706Y-18855986D01*
X33440134Y-18629866D01*
X33214014Y-18444294D01*
X33159209Y-18415000D01*
X33214014Y-18385706D01*
X33440134Y-18200134D01*
X33625706Y-17974014D01*
X33763599Y-17716034D01*
X33848513Y-17436111D01*
X33877185Y-17145000D01*
X33848513Y-16853889D01*
X33763599Y-16573966D01*
X33625706Y-16315986D01*
X33440134Y-16089866D01*
X33214014Y-15904294D01*
X33159209Y-15875000D01*
X33214014Y-15845706D01*
X33440134Y-15660134D01*
X33625706Y-15434014D01*
X33763599Y-15176034D01*
X33848513Y-14896111D01*
X33877185Y-14605000D01*
X33848513Y-14313889D01*
X33763599Y-14033966D01*
X33625706Y-13775986D01*
X33440134Y-13549866D01*
X33214014Y-13364294D01*
X33159209Y-13335000D01*
X33214014Y-13305706D01*
X33440134Y-13120134D01*
X33625706Y-12894014D01*
X33763599Y-12636034D01*
X33848513Y-12356111D01*
X33877185Y-12065000D01*
X33848513Y-11773889D01*
X33763599Y-11493966D01*
X33625706Y-11235986D01*
X33440134Y-11009866D01*
X33214014Y-10824294D01*
X33159209Y-10795000D01*
X33214014Y-10765706D01*
X33440134Y-10580134D01*
X33625706Y-10354014D01*
X33763599Y-10096034D01*
X33848513Y-9816111D01*
X33877185Y-9525000D01*
X33848513Y-9233889D01*
X33763599Y-8953966D01*
X33625706Y-8695986D01*
X33440134Y-8469866D01*
X33410313Y-8445393D01*
X33479180Y-8424502D01*
X33589494Y-8365537D01*
X33681536Y-8290000D01*
X36861928Y-8290000D01*
X36861928Y-9490000D01*
X36874188Y-9614482D01*
X36910498Y-9734180D01*
X36969463Y-9844494D01*
X37048815Y-9941185D01*
X37145506Y-10020537D01*
X37255820Y-10079502D01*
X37375518Y-10115812D01*
X37500000Y-10128072D01*
X38700000Y-10128072D01*
X38824482Y-10115812D01*
X38944180Y-10079502D01*
X39054494Y-10020537D01*
X39071681Y-10006432D01*
X39198516Y-10064237D01*
X39435313Y-10120000D01*
X39678438Y-10128495D01*
X39918549Y-10089395D01*
X40146418Y-10004202D01*
X40222852Y-9963348D01*
X40270159Y-9739764D01*
X39600000Y-9069605D01*
X39585858Y-9083748D01*
X39406253Y-8904143D01*
X39420395Y-8890000D01*
X39779605Y-8890000D01*
X40449764Y-9560159D01*
X40673348Y-9512852D01*
X40774237Y-9291484D01*
X40830000Y-9054687D01*
X40838495Y-8811562D01*
X40799395Y-8571451D01*
X40714202Y-8343582D01*
X40673348Y-8267148D01*
X40449764Y-8219841D01*
X39779605Y-8890000D01*
X39420395Y-8890000D01*
X39406253Y-8875858D01*
X39585858Y-8696253D01*
X39600000Y-8710395D01*
X40270159Y-8040236D01*
X40222852Y-7816652D01*
X40001484Y-7715763D01*
X39764687Y-7660000D01*
X39521562Y-7651505D01*
X39281451Y-7690605D01*
X39067883Y-7770451D01*
X39054494Y-7759463D01*
X38944180Y-7700498D01*
X38824482Y-7664188D01*
X38700000Y-7651928D01*
X37500000Y-7651928D01*
X37375518Y-7664188D01*
X37255820Y-7700498D01*
X37145506Y-7759463D01*
X37048815Y-7838815D01*
X36969463Y-7935506D01*
X36910498Y-8045820D01*
X36874188Y-8165518D01*
X36861928Y-8290000D01*
X33681536Y-8290000D01*
X33686185Y-8286185D01*
X33765537Y-8189494D01*
X33824502Y-8079180D01*
X33860812Y-7959482D01*
X33873072Y-7835000D01*
X33873072Y-6135000D01*
X33860812Y-6010518D01*
X33824502Y-5890820D01*
X33765537Y-5780506D01*
X33686185Y-5683815D01*
X33589494Y-5604463D01*
X33479180Y-5545498D01*
X33359482Y-5509188D01*
X33235000Y-5496928D01*
X31535000Y-5496928D01*
X31410518Y-5509188D01*
X31290820Y-5545498D01*
X31180506Y-5604463D01*
X31083815Y-5683815D01*
X31004463Y-5780506D01*
X30945498Y-5890820D01*
X30909188Y-6010518D01*
X30896928Y-6135000D01*
X30896928Y-6330674D01*
X30860723Y-6350026D01*
X30782813Y-6413966D01*
X30744999Y-6444999D01*
X30721201Y-6473997D01*
X28952998Y-8242201D01*
X28924000Y-8265999D01*
X28900202Y-8294997D01*
X28900201Y-8294998D01*
X28829026Y-8381724D01*
X28758454Y-8513754D01*
X28714998Y-8657015D01*
X28700324Y-8806000D01*
X28704001Y-8843332D01*
X28704001Y-11772340D01*
X28537998Y-11606337D01*
X28253831Y-11416463D01*
X27938081Y-11285675D01*
X27602883Y-11219000D01*
X27261117Y-11219000D01*
X26925919Y-11285675D01*
X26610169Y-11416463D01*
X26326002Y-11606337D01*
X26084337Y-11848002D01*
X25894463Y-12132169D01*
X25763675Y-12447919D01*
X25697000Y-12783117D01*
X25697000Y-13124883D01*
X25763675Y-13460081D01*
X25894463Y-13775831D01*
X26084337Y-14059998D01*
X26326002Y-14301663D01*
X26610169Y-14491537D01*
X26925919Y-14622325D01*
X27261117Y-14689000D01*
X27602883Y-14689000D01*
X27938081Y-14622325D01*
X28253831Y-14491537D01*
X28537998Y-14301663D01*
X28704001Y-14135660D01*
X28704000Y-19814000D01*
X24797237Y-19814000D01*
X24809943Y-19685000D01*
X24782236Y-19403691D01*
X24700182Y-19133192D01*
X24566932Y-18883899D01*
X24387608Y-18665392D01*
X24169101Y-18486068D01*
X24031318Y-18412421D01*
X24223131Y-18297385D01*
X24431519Y-18108414D01*
X24599037Y-17882420D01*
X24719246Y-17628087D01*
X24759904Y-17494039D01*
X24637915Y-17272000D01*
X23495000Y-17272000D01*
X23495000Y-17292000D01*
X23241000Y-17292000D01*
X23241000Y-17272000D01*
X22098085Y-17272000D01*
X21976096Y-17494039D01*
X22016754Y-17628087D01*
X22136963Y-17882420D01*
X22304481Y-18108414D01*
X22512869Y-18297385D01*
X22704682Y-18412421D01*
X22566899Y-18486068D01*
X22348392Y-18665392D01*
X22169068Y-18883899D01*
X22035818Y-19133192D01*
X21953764Y-19403691D01*
X21926057Y-19685000D01*
X15601000Y-19685000D01*
X15601000Y-19558000D01*
X15621000Y-19558000D01*
X15621000Y-19538000D01*
X15875000Y-19538000D01*
X15875000Y-19558000D01*
X17017915Y-19558000D01*
X17139904Y-19335961D01*
X17099246Y-19201913D01*
X16979037Y-18947580D01*
X16811519Y-18721586D01*
X16603131Y-18532615D01*
X16411318Y-18417579D01*
X16549101Y-18343932D01*
X16767608Y-18164608D01*
X16946932Y-17946101D01*
X17080182Y-17696808D01*
X17162236Y-17426309D01*
X17189943Y-17145000D01*
X17162236Y-16863691D01*
X17080182Y-16593192D01*
X16946932Y-16343899D01*
X16767608Y-16125392D01*
X16549101Y-15946068D01*
X16416142Y-15875000D01*
X16549101Y-15803932D01*
X16767608Y-15624608D01*
X16946932Y-15406101D01*
X17080182Y-15156808D01*
X17162236Y-14886309D01*
X17189943Y-14605000D01*
X17162236Y-14323691D01*
X17080182Y-14053192D01*
X16946932Y-13803899D01*
X16767608Y-13585392D01*
X16549101Y-13406068D01*
X16416142Y-13335000D01*
X16549101Y-13263932D01*
X16767608Y-13084608D01*
X16946932Y-12866101D01*
X17080182Y-12616808D01*
X17162236Y-12346309D01*
X17189943Y-12065000D01*
X17162236Y-11783691D01*
X17080182Y-11513192D01*
X16946932Y-11263899D01*
X16767608Y-11045392D01*
X16549101Y-10866068D01*
X16416142Y-10795000D01*
X16549101Y-10723932D01*
X16767608Y-10544608D01*
X16946932Y-10326101D01*
X17080182Y-10076808D01*
X17162236Y-9806309D01*
X17189943Y-9525000D01*
X17162236Y-9243691D01*
X17080182Y-8973192D01*
X16946932Y-8723899D01*
X16767608Y-8505392D01*
X16549101Y-8326068D01*
X16416142Y-8255000D01*
X16549101Y-8183932D01*
X16767608Y-8004608D01*
X16946932Y-7786101D01*
X17080182Y-7536808D01*
X17162236Y-7266309D01*
X17189943Y-6985000D01*
X17162236Y-6703691D01*
X17080182Y-6433192D01*
X17025025Y-6330001D01*
X22090975Y-6330001D01*
X22035818Y-6433192D01*
X21953764Y-6703691D01*
X21926057Y-6985000D01*
X21953764Y-7266309D01*
X22035818Y-7536808D01*
X22169068Y-7786101D01*
X22348392Y-8004608D01*
X22566899Y-8183932D01*
X22699858Y-8255000D01*
X22566899Y-8326068D01*
X22348392Y-8505392D01*
X22169068Y-8723899D01*
X22035818Y-8973192D01*
X21953764Y-9243691D01*
X21926057Y-9525000D01*
X21953764Y-9806309D01*
X22035818Y-10076808D01*
X22169068Y-10326101D01*
X22348392Y-10544608D01*
X22566899Y-10723932D01*
X22699858Y-10795000D01*
X22566899Y-10866068D01*
X22348392Y-11045392D01*
X22169068Y-11263899D01*
X22035818Y-11513192D01*
X21953764Y-11783691D01*
X21926057Y-12065000D01*
X21953764Y-12346309D01*
X22035818Y-12616808D01*
X22169068Y-12866101D01*
X22348392Y-13084608D01*
X22566899Y-13263932D01*
X22699858Y-13335000D01*
X22566899Y-13406068D01*
X22348392Y-13585392D01*
X22169068Y-13803899D01*
X22035818Y-14053192D01*
X21953764Y-14323691D01*
X21926057Y-14605000D01*
X21953764Y-14886309D01*
X22035818Y-15156808D01*
X22169068Y-15406101D01*
X22348392Y-15624608D01*
X22566899Y-15803932D01*
X22704682Y-15877579D01*
X22512869Y-15992615D01*
X22304481Y-16181586D01*
X22136963Y-16407580D01*
X22016754Y-16661913D01*
X21976096Y-16795961D01*
X22098085Y-17018000D01*
X23241000Y-17018000D01*
X23241000Y-16998000D01*
X23495000Y-16998000D01*
X23495000Y-17018000D01*
X24637915Y-17018000D01*
X24759904Y-16795961D01*
X24719246Y-16661913D01*
X24599037Y-16407580D01*
X24431519Y-16181586D01*
X24223131Y-15992615D01*
X24031318Y-15877579D01*
X24169101Y-15803932D01*
X24387608Y-15624608D01*
X24566932Y-15406101D01*
X24700182Y-15156808D01*
X24782236Y-14886309D01*
X24809943Y-14605000D01*
X24782236Y-14323691D01*
X24700182Y-14053192D01*
X24566932Y-13803899D01*
X24387608Y-13585392D01*
X24169101Y-13406068D01*
X24036142Y-13335000D01*
X24169101Y-13263932D01*
X24387608Y-13084608D01*
X24566932Y-12866101D01*
X24700182Y-12616808D01*
X24782236Y-12346309D01*
X24809943Y-12065000D01*
X24782236Y-11783691D01*
X24700182Y-11513192D01*
X24566932Y-11263899D01*
X24387608Y-11045392D01*
X24169101Y-10866068D01*
X24036142Y-10795000D01*
X24169101Y-10723932D01*
X24387608Y-10544608D01*
X24566932Y-10326101D01*
X24700182Y-10076808D01*
X24782236Y-9806309D01*
X24809943Y-9525000D01*
X24782236Y-9243691D01*
X24700182Y-8973192D01*
X24566932Y-8723899D01*
X24387608Y-8505392D01*
X24169101Y-8326068D01*
X24036142Y-8255000D01*
X24169101Y-8183932D01*
X24387608Y-8004608D01*
X24566932Y-7786101D01*
X24700182Y-7536808D01*
X24782236Y-7266309D01*
X24809943Y-6985000D01*
X24782236Y-6703691D01*
X24700182Y-6433192D01*
X24645025Y-6330001D01*
X25476288Y-6330001D01*
X25520225Y-6373938D01*
X25689743Y-6487206D01*
X25878101Y-6565227D01*
X26078060Y-6605001D01*
X26281938Y-6605001D01*
X26481897Y-6565227D01*
X26670255Y-6487206D01*
X26839773Y-6373938D01*
X26983936Y-6229775D01*
X27013064Y-6186181D01*
X27252728Y-6425845D01*
X27198774Y-6556102D01*
X27159000Y-6756061D01*
X27159000Y-6959939D01*
X27198774Y-7159898D01*
X27276795Y-7348256D01*
X27390063Y-7517774D01*
X27534226Y-7661937D01*
X27703744Y-7775205D01*
X27892102Y-7853226D01*
X28092061Y-7893000D01*
X28295939Y-7893000D01*
X28495898Y-7853226D01*
X28684256Y-7775205D01*
X28853774Y-7661937D01*
X28997937Y-7517774D01*
X29111205Y-7348256D01*
X29189226Y-7159898D01*
X29229000Y-6959939D01*
X29229000Y-6756061D01*
X29189226Y-6556102D01*
X29111205Y-6367744D01*
X28997937Y-6198226D01*
X28942987Y-6143276D01*
X28899546Y-6000068D01*
X28828974Y-5868039D01*
X28734001Y-5752314D01*
X28705003Y-5728516D01*
X26360224Y-3383738D01*
X26455000Y-3393072D01*
X28155000Y-3393072D01*
X28279482Y-3380812D01*
X28399180Y-3344502D01*
X28509494Y-3285537D01*
X28606185Y-3206185D01*
X28685537Y-3109494D01*
X28744502Y-2999180D01*
X28765393Y-2930313D01*
X28789866Y-2960134D01*
X29015986Y-3145706D01*
X29273966Y-3283599D01*
X29553889Y-3368513D01*
X29772050Y-3390000D01*
X29917950Y-3390000D01*
X30136111Y-3368513D01*
X30416034Y-3283599D01*
X30674014Y-3145706D01*
X30900134Y-2960134D01*
X31085706Y-2734014D01*
X31115000Y-2679209D01*
X31144294Y-2734014D01*
X31329866Y-2960134D01*
X31555986Y-3145706D01*
X31813966Y-3283599D01*
X32093889Y-3368513D01*
X32312050Y-3390000D01*
X32457950Y-3390000D01*
X32676111Y-3368513D01*
X32956034Y-3283599D01*
X33214014Y-3145706D01*
X33440134Y-2960134D01*
X33625706Y-2734014D01*
X33655000Y-2679209D01*
X33684294Y-2734014D01*
X33869866Y-2960134D01*
X34095986Y-3145706D01*
X34353966Y-3283599D01*
X34633889Y-3368513D01*
X34852050Y-3390000D01*
X34997950Y-3390000D01*
X35216111Y-3368513D01*
X35496034Y-3283599D01*
X35754014Y-3145706D01*
X35980134Y-2960134D01*
X36165706Y-2734014D01*
X36200201Y-2669477D01*
X36269822Y-2786355D01*
X36464731Y-3002588D01*
X36698080Y-3176641D01*
X36960901Y-3301825D01*
X37108110Y-3346476D01*
X37338000Y-3225155D01*
X37338000Y-2032000D01*
X37592000Y-2032000D01*
X37592000Y-3225155D01*
X37821890Y-3346476D01*
X37969099Y-3301825D01*
X38231920Y-3176641D01*
X38465269Y-3002588D01*
X38660178Y-2786355D01*
X38735000Y-2660745D01*
X38809822Y-2786355D01*
X39004731Y-3002588D01*
X39238080Y-3176641D01*
X39500901Y-3301825D01*
X39648110Y-3346476D01*
X39878000Y-3225155D01*
X39878000Y-2032000D01*
X40132000Y-2032000D01*
X40132000Y-3225155D01*
X40361890Y-3346476D01*
X40509099Y-3301825D01*
X40771920Y-3176641D01*
X41005269Y-3002588D01*
X41200178Y-2786355D01*
X41349157Y-2536252D01*
X41446481Y-2261891D01*
X41325814Y-2032000D01*
X40132000Y-2032000D01*
X39878000Y-2032000D01*
X37592000Y-2032000D01*
X37338000Y-2032000D01*
X37318000Y-2032000D01*
X37318000Y-1778000D01*
X37338000Y-1778000D01*
X37338000Y-1758000D01*
X37592000Y-1758000D01*
X37592000Y-1778000D01*
X39878000Y-1778000D01*
X39878000Y-1758000D01*
X40132000Y-1758000D01*
X40132000Y-1778000D01*
X41325814Y-1778000D01*
X41446481Y-1548109D01*
X41349157Y-1273748D01*
X41200178Y-1023645D01*
X41005269Y-807412D01*
X40841154Y-685000D01*
X48641000Y-685000D01*
X48641000Y-48845000D01*
X46151636Y-48845000D01*
X46241038Y-48797214D01*
X46397048Y-48481653D01*
X45085000Y-47169605D01*
X43772952Y-48481653D01*
X43928962Y-48797214D01*
X44022824Y-48845000D01*
X40797666Y-48845000D01*
X40845000Y-48607033D01*
X40845000Y-48284967D01*
X40782168Y-47969088D01*
X40658918Y-47671537D01*
X40479987Y-47403748D01*
X40252252Y-47176013D01*
X40037955Y-47032824D01*
X42940098Y-47032824D01*
X42989666Y-47450451D01*
X43119757Y-47850383D01*
X43277786Y-48146038D01*
X43593347Y-48302048D01*
X44905395Y-46990000D01*
X45264605Y-46990000D01*
X46576653Y-48302048D01*
X46892214Y-48146038D01*
X47083020Y-47771255D01*
X47197044Y-47366449D01*
X47229902Y-46947176D01*
X47180334Y-46529549D01*
X47050243Y-46129617D01*
X46892214Y-45833962D01*
X46576653Y-45677952D01*
X45264605Y-46990000D01*
X44905395Y-46990000D01*
X43593347Y-45677952D01*
X43277786Y-45833962D01*
X43086980Y-46208745D01*
X42972956Y-46613551D01*
X42940098Y-47032824D01*
X40037955Y-47032824D01*
X39984463Y-46997082D01*
X39686912Y-46873832D01*
X39371033Y-46811000D01*
X39048967Y-46811000D01*
X38733088Y-46873832D01*
X38435537Y-46997082D01*
X38167748Y-47176013D01*
X37940013Y-47403748D01*
X37761082Y-47671537D01*
X37637832Y-47969088D01*
X37575000Y-48284967D01*
X37575000Y-48607033D01*
X37622334Y-48845000D01*
X28797666Y-48845000D01*
X28845000Y-48607033D01*
X28845000Y-48284967D01*
X28782168Y-47969088D01*
X28658918Y-47671537D01*
X28479987Y-47403748D01*
X28252252Y-47176013D01*
X27984463Y-46997082D01*
X27686912Y-46873832D01*
X27371033Y-46811000D01*
X27048967Y-46811000D01*
X26733088Y-46873832D01*
X26435537Y-46997082D01*
X26167748Y-47176013D01*
X25940013Y-47403748D01*
X25761082Y-47671537D01*
X25637832Y-47969088D01*
X25575000Y-48284967D01*
X25575000Y-48607033D01*
X25622334Y-48845000D01*
X3331736Y-48845000D01*
X3302159Y-48815423D01*
X3280711Y-48789289D01*
X3176407Y-48703688D01*
X3057406Y-48640081D01*
X2928283Y-48600912D01*
X2827647Y-48591000D01*
X2827639Y-48591000D01*
X2794000Y-48587687D01*
X2760361Y-48591000D01*
X1811505Y-48591000D01*
X1566338Y-48566961D01*
X1362742Y-48505492D01*
X1174962Y-48405647D01*
X1010149Y-48271230D01*
X874585Y-48107361D01*
X773432Y-47920283D01*
X710541Y-47717114D01*
X685000Y-47474109D01*
X685000Y-45295117D01*
X1821000Y-45295117D01*
X1821000Y-45636883D01*
X1887675Y-45972081D01*
X2018463Y-46287831D01*
X2208337Y-46571998D01*
X2450002Y-46813663D01*
X2734169Y-47003537D01*
X3049919Y-47134325D01*
X3385117Y-47201000D01*
X3726883Y-47201000D01*
X4062081Y-47134325D01*
X4377831Y-47003537D01*
X4661998Y-46813663D01*
X4903663Y-46571998D01*
X5093537Y-46287831D01*
X5224325Y-45972081D01*
X5291000Y-45636883D01*
X5291000Y-45295117D01*
X5224325Y-44959919D01*
X5093537Y-44644169D01*
X4903663Y-44360002D01*
X4855661Y-44312000D01*
X7859928Y-44312000D01*
X7859928Y-46112000D01*
X7872188Y-46236482D01*
X7908498Y-46356180D01*
X7967463Y-46466494D01*
X8046815Y-46563185D01*
X8143506Y-46642537D01*
X8253820Y-46701502D01*
X8373518Y-46737812D01*
X8498000Y-46750072D01*
X10298000Y-46750072D01*
X10422482Y-46737812D01*
X10542180Y-46701502D01*
X10652494Y-46642537D01*
X10749185Y-46563185D01*
X10828537Y-46466494D01*
X10887502Y-46356180D01*
X10893056Y-46337873D01*
X10959495Y-46404312D01*
X11210905Y-46572299D01*
X11490257Y-46688011D01*
X11786816Y-46747000D01*
X12089184Y-46747000D01*
X12385743Y-46688011D01*
X12665095Y-46572299D01*
X12916505Y-46404312D01*
X13130312Y-46190505D01*
X13298299Y-45939095D01*
X13414011Y-45659743D01*
X13473000Y-45363184D01*
X13473000Y-45060816D01*
X13414011Y-44764257D01*
X13298299Y-44484905D01*
X13130312Y-44233495D01*
X13116817Y-44220000D01*
X15641928Y-44220000D01*
X15641928Y-47220000D01*
X15654188Y-47344482D01*
X15690498Y-47464180D01*
X15749463Y-47574494D01*
X15828815Y-47671185D01*
X15925506Y-47750537D01*
X16035820Y-47809502D01*
X16155518Y-47845812D01*
X16280000Y-47858072D01*
X19280000Y-47858072D01*
X19404482Y-47845812D01*
X19524180Y-47809502D01*
X19634494Y-47750537D01*
X19731185Y-47671185D01*
X19810537Y-47574494D01*
X19869502Y-47464180D01*
X19905812Y-47344482D01*
X19918072Y-47220000D01*
X19918072Y-47211653D01*
X21547952Y-47211653D01*
X21703962Y-47527214D01*
X22078745Y-47718020D01*
X22483551Y-47832044D01*
X22902824Y-47864902D01*
X23320451Y-47815334D01*
X23720383Y-47685243D01*
X24016038Y-47527214D01*
X24172048Y-47211653D01*
X22860000Y-45899605D01*
X21547952Y-47211653D01*
X19918072Y-47211653D01*
X19918072Y-45762824D01*
X20715098Y-45762824D01*
X20764666Y-46180451D01*
X20894757Y-46580383D01*
X21052786Y-46876038D01*
X21368347Y-47032048D01*
X22680395Y-45720000D01*
X23039605Y-45720000D01*
X24351653Y-47032048D01*
X24667214Y-46876038D01*
X24858020Y-46501255D01*
X24972044Y-46096449D01*
X25004902Y-45677176D01*
X24955334Y-45259549D01*
X24825243Y-44859617D01*
X24667214Y-44563962D01*
X24351653Y-44407952D01*
X23039605Y-45720000D01*
X22680395Y-45720000D01*
X21368347Y-44407952D01*
X21052786Y-44563962D01*
X20861980Y-44938745D01*
X20747956Y-45343551D01*
X20715098Y-45762824D01*
X19918072Y-45762824D01*
X19918072Y-44228347D01*
X21547952Y-44228347D01*
X22860000Y-45540395D01*
X24172048Y-44228347D01*
X24016038Y-43912786D01*
X23641255Y-43721980D01*
X23236449Y-43607956D01*
X22817176Y-43575098D01*
X22399549Y-43624666D01*
X21999617Y-43754757D01*
X21703962Y-43912786D01*
X21547952Y-44228347D01*
X19918072Y-44228347D01*
X19918072Y-44220000D01*
X19905812Y-44095518D01*
X19869502Y-43975820D01*
X19810537Y-43865506D01*
X19731185Y-43768815D01*
X19634494Y-43689463D01*
X19524180Y-43630498D01*
X19404482Y-43594188D01*
X19280000Y-43581928D01*
X16280000Y-43581928D01*
X16155518Y-43594188D01*
X16035820Y-43630498D01*
X15925506Y-43689463D01*
X15828815Y-43768815D01*
X15749463Y-43865506D01*
X15690498Y-43975820D01*
X15654188Y-44095518D01*
X15641928Y-44220000D01*
X13116817Y-44220000D01*
X12916505Y-44019688D01*
X12665095Y-43851701D01*
X12385743Y-43735989D01*
X12089184Y-43677000D01*
X11786816Y-43677000D01*
X11490257Y-43735989D01*
X11210905Y-43851701D01*
X10959495Y-44019688D01*
X10893056Y-44086127D01*
X10887502Y-44067820D01*
X10828537Y-43957506D01*
X10749185Y-43860815D01*
X10652494Y-43781463D01*
X10542180Y-43722498D01*
X10422482Y-43686188D01*
X10298000Y-43673928D01*
X8498000Y-43673928D01*
X8373518Y-43686188D01*
X8253820Y-43722498D01*
X8143506Y-43781463D01*
X8046815Y-43860815D01*
X7967463Y-43957506D01*
X7908498Y-44067820D01*
X7872188Y-44187518D01*
X7859928Y-44312000D01*
X4855661Y-44312000D01*
X4661998Y-44118337D01*
X4377831Y-43928463D01*
X4062081Y-43797675D01*
X3726883Y-43731000D01*
X3385117Y-43731000D01*
X3049919Y-43797675D01*
X2734169Y-43928463D01*
X2450002Y-44118337D01*
X2208337Y-44360002D01*
X2018463Y-44644169D01*
X1887675Y-44959919D01*
X1821000Y-45295117D01*
X685000Y-45295117D01*
X685000Y-42284967D01*
X25575000Y-42284967D01*
X25575000Y-42607033D01*
X25637832Y-42922912D01*
X25761082Y-43220463D01*
X25940013Y-43488252D01*
X26167748Y-43715987D01*
X26435537Y-43894918D01*
X26733088Y-44018168D01*
X27048967Y-44081000D01*
X27371033Y-44081000D01*
X27686912Y-44018168D01*
X27735264Y-43998140D01*
X27725000Y-44049740D01*
X27725000Y-44342260D01*
X27782068Y-44629158D01*
X27894010Y-44899411D01*
X28056525Y-45142632D01*
X28263368Y-45349475D01*
X28506589Y-45511990D01*
X28776842Y-45623932D01*
X29063740Y-45681000D01*
X29356260Y-45681000D01*
X29643158Y-45623932D01*
X29913411Y-45511990D01*
X30156632Y-45349475D01*
X30363475Y-45142632D01*
X30525990Y-44899411D01*
X30637932Y-44629158D01*
X30695000Y-44342260D01*
X30695000Y-44049740D01*
X31725000Y-44049740D01*
X31725000Y-44342260D01*
X31782068Y-44629158D01*
X31894010Y-44899411D01*
X32056525Y-45142632D01*
X32263368Y-45349475D01*
X32506589Y-45511990D01*
X32776842Y-45623932D01*
X33063740Y-45681000D01*
X33356260Y-45681000D01*
X33643158Y-45623932D01*
X33913411Y-45511990D01*
X34156632Y-45349475D01*
X34363475Y-45142632D01*
X34525990Y-44899411D01*
X34637932Y-44629158D01*
X34695000Y-44342260D01*
X34695000Y-44049740D01*
X35725000Y-44049740D01*
X35725000Y-44342260D01*
X35782068Y-44629158D01*
X35894010Y-44899411D01*
X36056525Y-45142632D01*
X36263368Y-45349475D01*
X36506589Y-45511990D01*
X36776842Y-45623932D01*
X37063740Y-45681000D01*
X37356260Y-45681000D01*
X37643158Y-45623932D01*
X37913411Y-45511990D01*
X37933829Y-45498347D01*
X43772952Y-45498347D01*
X45085000Y-46810395D01*
X46397048Y-45498347D01*
X46241038Y-45182786D01*
X45866255Y-44991980D01*
X45461449Y-44877956D01*
X45042176Y-44845098D01*
X44624549Y-44894666D01*
X44224617Y-45024757D01*
X43928962Y-45182786D01*
X43772952Y-45498347D01*
X37933829Y-45498347D01*
X38156632Y-45349475D01*
X38363475Y-45142632D01*
X38525990Y-44899411D01*
X38637932Y-44629158D01*
X38695000Y-44342260D01*
X38695000Y-44049740D01*
X38684736Y-43998140D01*
X38733088Y-44018168D01*
X39048967Y-44081000D01*
X39371033Y-44081000D01*
X39686912Y-44018168D01*
X39984463Y-43894918D01*
X40252252Y-43715987D01*
X40479987Y-43488252D01*
X40658918Y-43220463D01*
X40782168Y-42922912D01*
X40845000Y-42607033D01*
X40845000Y-42284967D01*
X40782168Y-41969088D01*
X40670593Y-41699721D01*
X42950000Y-41699721D01*
X42950000Y-42120279D01*
X43032047Y-42532756D01*
X43192988Y-42921302D01*
X43426637Y-43270983D01*
X43724017Y-43568363D01*
X44073698Y-43802012D01*
X44462244Y-43962953D01*
X44874721Y-44045000D01*
X45295279Y-44045000D01*
X45707756Y-43962953D01*
X46096302Y-43802012D01*
X46445983Y-43568363D01*
X46743363Y-43270983D01*
X46977012Y-42921302D01*
X47137953Y-42532756D01*
X47220000Y-42120279D01*
X47220000Y-41699721D01*
X47137953Y-41287244D01*
X46977012Y-40898698D01*
X46743363Y-40549017D01*
X46445983Y-40251637D01*
X46096302Y-40017988D01*
X45707756Y-39857047D01*
X45295279Y-39775000D01*
X44874721Y-39775000D01*
X44462244Y-39857047D01*
X44073698Y-40017988D01*
X43724017Y-40251637D01*
X43426637Y-40549017D01*
X43192988Y-40898698D01*
X43032047Y-41287244D01*
X42950000Y-41699721D01*
X40670593Y-41699721D01*
X40658918Y-41671537D01*
X40479987Y-41403748D01*
X40252252Y-41176013D01*
X39984463Y-40997082D01*
X39686912Y-40873832D01*
X39371033Y-40811000D01*
X39048967Y-40811000D01*
X38733088Y-40873832D01*
X38435537Y-40997082D01*
X38167748Y-41176013D01*
X37940013Y-41403748D01*
X37761082Y-41671537D01*
X37637832Y-41969088D01*
X37575000Y-42284967D01*
X37575000Y-42607033D01*
X37605543Y-42760586D01*
X37356260Y-42711000D01*
X37063740Y-42711000D01*
X36776842Y-42768068D01*
X36506589Y-42880010D01*
X36263368Y-43042525D01*
X36056525Y-43249368D01*
X35894010Y-43492589D01*
X35782068Y-43762842D01*
X35725000Y-44049740D01*
X34695000Y-44049740D01*
X34637932Y-43762842D01*
X34525990Y-43492589D01*
X34363475Y-43249368D01*
X34156632Y-43042525D01*
X33913411Y-42880010D01*
X33643158Y-42768068D01*
X33356260Y-42711000D01*
X33063740Y-42711000D01*
X32776842Y-42768068D01*
X32506589Y-42880010D01*
X32263368Y-43042525D01*
X32056525Y-43249368D01*
X31894010Y-43492589D01*
X31782068Y-43762842D01*
X31725000Y-44049740D01*
X30695000Y-44049740D01*
X30637932Y-43762842D01*
X30525990Y-43492589D01*
X30363475Y-43249368D01*
X30156632Y-43042525D01*
X29913411Y-42880010D01*
X29643158Y-42768068D01*
X29356260Y-42711000D01*
X29063740Y-42711000D01*
X28814457Y-42760586D01*
X28845000Y-42607033D01*
X28845000Y-42284967D01*
X28782168Y-41969088D01*
X28658918Y-41671537D01*
X28479987Y-41403748D01*
X28252252Y-41176013D01*
X27984463Y-40997082D01*
X27686912Y-40873832D01*
X27371033Y-40811000D01*
X27048967Y-40811000D01*
X26733088Y-40873832D01*
X26435537Y-40997082D01*
X26167748Y-41176013D01*
X25940013Y-41403748D01*
X25761082Y-41671537D01*
X25637832Y-41969088D01*
X25575000Y-42284967D01*
X685000Y-42284967D01*
X685000Y-37708000D01*
X7859928Y-37708000D01*
X7859928Y-39508000D01*
X7872188Y-39632482D01*
X7908498Y-39752180D01*
X7967463Y-39862494D01*
X8046815Y-39959185D01*
X8143506Y-40038537D01*
X8253820Y-40097502D01*
X8373518Y-40133812D01*
X8498000Y-40146072D01*
X10298000Y-40146072D01*
X10422482Y-40133812D01*
X10542180Y-40097502D01*
X10652494Y-40038537D01*
X10749185Y-39959185D01*
X10828537Y-39862494D01*
X10887502Y-39752180D01*
X10893056Y-39733873D01*
X10959495Y-39800312D01*
X11210905Y-39968299D01*
X11490257Y-40084011D01*
X11786816Y-40143000D01*
X12089184Y-40143000D01*
X12385743Y-40084011D01*
X12665095Y-39968299D01*
X12916505Y-39800312D01*
X13130312Y-39586505D01*
X13298299Y-39335095D01*
X13414011Y-39055743D01*
X13473000Y-38759184D01*
X13473000Y-38506061D01*
X14713000Y-38506061D01*
X14713000Y-38709939D01*
X14752774Y-38909898D01*
X14830795Y-39098256D01*
X14944063Y-39267774D01*
X15088226Y-39411937D01*
X15257744Y-39525205D01*
X15446102Y-39603226D01*
X15646061Y-39643000D01*
X15849939Y-39643000D01*
X16049898Y-39603226D01*
X16238256Y-39525205D01*
X16407774Y-39411937D01*
X16451711Y-39368000D01*
X18065928Y-39368000D01*
X18065928Y-39716000D01*
X18078188Y-39840482D01*
X18114498Y-39960180D01*
X18173463Y-40070494D01*
X18252815Y-40167185D01*
X18349506Y-40246537D01*
X18459820Y-40305502D01*
X18579518Y-40341812D01*
X18704000Y-40354072D01*
X19904000Y-40354072D01*
X20028482Y-40341812D01*
X20148180Y-40305502D01*
X20258494Y-40246537D01*
X20275681Y-40232432D01*
X20402516Y-40290237D01*
X20639313Y-40346000D01*
X20882438Y-40354495D01*
X21122549Y-40315395D01*
X21350418Y-40230202D01*
X21426852Y-40189348D01*
X21474159Y-39965764D01*
X20804000Y-39295605D01*
X20789858Y-39309748D01*
X20610253Y-39130143D01*
X20624395Y-39116000D01*
X20983605Y-39116000D01*
X21653764Y-39786159D01*
X21877348Y-39738852D01*
X21978237Y-39517484D01*
X22034000Y-39280687D01*
X22042495Y-39037562D01*
X22003395Y-38797451D01*
X21918202Y-38569582D01*
X21877348Y-38493148D01*
X21653764Y-38445841D01*
X20983605Y-39116000D01*
X20624395Y-39116000D01*
X20610253Y-39101858D01*
X20789858Y-38922253D01*
X20804000Y-38936395D01*
X21474159Y-38266236D01*
X21426852Y-38042652D01*
X21205484Y-37941763D01*
X20968687Y-37886000D01*
X20725562Y-37877505D01*
X20485451Y-37916605D01*
X20271883Y-37996451D01*
X20258494Y-37985463D01*
X20148180Y-37926498D01*
X20028482Y-37890188D01*
X19904000Y-37877928D01*
X19007394Y-37877928D01*
X18944986Y-37858997D01*
X18833333Y-37848000D01*
X18833322Y-37848000D01*
X18796000Y-37844324D01*
X18758678Y-37848000D01*
X16451711Y-37848000D01*
X16407774Y-37804063D01*
X16238256Y-37690795D01*
X16049898Y-37612774D01*
X15849939Y-37573000D01*
X15646061Y-37573000D01*
X15446102Y-37612774D01*
X15257744Y-37690795D01*
X15088226Y-37804063D01*
X14944063Y-37948226D01*
X14830795Y-38117744D01*
X14752774Y-38306102D01*
X14713000Y-38506061D01*
X13473000Y-38506061D01*
X13473000Y-38456816D01*
X13414011Y-38160257D01*
X13298299Y-37880905D01*
X13130312Y-37629495D01*
X12916505Y-37415688D01*
X12665095Y-37247701D01*
X12385743Y-37131989D01*
X12089184Y-37073000D01*
X11786816Y-37073000D01*
X11490257Y-37131989D01*
X11210905Y-37247701D01*
X10959495Y-37415688D01*
X10893056Y-37482127D01*
X10887502Y-37463820D01*
X10828537Y-37353506D01*
X10749185Y-37256815D01*
X10652494Y-37177463D01*
X10542180Y-37118498D01*
X10422482Y-37082188D01*
X10298000Y-37069928D01*
X8498000Y-37069928D01*
X8373518Y-37082188D01*
X8253820Y-37118498D01*
X8143506Y-37177463D01*
X8046815Y-37256815D01*
X7967463Y-37353506D01*
X7908498Y-37463820D01*
X7872188Y-37583518D01*
X7859928Y-37708000D01*
X685000Y-37708000D01*
X685000Y-31104000D01*
X7859928Y-31104000D01*
X7859928Y-32904000D01*
X7872188Y-33028482D01*
X7908498Y-33148180D01*
X7967463Y-33258494D01*
X8046815Y-33355185D01*
X8143506Y-33434537D01*
X8253820Y-33493502D01*
X8373518Y-33529812D01*
X8498000Y-33542072D01*
X10298000Y-33542072D01*
X10422482Y-33529812D01*
X10542180Y-33493502D01*
X10652494Y-33434537D01*
X10749185Y-33355185D01*
X10828537Y-33258494D01*
X10887502Y-33148180D01*
X10893056Y-33129873D01*
X10959495Y-33196312D01*
X11210905Y-33364299D01*
X11490257Y-33480011D01*
X11786816Y-33539000D01*
X12089184Y-33539000D01*
X12385743Y-33480011D01*
X12665095Y-33364299D01*
X12916505Y-33196312D01*
X13130312Y-32982505D01*
X13298299Y-32731095D01*
X13414011Y-32451743D01*
X13473000Y-32155184D01*
X13473000Y-31852816D01*
X13414011Y-31556257D01*
X13298299Y-31276905D01*
X13130312Y-31025495D01*
X12916505Y-30811688D01*
X12665095Y-30643701D01*
X12385743Y-30527989D01*
X12089184Y-30469000D01*
X11786816Y-30469000D01*
X11490257Y-30527989D01*
X11210905Y-30643701D01*
X10959495Y-30811688D01*
X10893056Y-30878127D01*
X10887502Y-30859820D01*
X10828537Y-30749506D01*
X10749185Y-30652815D01*
X10652494Y-30573463D01*
X10542180Y-30514498D01*
X10422482Y-30478188D01*
X10298000Y-30465928D01*
X8498000Y-30465928D01*
X8373518Y-30478188D01*
X8253820Y-30514498D01*
X8143506Y-30573463D01*
X8046815Y-30652815D01*
X7967463Y-30749506D01*
X7908498Y-30859820D01*
X7872188Y-30979518D01*
X7859928Y-31104000D01*
X685000Y-31104000D01*
X685000Y-30509735D01*
X714573Y-30480162D01*
X740711Y-30458711D01*
X826312Y-30354407D01*
X889919Y-30235406D01*
X929088Y-30106283D01*
X939000Y-30005647D01*
X939000Y-30005640D01*
X942313Y-29972001D01*
X939000Y-29938362D01*
X939000Y-25644589D01*
X3187000Y-25644589D01*
X3187000Y-25917411D01*
X3240225Y-26184989D01*
X3344629Y-26437043D01*
X3496201Y-26663886D01*
X3689114Y-26856799D01*
X3915957Y-27008371D01*
X4168011Y-27112775D01*
X4435589Y-27166000D01*
X4708411Y-27166000D01*
X4975989Y-27112775D01*
X5228043Y-27008371D01*
X5454886Y-26856799D01*
X5647799Y-26663886D01*
X5799371Y-26437043D01*
X5903775Y-26184989D01*
X5957000Y-25917411D01*
X5957000Y-25644589D01*
X5903775Y-25377011D01*
X5799371Y-25124957D01*
X5647799Y-24898114D01*
X5454886Y-24705201D01*
X5228043Y-24553629D01*
X4975989Y-24449225D01*
X4708411Y-24396000D01*
X4435589Y-24396000D01*
X4168011Y-24449225D01*
X3915957Y-24553629D01*
X3689114Y-24705201D01*
X3496201Y-24898114D01*
X3344629Y-25124957D01*
X3240225Y-25377011D01*
X3187000Y-25644589D01*
X939000Y-25644589D01*
X939000Y-20764589D01*
X3187000Y-20764589D01*
X3187000Y-21037411D01*
X3240225Y-21304989D01*
X3344629Y-21557043D01*
X3496201Y-21783886D01*
X3689114Y-21976799D01*
X3915957Y-22128371D01*
X4168011Y-22232775D01*
X4435589Y-22286000D01*
X4708411Y-22286000D01*
X4975989Y-22232775D01*
X5228043Y-22128371D01*
X5454886Y-21976799D01*
X5647799Y-21783886D01*
X5799371Y-21557043D01*
X5903775Y-21304989D01*
X5957000Y-21037411D01*
X5957000Y-20764589D01*
X5903775Y-20497011D01*
X5799371Y-20244957D01*
X5647799Y-20018114D01*
X5454886Y-19825201D01*
X5228043Y-19673629D01*
X4975989Y-19569225D01*
X4708411Y-19516000D01*
X4435589Y-19516000D01*
X4168011Y-19569225D01*
X3915957Y-19673629D01*
X3689114Y-19825201D01*
X3496201Y-20018114D01*
X3344629Y-20244957D01*
X3240225Y-20497011D01*
X3187000Y-20764589D01*
X939000Y-20764589D01*
X939000Y-17746353D01*
X929088Y-17645717D01*
X889919Y-17516594D01*
X826312Y-17397593D01*
X740710Y-17293289D01*
X685000Y-17247568D01*
X685000Y-1303504D01*
X699364Y-1157008D01*
X732176Y-1048330D01*
X785479Y-948082D01*
X857232Y-860103D01*
X944707Y-787737D01*
X1044579Y-733737D01*
X1153027Y-700167D01*
X1297331Y-685000D01*
X6095538Y-685000D01*
X6131714Y-751907D01*
X6131714Y-751907D01*
G37*
X6131714Y-751907D02*
X6166412Y-803349D01*
X6200428Y-855330D01*
X6206473Y-862742D01*
X6301269Y-977330D01*
X6345322Y-1021077D01*
X6388760Y-1065434D01*
X6396129Y-1071530D01*
X6511376Y-1165523D01*
X6563094Y-1199884D01*
X6614314Y-1234955D01*
X6622727Y-1239505D01*
X6754035Y-1309323D01*
X6811473Y-1332997D01*
X6868500Y-1357439D01*
X6877636Y-1360268D01*
X7020005Y-1403251D01*
X7080866Y-1415302D01*
X7141638Y-1428219D01*
X7151150Y-1429219D01*
X7299157Y-1443731D01*
X7299163Y-1443731D01*
X7332353Y-1447000D01*
X9177647Y-1447000D01*
X9206788Y-1444130D01*
X9211403Y-1444162D01*
X9220922Y-1443229D01*
X9368823Y-1427683D01*
X9429613Y-1415205D01*
X9490622Y-1403567D01*
X9499778Y-1400803D01*
X9641844Y-1356827D01*
X9699097Y-1332760D01*
X9756645Y-1309509D01*
X9765089Y-1305019D01*
X9895907Y-1234286D01*
X9947349Y-1199588D01*
X9999330Y-1165572D01*
X10006742Y-1159527D01*
X10121330Y-1064731D01*
X10165077Y-1020678D01*
X10209434Y-977240D01*
X10215530Y-969871D01*
X10309523Y-854624D01*
X10343884Y-802906D01*
X10378955Y-751686D01*
X10383505Y-743273D01*
X10414489Y-685000D01*
X10697188Y-685000D01*
X10684463Y-700506D01*
X10625498Y-810820D01*
X10589188Y-930518D01*
X10576928Y-1055000D01*
X10576928Y-2755000D01*
X10589188Y-2879482D01*
X10625498Y-2999180D01*
X10684463Y-3109494D01*
X10763815Y-3206185D01*
X10860506Y-3285537D01*
X10970820Y-3344502D01*
X11039687Y-3365393D01*
X11009866Y-3389866D01*
X10824294Y-3615986D01*
X10686401Y-3873966D01*
X10601487Y-4153889D01*
X10572815Y-4445000D01*
X10601487Y-4736111D01*
X10686401Y-5016034D01*
X10824294Y-5274014D01*
X11009866Y-5500134D01*
X11235986Y-5685706D01*
X11290791Y-5715000D01*
X11235986Y-5744294D01*
X11009866Y-5929866D01*
X10824294Y-6155986D01*
X10686401Y-6413966D01*
X10601487Y-6693889D01*
X10572815Y-6985000D01*
X10601487Y-7276111D01*
X10686401Y-7556034D01*
X10824294Y-7814014D01*
X11009866Y-8040134D01*
X11235986Y-8225706D01*
X11290791Y-8255000D01*
X11235986Y-8284294D01*
X11009866Y-8469866D01*
X10824294Y-8695986D01*
X10686401Y-8953966D01*
X10601487Y-9233889D01*
X10572815Y-9525000D01*
X10601487Y-9816111D01*
X10686401Y-10096034D01*
X10824294Y-10354014D01*
X11009866Y-10580134D01*
X11235986Y-10765706D01*
X11290791Y-10795000D01*
X11235986Y-10824294D01*
X11009866Y-11009866D01*
X10824294Y-11235986D01*
X10686401Y-11493966D01*
X10601487Y-11773889D01*
X10572815Y-12065000D01*
X10601487Y-12356111D01*
X10686401Y-12636034D01*
X10824294Y-12894014D01*
X11009866Y-13120134D01*
X11235986Y-13305706D01*
X11290791Y-13335000D01*
X11235986Y-13364294D01*
X11009866Y-13549866D01*
X10824294Y-13775986D01*
X10686401Y-14033966D01*
X10601487Y-14313889D01*
X10572815Y-14605000D01*
X10601487Y-14896111D01*
X10686401Y-15176034D01*
X10824294Y-15434014D01*
X11009866Y-15660134D01*
X11235986Y-15845706D01*
X11290791Y-15875000D01*
X11235986Y-15904294D01*
X11009866Y-16089866D01*
X10824294Y-16315986D01*
X10686401Y-16573966D01*
X10601487Y-16853889D01*
X10572815Y-17145000D01*
X10601487Y-17436111D01*
X10686401Y-17716034D01*
X10824294Y-17974014D01*
X11009866Y-18200134D01*
X11235986Y-18385706D01*
X11290791Y-18415000D01*
X11235986Y-18444294D01*
X11009866Y-18629866D01*
X10824294Y-18855986D01*
X10686401Y-19113966D01*
X10601487Y-19393889D01*
X10572815Y-19685000D01*
X10601487Y-19976111D01*
X10686401Y-20256034D01*
X10824294Y-20514014D01*
X11009866Y-20740134D01*
X11235986Y-20925706D01*
X11493966Y-21063599D01*
X11773889Y-21148513D01*
X11992050Y-21170000D01*
X12137950Y-21170000D01*
X12356111Y-21148513D01*
X12430995Y-21125797D01*
X12665001Y-21359803D01*
X12665002Y-30024669D01*
X12661325Y-30062001D01*
X12675999Y-30210986D01*
X12719455Y-30354247D01*
X12790027Y-30486277D01*
X12813188Y-30514498D01*
X12885001Y-30602002D01*
X12913999Y-30625800D01*
X14347292Y-32059094D01*
X14333764Y-32103691D01*
X14306057Y-32385000D01*
X14333764Y-32666309D01*
X14415818Y-32936808D01*
X14549068Y-33186101D01*
X14728392Y-33404608D01*
X14946899Y-33583932D01*
X15079858Y-33655000D01*
X14946899Y-33726068D01*
X14728392Y-33905392D01*
X14549068Y-34123899D01*
X14415818Y-34373192D01*
X14333764Y-34643691D01*
X14306057Y-34925000D01*
X14333764Y-35206309D01*
X14415818Y-35476808D01*
X14549068Y-35726101D01*
X14728392Y-35944608D01*
X14946899Y-36123932D01*
X15196192Y-36257182D01*
X15466691Y-36339236D01*
X15677508Y-36360000D01*
X15818492Y-36360000D01*
X16029309Y-36339236D01*
X16073906Y-36325708D01*
X17343201Y-37595003D01*
X17366999Y-37624001D01*
X17395997Y-37647799D01*
X17482723Y-37718974D01*
X17552201Y-37756111D01*
X17614753Y-37789546D01*
X17758014Y-37833003D01*
X17869667Y-37844000D01*
X17869676Y-37844000D01*
X17906999Y-37847676D01*
X17944322Y-37844000D01*
X21140289Y-37844000D01*
X21184226Y-37887937D01*
X21353744Y-38001205D01*
X21542102Y-38079226D01*
X21742061Y-38119000D01*
X21945939Y-38119000D01*
X22145898Y-38079226D01*
X22334256Y-38001205D01*
X22503774Y-37887937D01*
X22647937Y-37743774D01*
X22761205Y-37574256D01*
X22839226Y-37385898D01*
X22879000Y-37185939D01*
X22879000Y-36982061D01*
X22839226Y-36782102D01*
X22761205Y-36593744D01*
X22647937Y-36424226D01*
X22503774Y-36280063D01*
X22334256Y-36166795D01*
X22145898Y-36088774D01*
X21945939Y-36049000D01*
X21742061Y-36049000D01*
X21542102Y-36088774D01*
X21353744Y-36166795D01*
X21184226Y-36280063D01*
X21140289Y-36324000D01*
X18221802Y-36324000D01*
X17148708Y-35250906D01*
X17162236Y-35206309D01*
X17189943Y-34925000D01*
X17162236Y-34643691D01*
X17080182Y-34373192D01*
X16946932Y-34123899D01*
X16767608Y-33905392D01*
X16549101Y-33726068D01*
X16416142Y-33655000D01*
X16549101Y-33583932D01*
X16767608Y-33404608D01*
X16946932Y-33186101D01*
X17080182Y-32936808D01*
X17162236Y-32666309D01*
X17189943Y-32385000D01*
X17162236Y-32103691D01*
X17080182Y-31833192D01*
X16946932Y-31583899D01*
X16767608Y-31365392D01*
X16549101Y-31186068D01*
X16416142Y-31115000D01*
X16549101Y-31043932D01*
X16767608Y-30864608D01*
X16946932Y-30646101D01*
X17080182Y-30396808D01*
X17162236Y-30126309D01*
X17189943Y-29845000D01*
X17162236Y-29563691D01*
X17080182Y-29293192D01*
X16946932Y-29043899D01*
X16767608Y-28825392D01*
X16549101Y-28646068D01*
X16416142Y-28575000D01*
X16549101Y-28503932D01*
X16767608Y-28324608D01*
X16946932Y-28106101D01*
X17080182Y-27856808D01*
X17162236Y-27586309D01*
X17189943Y-27305000D01*
X17162236Y-27023691D01*
X17080182Y-26753192D01*
X16946932Y-26503899D01*
X16767608Y-26285392D01*
X16549101Y-26106068D01*
X16416142Y-26035000D01*
X16549101Y-25963932D01*
X16767608Y-25784608D01*
X16946932Y-25566101D01*
X17080182Y-25316808D01*
X17162236Y-25046309D01*
X17189943Y-24765000D01*
X17162236Y-24483691D01*
X17080182Y-24213192D01*
X16946932Y-23963899D01*
X16767608Y-23745392D01*
X16549101Y-23566068D01*
X16416142Y-23495000D01*
X16549101Y-23423932D01*
X16767608Y-23244608D01*
X16946932Y-23026101D01*
X17080182Y-22776808D01*
X17162236Y-22506309D01*
X17189943Y-22225000D01*
X17162236Y-21943691D01*
X17080182Y-21673192D01*
X16946932Y-21423899D01*
X16767608Y-21205392D01*
X16549101Y-21026068D01*
X16411318Y-20952421D01*
X16603131Y-20837385D01*
X16811519Y-20648414D01*
X16979037Y-20422420D01*
X17099246Y-20168087D01*
X17139904Y-20034039D01*
X17017915Y-19812000D01*
X15875000Y-19812000D01*
X15875000Y-19832000D01*
X15621000Y-19832000D01*
X15621000Y-19812000D01*
X15601000Y-19812000D01*
X15601000Y-19685000D01*
X21926057Y-19685000D01*
X21953764Y-19966309D01*
X22035818Y-20236808D01*
X22169068Y-20486101D01*
X22348392Y-20704608D01*
X22566899Y-20883932D01*
X22699858Y-20955000D01*
X22566899Y-21026068D01*
X22348392Y-21205392D01*
X22169068Y-21423899D01*
X22035818Y-21673192D01*
X21953764Y-21943691D01*
X21926057Y-22225000D01*
X21953764Y-22506309D01*
X22035818Y-22776808D01*
X22169068Y-23026101D01*
X22348392Y-23244608D01*
X22566899Y-23423932D01*
X22699858Y-23495000D01*
X22566899Y-23566068D01*
X22348392Y-23745392D01*
X22169068Y-23963899D01*
X22035818Y-24213192D01*
X21953764Y-24483691D01*
X21926057Y-24765000D01*
X21953764Y-25046309D01*
X22035818Y-25316808D01*
X22169068Y-25566101D01*
X22348392Y-25784608D01*
X22566899Y-25963932D01*
X22699858Y-26035000D01*
X22566899Y-26106068D01*
X22348392Y-26285392D01*
X22169068Y-26503899D01*
X22035818Y-26753192D01*
X21953764Y-27023691D01*
X21926057Y-27305000D01*
X21953764Y-27586309D01*
X22035818Y-27856808D01*
X22169068Y-28106101D01*
X22348392Y-28324608D01*
X22566899Y-28503932D01*
X22699858Y-28575000D01*
X22566899Y-28646068D01*
X22348392Y-28825392D01*
X22169068Y-29043899D01*
X22035818Y-29293192D01*
X21953764Y-29563691D01*
X21926057Y-29845000D01*
X21953764Y-30126309D01*
X22035818Y-30396808D01*
X22169068Y-30646101D01*
X22348392Y-30864608D01*
X22566899Y-31043932D01*
X22699858Y-31115000D01*
X22566899Y-31186068D01*
X22348392Y-31365392D01*
X22169068Y-31583899D01*
X22035818Y-31833192D01*
X21953764Y-32103691D01*
X21926057Y-32385000D01*
X21953764Y-32666309D01*
X22035818Y-32936808D01*
X22169068Y-33186101D01*
X22348392Y-33404608D01*
X22566899Y-33583932D01*
X22699858Y-33655000D01*
X22566899Y-33726068D01*
X22348392Y-33905392D01*
X22169068Y-34123899D01*
X22035818Y-34373192D01*
X21953764Y-34643691D01*
X21926057Y-34925000D01*
X21953764Y-35206309D01*
X22035818Y-35476808D01*
X22169068Y-35726101D01*
X22348392Y-35944608D01*
X22566899Y-36123932D01*
X22816192Y-36257182D01*
X23086691Y-36339236D01*
X23297508Y-36360000D01*
X23438492Y-36360000D01*
X23649309Y-36339236D01*
X23919808Y-36257182D01*
X24118241Y-36151117D01*
X29761000Y-36151117D01*
X29761000Y-36492883D01*
X29827675Y-36828081D01*
X29958463Y-37143831D01*
X30148337Y-37427998D01*
X30390002Y-37669663D01*
X30674169Y-37859537D01*
X30989919Y-37990325D01*
X31325117Y-38057000D01*
X31666883Y-38057000D01*
X32002081Y-37990325D01*
X32317831Y-37859537D01*
X32601998Y-37669663D01*
X32843663Y-37427998D01*
X33033537Y-37143831D01*
X33164325Y-36828081D01*
X33231000Y-36492883D01*
X33231000Y-36151117D01*
X33164325Y-35815919D01*
X33033537Y-35500169D01*
X32843663Y-35216002D01*
X32601998Y-34974337D01*
X32317831Y-34784463D01*
X32002081Y-34653675D01*
X31666883Y-34587000D01*
X31325117Y-34587000D01*
X30989919Y-34653675D01*
X30674169Y-34784463D01*
X30390002Y-34974337D01*
X30148337Y-35216002D01*
X29958463Y-35500169D01*
X29827675Y-35815919D01*
X29761000Y-36151117D01*
X24118241Y-36151117D01*
X24169101Y-36123932D01*
X24387608Y-35944608D01*
X24566932Y-35726101D01*
X24700182Y-35476808D01*
X24782236Y-35206309D01*
X24809943Y-34925000D01*
X24782236Y-34643691D01*
X24700182Y-34373192D01*
X24566932Y-34123899D01*
X24387608Y-33905392D01*
X24169101Y-33726068D01*
X24036142Y-33655000D01*
X24169101Y-33583932D01*
X24387608Y-33404608D01*
X24566932Y-33186101D01*
X24700182Y-32936808D01*
X24782236Y-32666309D01*
X24809943Y-32385000D01*
X24782236Y-32103691D01*
X24700182Y-31833192D01*
X24566932Y-31583899D01*
X24387608Y-31365392D01*
X24169101Y-31186068D01*
X24036142Y-31115000D01*
X24169101Y-31043932D01*
X24387608Y-30864608D01*
X24566932Y-30646101D01*
X24700182Y-30396808D01*
X24782236Y-30126309D01*
X24809943Y-29845000D01*
X24782236Y-29563691D01*
X24700182Y-29293192D01*
X24566932Y-29043899D01*
X24387608Y-28825392D01*
X24169101Y-28646068D01*
X24036142Y-28575000D01*
X24169101Y-28503932D01*
X24387608Y-28324608D01*
X24566932Y-28106101D01*
X24700182Y-27856808D01*
X24782236Y-27586309D01*
X24809943Y-27305000D01*
X24787395Y-27076061D01*
X29953000Y-27076061D01*
X29953000Y-27279939D01*
X29992774Y-27479898D01*
X30070795Y-27668256D01*
X30184063Y-27837774D01*
X30328226Y-27981937D01*
X30497744Y-28095205D01*
X30686102Y-28173226D01*
X30886061Y-28213000D01*
X31089939Y-28213000D01*
X31289898Y-28173226D01*
X31478256Y-28095205D01*
X31647774Y-27981937D01*
X31691711Y-27938000D01*
X31712678Y-27938000D01*
X31750000Y-27941676D01*
X31787322Y-27938000D01*
X31787333Y-27938000D01*
X31898986Y-27927003D01*
X32042247Y-27883546D01*
X32174276Y-27812974D01*
X32290001Y-27718001D01*
X32313804Y-27688997D01*
X35529999Y-24472802D01*
X35530000Y-26092667D01*
X35526323Y-26129999D01*
X35530000Y-26167332D01*
X35539206Y-26260795D01*
X35540997Y-26278984D01*
X35584453Y-26422245D01*
X35655025Y-26554275D01*
X35703668Y-26613546D01*
X35749999Y-26670000D01*
X35778997Y-26693798D01*
X36024203Y-26939004D01*
X36001487Y-27013889D01*
X35972815Y-27305000D01*
X36001487Y-27596111D01*
X36086401Y-27876034D01*
X36224294Y-28134014D01*
X36409866Y-28360134D01*
X36635986Y-28545706D01*
X36690791Y-28575000D01*
X36635986Y-28604294D01*
X36409866Y-28789866D01*
X36224294Y-29015986D01*
X36086401Y-29273966D01*
X36001487Y-29553889D01*
X35972815Y-29845000D01*
X36001487Y-30136111D01*
X36086401Y-30416034D01*
X36224294Y-30674014D01*
X36409866Y-30900134D01*
X36635986Y-31085706D01*
X36690791Y-31115000D01*
X36635986Y-31144294D01*
X36409866Y-31329866D01*
X36224294Y-31555986D01*
X36086401Y-31813966D01*
X36001487Y-32093889D01*
X35972815Y-32385000D01*
X36001487Y-32676111D01*
X36086401Y-32956034D01*
X36224294Y-33214014D01*
X36409866Y-33440134D01*
X36635986Y-33625706D01*
X36690791Y-33655000D01*
X36635986Y-33684294D01*
X36409866Y-33869866D01*
X36224294Y-34095986D01*
X36086401Y-34353966D01*
X36001487Y-34633889D01*
X35972815Y-34925000D01*
X36001487Y-35216111D01*
X36086401Y-35496034D01*
X36224294Y-35754014D01*
X36409866Y-35980134D01*
X36635986Y-36165706D01*
X36690791Y-36195000D01*
X36635986Y-36224294D01*
X36409866Y-36409866D01*
X36224294Y-36635986D01*
X36086401Y-36893966D01*
X36001487Y-37173889D01*
X35972815Y-37465000D01*
X36001487Y-37756111D01*
X36086401Y-38036034D01*
X36224294Y-38294014D01*
X36409866Y-38520134D01*
X36635986Y-38705706D01*
X36893966Y-38843599D01*
X37173889Y-38928513D01*
X37392050Y-38950000D01*
X37537950Y-38950000D01*
X37756111Y-38928513D01*
X38036034Y-38843599D01*
X38294014Y-38705706D01*
X38520134Y-38520134D01*
X38705706Y-38294014D01*
X38843599Y-38036034D01*
X38928513Y-37756111D01*
X38957185Y-37465000D01*
X38928513Y-37173889D01*
X38843599Y-36893966D01*
X38705706Y-36635986D01*
X38692358Y-36619721D01*
X42950000Y-36619721D01*
X42950000Y-37040279D01*
X43032047Y-37452756D01*
X43192988Y-37841302D01*
X43426637Y-38190983D01*
X43724017Y-38488363D01*
X44073698Y-38722012D01*
X44462244Y-38882953D01*
X44874721Y-38965000D01*
X45295279Y-38965000D01*
X45707756Y-38882953D01*
X46096302Y-38722012D01*
X46445983Y-38488363D01*
X46743363Y-38190983D01*
X46977012Y-37841302D01*
X47137953Y-37452756D01*
X47220000Y-37040279D01*
X47220000Y-36619721D01*
X47137953Y-36207244D01*
X46977012Y-35818698D01*
X46743363Y-35469017D01*
X46445983Y-35171637D01*
X46096302Y-34937988D01*
X45707756Y-34777047D01*
X45295279Y-34695000D01*
X44874721Y-34695000D01*
X44462244Y-34777047D01*
X44073698Y-34937988D01*
X43724017Y-35171637D01*
X43426637Y-35469017D01*
X43192988Y-35818698D01*
X43032047Y-36207244D01*
X42950000Y-36619721D01*
X38692358Y-36619721D01*
X38520134Y-36409866D01*
X38294014Y-36224294D01*
X38239209Y-36195000D01*
X38294014Y-36165706D01*
X38520134Y-35980134D01*
X38705706Y-35754014D01*
X38843599Y-35496034D01*
X38928513Y-35216111D01*
X38957185Y-34925000D01*
X38928513Y-34633889D01*
X38843599Y-34353966D01*
X38705706Y-34095986D01*
X38520134Y-33869866D01*
X38294014Y-33684294D01*
X38239209Y-33655000D01*
X38294014Y-33625706D01*
X38520134Y-33440134D01*
X38705706Y-33214014D01*
X38843599Y-32956034D01*
X38928513Y-32676111D01*
X38957185Y-32385000D01*
X38928513Y-32093889D01*
X38843599Y-31813966D01*
X38705706Y-31555986D01*
X38520134Y-31329866D01*
X38294014Y-31144294D01*
X38239209Y-31115000D01*
X38294014Y-31085706D01*
X38520134Y-30900134D01*
X38705706Y-30674014D01*
X38843599Y-30416034D01*
X38893965Y-30250000D01*
X42946928Y-30250000D01*
X42946928Y-33250000D01*
X42959188Y-33374482D01*
X42995498Y-33494180D01*
X43054463Y-33604494D01*
X43133815Y-33701185D01*
X43230506Y-33780537D01*
X43340820Y-33839502D01*
X43460518Y-33875812D01*
X43585000Y-33888072D01*
X46585000Y-33888072D01*
X46709482Y-33875812D01*
X46829180Y-33839502D01*
X46939494Y-33780537D01*
X47036185Y-33701185D01*
X47115537Y-33604494D01*
X47174502Y-33494180D01*
X47210812Y-33374482D01*
X47223072Y-33250000D01*
X47223072Y-30250000D01*
X47210812Y-30125518D01*
X47174502Y-30005820D01*
X47115537Y-29895506D01*
X47036185Y-29798815D01*
X46939494Y-29719463D01*
X46829180Y-29660498D01*
X46709482Y-29624188D01*
X46585000Y-29611928D01*
X43585000Y-29611928D01*
X43460518Y-29624188D01*
X43340820Y-29660498D01*
X43230506Y-29719463D01*
X43133815Y-29798815D01*
X43054463Y-29895506D01*
X42995498Y-30005820D01*
X42959188Y-30125518D01*
X42946928Y-30250000D01*
X38893965Y-30250000D01*
X38928513Y-30136111D01*
X38957185Y-29845000D01*
X38928513Y-29553889D01*
X38905797Y-29479004D01*
X41757976Y-26626826D01*
X41892256Y-26571205D01*
X42061774Y-26457937D01*
X42205937Y-26313774D01*
X42319205Y-26144256D01*
X42397226Y-25955898D01*
X42437000Y-25755939D01*
X42437000Y-25552061D01*
X42397226Y-25352102D01*
X42363632Y-25271000D01*
X44635289Y-25271000D01*
X44679226Y-25314937D01*
X44848744Y-25428205D01*
X45037102Y-25506226D01*
X45237061Y-25546000D01*
X45440939Y-25546000D01*
X45640898Y-25506226D01*
X45829256Y-25428205D01*
X45998774Y-25314937D01*
X46142937Y-25170774D01*
X46256205Y-25001256D01*
X46334226Y-24812898D01*
X46374000Y-24612939D01*
X46374000Y-24409061D01*
X46334226Y-24209102D01*
X46256205Y-24020744D01*
X46142937Y-23851226D01*
X45998774Y-23707063D01*
X45829256Y-23593795D01*
X45640898Y-23515774D01*
X45440939Y-23476000D01*
X45237061Y-23476000D01*
X45037102Y-23515774D01*
X44848744Y-23593795D01*
X44679226Y-23707063D01*
X44635289Y-23751000D01*
X40017391Y-23751000D01*
X41691004Y-22077388D01*
X41720002Y-22053590D01*
X41814975Y-21937865D01*
X41885547Y-21805836D01*
X41929004Y-21662575D01*
X41940001Y-21550922D01*
X41940001Y-21550912D01*
X41943677Y-21513589D01*
X41940001Y-21476266D01*
X41940001Y-16618321D01*
X41943677Y-16580998D01*
X41940001Y-16543675D01*
X41940001Y-16543666D01*
X41929004Y-16432013D01*
X41885547Y-16288752D01*
X41814975Y-16156723D01*
X41784004Y-16118985D01*
X41743800Y-16069995D01*
X41743796Y-16069991D01*
X41720002Y-16040998D01*
X41691010Y-16017205D01*
X41183552Y-15509749D01*
X41245706Y-15434014D01*
X41383599Y-15176034D01*
X41468513Y-14896111D01*
X41497185Y-14605000D01*
X41468513Y-14313889D01*
X41383599Y-14033966D01*
X41245706Y-13775986D01*
X41060134Y-13549866D01*
X40834014Y-13364294D01*
X40576034Y-13226401D01*
X40296111Y-13141487D01*
X40077950Y-13120000D01*
X39932050Y-13120000D01*
X39713889Y-13141487D01*
X39433966Y-13226401D01*
X39175986Y-13364294D01*
X38949866Y-13549866D01*
X38925393Y-13579687D01*
X38904502Y-13510820D01*
X38845537Y-13400506D01*
X38766185Y-13303815D01*
X38669494Y-13224463D01*
X38559180Y-13165498D01*
X38439482Y-13129188D01*
X38315000Y-13116928D01*
X36615000Y-13116928D01*
X36490518Y-13129188D01*
X36370820Y-13165498D01*
X36260506Y-13224463D01*
X36163815Y-13303815D01*
X36084463Y-13400506D01*
X36025498Y-13510820D01*
X35989188Y-13630518D01*
X35976928Y-13755000D01*
X35976928Y-15455000D01*
X35989188Y-15579482D01*
X36025498Y-15699180D01*
X36084463Y-15809494D01*
X36163815Y-15906185D01*
X36260506Y-15985537D01*
X36370820Y-16044502D01*
X36439687Y-16065393D01*
X36409866Y-16089866D01*
X36224294Y-16315986D01*
X36086401Y-16573966D01*
X36001487Y-16853889D01*
X35972815Y-17145000D01*
X36001487Y-17436111D01*
X36086401Y-17716034D01*
X36224294Y-17974014D01*
X36409866Y-18200134D01*
X36635986Y-18385706D01*
X36690791Y-18415000D01*
X36635986Y-18444294D01*
X36409866Y-18629866D01*
X36224294Y-18855986D01*
X36086401Y-19113966D01*
X36001487Y-19393889D01*
X35972815Y-19685000D01*
X36001487Y-19976111D01*
X36086401Y-20256034D01*
X36224294Y-20514014D01*
X36409866Y-20740134D01*
X36635986Y-20925706D01*
X36825953Y-21027245D01*
X31546683Y-26306516D01*
X31478256Y-26260795D01*
X31289898Y-26182774D01*
X31089939Y-26143000D01*
X30886061Y-26143000D01*
X30686102Y-26182774D01*
X30497744Y-26260795D01*
X30328226Y-26374063D01*
X30184063Y-26518226D01*
X30070795Y-26687744D01*
X29992774Y-26876102D01*
X29953000Y-27076061D01*
X24787395Y-27076061D01*
X24782236Y-27023691D01*
X24700182Y-26753192D01*
X24566932Y-26503899D01*
X24387608Y-26285392D01*
X24169101Y-26106068D01*
X24036142Y-26035000D01*
X24169101Y-25963932D01*
X24387608Y-25784608D01*
X24566932Y-25566101D01*
X24700182Y-25316808D01*
X24782236Y-25046309D01*
X24809943Y-24765000D01*
X24782236Y-24483691D01*
X24700182Y-24213192D01*
X24566932Y-23963899D01*
X24387608Y-23745392D01*
X24169101Y-23566068D01*
X24036142Y-23495000D01*
X24169101Y-23423932D01*
X24387608Y-23244608D01*
X24566932Y-23026101D01*
X24700182Y-22776808D01*
X24782236Y-22506309D01*
X24809943Y-22225000D01*
X24782236Y-21943691D01*
X24700182Y-21673192D01*
X24566932Y-21423899D01*
X24493154Y-21334000D01*
X29426667Y-21334000D01*
X29464000Y-21337677D01*
X29501333Y-21334000D01*
X29612986Y-21323003D01*
X29756247Y-21279546D01*
X29888276Y-21208974D01*
X30004001Y-21114001D01*
X30098974Y-20998276D01*
X30169546Y-20866247D01*
X30213003Y-20722986D01*
X30227677Y-20574000D01*
X30224000Y-20536667D01*
X30224000Y-9120801D01*
X31072457Y-8272345D01*
X31083815Y-8286185D01*
X31180506Y-8365537D01*
X31290820Y-8424502D01*
X31359687Y-8445393D01*
X31329866Y-8469866D01*
X31144294Y-8695986D01*
X31006401Y-8953966D01*
X30921487Y-9233889D01*
X30892815Y-9525000D01*
X30921487Y-9816111D01*
X31006401Y-10096034D01*
X31144294Y-10354014D01*
X31329866Y-10580134D01*
X31555986Y-10765706D01*
X31610791Y-10795000D01*
X31555986Y-10824294D01*
X31329866Y-11009866D01*
X31144294Y-11235986D01*
X31006401Y-11493966D01*
X30921487Y-11773889D01*
X30892815Y-12065000D01*
X30921487Y-12356111D01*
X31006401Y-12636034D01*
X31144294Y-12894014D01*
X31329866Y-13120134D01*
X31555986Y-13305706D01*
X31610791Y-13335000D01*
X31555986Y-13364294D01*
X31329866Y-13549866D01*
X31144294Y-13775986D01*
X31006401Y-14033966D01*
X30921487Y-14313889D01*
X30892815Y-14605000D01*
X30921487Y-14896111D01*
X31006401Y-15176034D01*
X31144294Y-15434014D01*
X31329866Y-15660134D01*
X31555986Y-15845706D01*
X31610791Y-15875000D01*
X31555986Y-15904294D01*
X31329866Y-16089866D01*
X31144294Y-16315986D01*
X31006401Y-16573966D01*
X30921487Y-16853889D01*
X30892815Y-17145000D01*
X30921487Y-17436111D01*
X31006401Y-17716034D01*
X31144294Y-17974014D01*
X31329866Y-18200134D01*
X31555986Y-18385706D01*
X31610791Y-18415000D01*
X31555986Y-18444294D01*
X31329866Y-18629866D01*
X31144294Y-18855986D01*
X31006401Y-19113966D01*
X30921487Y-19393889D01*
X30892815Y-19685000D01*
X30921487Y-19976111D01*
X31006401Y-20256034D01*
X31144294Y-20514014D01*
X31329866Y-20740134D01*
X31555986Y-20925706D01*
X31610791Y-20955000D01*
X31555986Y-20984294D01*
X31329866Y-21169866D01*
X31144294Y-21395986D01*
X31006401Y-21653966D01*
X30921487Y-21933889D01*
X30892815Y-22225000D01*
X30921487Y-22516111D01*
X31006401Y-22796034D01*
X31144294Y-23054014D01*
X31329866Y-23280134D01*
X31555986Y-23465706D01*
X31813966Y-23603599D01*
X32093889Y-23688513D01*
X32312050Y-23710000D01*
X32457950Y-23710000D01*
X32676111Y-23688513D01*
X32956034Y-23603599D01*
X33214014Y-23465706D01*
X33440134Y-23280134D01*
X33625706Y-23054014D01*
X33763599Y-22796034D01*
X33848513Y-22516111D01*
X33877185Y-22225000D01*
X33848513Y-21933889D01*
X33763599Y-21653966D01*
X33625706Y-21395986D01*
X33440134Y-21169866D01*
X33214014Y-20984294D01*
X33159209Y-20955000D01*
X33214014Y-20925706D01*
X33440134Y-20740134D01*
X33625706Y-20514014D01*
X33763599Y-20256034D01*
X33848513Y-19976111D01*
X33877185Y-19685000D01*
X33848513Y-19393889D01*
X33763599Y-19113966D01*
X33625706Y-18855986D01*
X33440134Y-18629866D01*
X33214014Y-18444294D01*
X33159209Y-18415000D01*
X33214014Y-18385706D01*
X33440134Y-18200134D01*
X33625706Y-17974014D01*
X33763599Y-17716034D01*
X33848513Y-17436111D01*
X33877185Y-17145000D01*
X33848513Y-16853889D01*
X33763599Y-16573966D01*
X33625706Y-16315986D01*
X33440134Y-16089866D01*
X33214014Y-15904294D01*
X33159209Y-15875000D01*
X33214014Y-15845706D01*
X33440134Y-15660134D01*
X33625706Y-15434014D01*
X33763599Y-15176034D01*
X33848513Y-14896111D01*
X33877185Y-14605000D01*
X33848513Y-14313889D01*
X33763599Y-14033966D01*
X33625706Y-13775986D01*
X33440134Y-13549866D01*
X33214014Y-13364294D01*
X33159209Y-13335000D01*
X33214014Y-13305706D01*
X33440134Y-13120134D01*
X33625706Y-12894014D01*
X33763599Y-12636034D01*
X33848513Y-12356111D01*
X33877185Y-12065000D01*
X33848513Y-11773889D01*
X33763599Y-11493966D01*
X33625706Y-11235986D01*
X33440134Y-11009866D01*
X33214014Y-10824294D01*
X33159209Y-10795000D01*
X33214014Y-10765706D01*
X33440134Y-10580134D01*
X33625706Y-10354014D01*
X33763599Y-10096034D01*
X33848513Y-9816111D01*
X33877185Y-9525000D01*
X33848513Y-9233889D01*
X33763599Y-8953966D01*
X33625706Y-8695986D01*
X33440134Y-8469866D01*
X33410313Y-8445393D01*
X33479180Y-8424502D01*
X33589494Y-8365537D01*
X33681536Y-8290000D01*
X36861928Y-8290000D01*
X36861928Y-9490000D01*
X36874188Y-9614482D01*
X36910498Y-9734180D01*
X36969463Y-9844494D01*
X37048815Y-9941185D01*
X37145506Y-10020537D01*
X37255820Y-10079502D01*
X37375518Y-10115812D01*
X37500000Y-10128072D01*
X38700000Y-10128072D01*
X38824482Y-10115812D01*
X38944180Y-10079502D01*
X39054494Y-10020537D01*
X39071681Y-10006432D01*
X39198516Y-10064237D01*
X39435313Y-10120000D01*
X39678438Y-10128495D01*
X39918549Y-10089395D01*
X40146418Y-10004202D01*
X40222852Y-9963348D01*
X40270159Y-9739764D01*
X39600000Y-9069605D01*
X39585858Y-9083748D01*
X39406253Y-8904143D01*
X39420395Y-8890000D01*
X39779605Y-8890000D01*
X40449764Y-9560159D01*
X40673348Y-9512852D01*
X40774237Y-9291484D01*
X40830000Y-9054687D01*
X40838495Y-8811562D01*
X40799395Y-8571451D01*
X40714202Y-8343582D01*
X40673348Y-8267148D01*
X40449764Y-8219841D01*
X39779605Y-8890000D01*
X39420395Y-8890000D01*
X39406253Y-8875858D01*
X39585858Y-8696253D01*
X39600000Y-8710395D01*
X40270159Y-8040236D01*
X40222852Y-7816652D01*
X40001484Y-7715763D01*
X39764687Y-7660000D01*
X39521562Y-7651505D01*
X39281451Y-7690605D01*
X39067883Y-7770451D01*
X39054494Y-7759463D01*
X38944180Y-7700498D01*
X38824482Y-7664188D01*
X38700000Y-7651928D01*
X37500000Y-7651928D01*
X37375518Y-7664188D01*
X37255820Y-7700498D01*
X37145506Y-7759463D01*
X37048815Y-7838815D01*
X36969463Y-7935506D01*
X36910498Y-8045820D01*
X36874188Y-8165518D01*
X36861928Y-8290000D01*
X33681536Y-8290000D01*
X33686185Y-8286185D01*
X33765537Y-8189494D01*
X33824502Y-8079180D01*
X33860812Y-7959482D01*
X33873072Y-7835000D01*
X33873072Y-6135000D01*
X33860812Y-6010518D01*
X33824502Y-5890820D01*
X33765537Y-5780506D01*
X33686185Y-5683815D01*
X33589494Y-5604463D01*
X33479180Y-5545498D01*
X33359482Y-5509188D01*
X33235000Y-5496928D01*
X31535000Y-5496928D01*
X31410518Y-5509188D01*
X31290820Y-5545498D01*
X31180506Y-5604463D01*
X31083815Y-5683815D01*
X31004463Y-5780506D01*
X30945498Y-5890820D01*
X30909188Y-6010518D01*
X30896928Y-6135000D01*
X30896928Y-6330674D01*
X30860723Y-6350026D01*
X30782813Y-6413966D01*
X30744999Y-6444999D01*
X30721201Y-6473997D01*
X28952998Y-8242201D01*
X28924000Y-8265999D01*
X28900202Y-8294997D01*
X28900201Y-8294998D01*
X28829026Y-8381724D01*
X28758454Y-8513754D01*
X28714998Y-8657015D01*
X28700324Y-8806000D01*
X28704001Y-8843332D01*
X28704001Y-11772340D01*
X28537998Y-11606337D01*
X28253831Y-11416463D01*
X27938081Y-11285675D01*
X27602883Y-11219000D01*
X27261117Y-11219000D01*
X26925919Y-11285675D01*
X26610169Y-11416463D01*
X26326002Y-11606337D01*
X26084337Y-11848002D01*
X25894463Y-12132169D01*
X25763675Y-12447919D01*
X25697000Y-12783117D01*
X25697000Y-13124883D01*
X25763675Y-13460081D01*
X25894463Y-13775831D01*
X26084337Y-14059998D01*
X26326002Y-14301663D01*
X26610169Y-14491537D01*
X26925919Y-14622325D01*
X27261117Y-14689000D01*
X27602883Y-14689000D01*
X27938081Y-14622325D01*
X28253831Y-14491537D01*
X28537998Y-14301663D01*
X28704001Y-14135660D01*
X28704000Y-19814000D01*
X24797237Y-19814000D01*
X24809943Y-19685000D01*
X24782236Y-19403691D01*
X24700182Y-19133192D01*
X24566932Y-18883899D01*
X24387608Y-18665392D01*
X24169101Y-18486068D01*
X24031318Y-18412421D01*
X24223131Y-18297385D01*
X24431519Y-18108414D01*
X24599037Y-17882420D01*
X24719246Y-17628087D01*
X24759904Y-17494039D01*
X24637915Y-17272000D01*
X23495000Y-17272000D01*
X23495000Y-17292000D01*
X23241000Y-17292000D01*
X23241000Y-17272000D01*
X22098085Y-17272000D01*
X21976096Y-17494039D01*
X22016754Y-17628087D01*
X22136963Y-17882420D01*
X22304481Y-18108414D01*
X22512869Y-18297385D01*
X22704682Y-18412421D01*
X22566899Y-18486068D01*
X22348392Y-18665392D01*
X22169068Y-18883899D01*
X22035818Y-19133192D01*
X21953764Y-19403691D01*
X21926057Y-19685000D01*
X15601000Y-19685000D01*
X15601000Y-19558000D01*
X15621000Y-19558000D01*
X15621000Y-19538000D01*
X15875000Y-19538000D01*
X15875000Y-19558000D01*
X17017915Y-19558000D01*
X17139904Y-19335961D01*
X17099246Y-19201913D01*
X16979037Y-18947580D01*
X16811519Y-18721586D01*
X16603131Y-18532615D01*
X16411318Y-18417579D01*
X16549101Y-18343932D01*
X16767608Y-18164608D01*
X16946932Y-17946101D01*
X17080182Y-17696808D01*
X17162236Y-17426309D01*
X17189943Y-17145000D01*
X17162236Y-16863691D01*
X17080182Y-16593192D01*
X16946932Y-16343899D01*
X16767608Y-16125392D01*
X16549101Y-15946068D01*
X16416142Y-15875000D01*
X16549101Y-15803932D01*
X16767608Y-15624608D01*
X16946932Y-15406101D01*
X17080182Y-15156808D01*
X17162236Y-14886309D01*
X17189943Y-14605000D01*
X17162236Y-14323691D01*
X17080182Y-14053192D01*
X16946932Y-13803899D01*
X16767608Y-13585392D01*
X16549101Y-13406068D01*
X16416142Y-13335000D01*
X16549101Y-13263932D01*
X16767608Y-13084608D01*
X16946932Y-12866101D01*
X17080182Y-12616808D01*
X17162236Y-12346309D01*
X17189943Y-12065000D01*
X17162236Y-11783691D01*
X17080182Y-11513192D01*
X16946932Y-11263899D01*
X16767608Y-11045392D01*
X16549101Y-10866068D01*
X16416142Y-10795000D01*
X16549101Y-10723932D01*
X16767608Y-10544608D01*
X16946932Y-10326101D01*
X17080182Y-10076808D01*
X17162236Y-9806309D01*
X17189943Y-9525000D01*
X17162236Y-9243691D01*
X17080182Y-8973192D01*
X16946932Y-8723899D01*
X16767608Y-8505392D01*
X16549101Y-8326068D01*
X16416142Y-8255000D01*
X16549101Y-8183932D01*
X16767608Y-8004608D01*
X16946932Y-7786101D01*
X17080182Y-7536808D01*
X17162236Y-7266309D01*
X17189943Y-6985000D01*
X17162236Y-6703691D01*
X17080182Y-6433192D01*
X17025025Y-6330001D01*
X22090975Y-6330001D01*
X22035818Y-6433192D01*
X21953764Y-6703691D01*
X21926057Y-6985000D01*
X21953764Y-7266309D01*
X22035818Y-7536808D01*
X22169068Y-7786101D01*
X22348392Y-8004608D01*
X22566899Y-8183932D01*
X22699858Y-8255000D01*
X22566899Y-8326068D01*
X22348392Y-8505392D01*
X22169068Y-8723899D01*
X22035818Y-8973192D01*
X21953764Y-9243691D01*
X21926057Y-9525000D01*
X21953764Y-9806309D01*
X22035818Y-10076808D01*
X22169068Y-10326101D01*
X22348392Y-10544608D01*
X22566899Y-10723932D01*
X22699858Y-10795000D01*
X22566899Y-10866068D01*
X22348392Y-11045392D01*
X22169068Y-11263899D01*
X22035818Y-11513192D01*
X21953764Y-11783691D01*
X21926057Y-12065000D01*
X21953764Y-12346309D01*
X22035818Y-12616808D01*
X22169068Y-12866101D01*
X22348392Y-13084608D01*
X22566899Y-13263932D01*
X22699858Y-13335000D01*
X22566899Y-13406068D01*
X22348392Y-13585392D01*
X22169068Y-13803899D01*
X22035818Y-14053192D01*
X21953764Y-14323691D01*
X21926057Y-14605000D01*
X21953764Y-14886309D01*
X22035818Y-15156808D01*
X22169068Y-15406101D01*
X22348392Y-15624608D01*
X22566899Y-15803932D01*
X22704682Y-15877579D01*
X22512869Y-15992615D01*
X22304481Y-16181586D01*
X22136963Y-16407580D01*
X22016754Y-16661913D01*
X21976096Y-16795961D01*
X22098085Y-17018000D01*
X23241000Y-17018000D01*
X23241000Y-16998000D01*
X23495000Y-16998000D01*
X23495000Y-17018000D01*
X24637915Y-17018000D01*
X24759904Y-16795961D01*
X24719246Y-16661913D01*
X24599037Y-16407580D01*
X24431519Y-16181586D01*
X24223131Y-15992615D01*
X24031318Y-15877579D01*
X24169101Y-15803932D01*
X24387608Y-15624608D01*
X24566932Y-15406101D01*
X24700182Y-15156808D01*
X24782236Y-14886309D01*
X24809943Y-14605000D01*
X24782236Y-14323691D01*
X24700182Y-14053192D01*
X24566932Y-13803899D01*
X24387608Y-13585392D01*
X24169101Y-13406068D01*
X24036142Y-13335000D01*
X24169101Y-13263932D01*
X24387608Y-13084608D01*
X24566932Y-12866101D01*
X24700182Y-12616808D01*
X24782236Y-12346309D01*
X24809943Y-12065000D01*
X24782236Y-11783691D01*
X24700182Y-11513192D01*
X24566932Y-11263899D01*
X24387608Y-11045392D01*
X24169101Y-10866068D01*
X24036142Y-10795000D01*
X24169101Y-10723932D01*
X24387608Y-10544608D01*
X24566932Y-10326101D01*
X24700182Y-10076808D01*
X24782236Y-9806309D01*
X24809943Y-9525000D01*
X24782236Y-9243691D01*
X24700182Y-8973192D01*
X24566932Y-8723899D01*
X24387608Y-8505392D01*
X24169101Y-8326068D01*
X24036142Y-8255000D01*
X24169101Y-8183932D01*
X24387608Y-8004608D01*
X24566932Y-7786101D01*
X24700182Y-7536808D01*
X24782236Y-7266309D01*
X24809943Y-6985000D01*
X24782236Y-6703691D01*
X24700182Y-6433192D01*
X24645025Y-6330001D01*
X25476288Y-6330001D01*
X25520225Y-6373938D01*
X25689743Y-6487206D01*
X25878101Y-6565227D01*
X26078060Y-6605001D01*
X26281938Y-6605001D01*
X26481897Y-6565227D01*
X26670255Y-6487206D01*
X26839773Y-6373938D01*
X26983936Y-6229775D01*
X27013064Y-6186181D01*
X27252728Y-6425845D01*
X27198774Y-6556102D01*
X27159000Y-6756061D01*
X27159000Y-6959939D01*
X27198774Y-7159898D01*
X27276795Y-7348256D01*
X27390063Y-7517774D01*
X27534226Y-7661937D01*
X27703744Y-7775205D01*
X27892102Y-7853226D01*
X28092061Y-7893000D01*
X28295939Y-7893000D01*
X28495898Y-7853226D01*
X28684256Y-7775205D01*
X28853774Y-7661937D01*
X28997937Y-7517774D01*
X29111205Y-7348256D01*
X29189226Y-7159898D01*
X29229000Y-6959939D01*
X29229000Y-6756061D01*
X29189226Y-6556102D01*
X29111205Y-6367744D01*
X28997937Y-6198226D01*
X28942987Y-6143276D01*
X28899546Y-6000068D01*
X28828974Y-5868039D01*
X28734001Y-5752314D01*
X28705003Y-5728516D01*
X26360224Y-3383738D01*
X26455000Y-3393072D01*
X28155000Y-3393072D01*
X28279482Y-3380812D01*
X28399180Y-3344502D01*
X28509494Y-3285537D01*
X28606185Y-3206185D01*
X28685537Y-3109494D01*
X28744502Y-2999180D01*
X28765393Y-2930313D01*
X28789866Y-2960134D01*
X29015986Y-3145706D01*
X29273966Y-3283599D01*
X29553889Y-3368513D01*
X29772050Y-3390000D01*
X29917950Y-3390000D01*
X30136111Y-3368513D01*
X30416034Y-3283599D01*
X30674014Y-3145706D01*
X30900134Y-2960134D01*
X31085706Y-2734014D01*
X31115000Y-2679209D01*
X31144294Y-2734014D01*
X31329866Y-2960134D01*
X31555986Y-3145706D01*
X31813966Y-3283599D01*
X32093889Y-3368513D01*
X32312050Y-3390000D01*
X32457950Y-3390000D01*
X32676111Y-3368513D01*
X32956034Y-3283599D01*
X33214014Y-3145706D01*
X33440134Y-2960134D01*
X33625706Y-2734014D01*
X33655000Y-2679209D01*
X33684294Y-2734014D01*
X33869866Y-2960134D01*
X34095986Y-3145706D01*
X34353966Y-3283599D01*
X34633889Y-3368513D01*
X34852050Y-3390000D01*
X34997950Y-3390000D01*
X35216111Y-3368513D01*
X35496034Y-3283599D01*
X35754014Y-3145706D01*
X35980134Y-2960134D01*
X36165706Y-2734014D01*
X36200201Y-2669477D01*
X36269822Y-2786355D01*
X36464731Y-3002588D01*
X36698080Y-3176641D01*
X36960901Y-3301825D01*
X37108110Y-3346476D01*
X37338000Y-3225155D01*
X37338000Y-2032000D01*
X37592000Y-2032000D01*
X37592000Y-3225155D01*
X37821890Y-3346476D01*
X37969099Y-3301825D01*
X38231920Y-3176641D01*
X38465269Y-3002588D01*
X38660178Y-2786355D01*
X38735000Y-2660745D01*
X38809822Y-2786355D01*
X39004731Y-3002588D01*
X39238080Y-3176641D01*
X39500901Y-3301825D01*
X39648110Y-3346476D01*
X39878000Y-3225155D01*
X39878000Y-2032000D01*
X40132000Y-2032000D01*
X40132000Y-3225155D01*
X40361890Y-3346476D01*
X40509099Y-3301825D01*
X40771920Y-3176641D01*
X41005269Y-3002588D01*
X41200178Y-2786355D01*
X41349157Y-2536252D01*
X41446481Y-2261891D01*
X41325814Y-2032000D01*
X40132000Y-2032000D01*
X39878000Y-2032000D01*
X37592000Y-2032000D01*
X37338000Y-2032000D01*
X37318000Y-2032000D01*
X37318000Y-1778000D01*
X37338000Y-1778000D01*
X37338000Y-1758000D01*
X37592000Y-1758000D01*
X37592000Y-1778000D01*
X39878000Y-1778000D01*
X39878000Y-1758000D01*
X40132000Y-1758000D01*
X40132000Y-1778000D01*
X41325814Y-1778000D01*
X41446481Y-1548109D01*
X41349157Y-1273748D01*
X41200178Y-1023645D01*
X41005269Y-807412D01*
X40841154Y-685000D01*
X48641000Y-685000D01*
X48641000Y-48845000D01*
X46151636Y-48845000D01*
X46241038Y-48797214D01*
X46397048Y-48481653D01*
X45085000Y-47169605D01*
X43772952Y-48481653D01*
X43928962Y-48797214D01*
X44022824Y-48845000D01*
X40797666Y-48845000D01*
X40845000Y-48607033D01*
X40845000Y-48284967D01*
X40782168Y-47969088D01*
X40658918Y-47671537D01*
X40479987Y-47403748D01*
X40252252Y-47176013D01*
X40037955Y-47032824D01*
X42940098Y-47032824D01*
X42989666Y-47450451D01*
X43119757Y-47850383D01*
X43277786Y-48146038D01*
X43593347Y-48302048D01*
X44905395Y-46990000D01*
X45264605Y-46990000D01*
X46576653Y-48302048D01*
X46892214Y-48146038D01*
X47083020Y-47771255D01*
X47197044Y-47366449D01*
X47229902Y-46947176D01*
X47180334Y-46529549D01*
X47050243Y-46129617D01*
X46892214Y-45833962D01*
X46576653Y-45677952D01*
X45264605Y-46990000D01*
X44905395Y-46990000D01*
X43593347Y-45677952D01*
X43277786Y-45833962D01*
X43086980Y-46208745D01*
X42972956Y-46613551D01*
X42940098Y-47032824D01*
X40037955Y-47032824D01*
X39984463Y-46997082D01*
X39686912Y-46873832D01*
X39371033Y-46811000D01*
X39048967Y-46811000D01*
X38733088Y-46873832D01*
X38435537Y-46997082D01*
X38167748Y-47176013D01*
X37940013Y-47403748D01*
X37761082Y-47671537D01*
X37637832Y-47969088D01*
X37575000Y-48284967D01*
X37575000Y-48607033D01*
X37622334Y-48845000D01*
X28797666Y-48845000D01*
X28845000Y-48607033D01*
X28845000Y-48284967D01*
X28782168Y-47969088D01*
X28658918Y-47671537D01*
X28479987Y-47403748D01*
X28252252Y-47176013D01*
X27984463Y-46997082D01*
X27686912Y-46873832D01*
X27371033Y-46811000D01*
X27048967Y-46811000D01*
X26733088Y-46873832D01*
X26435537Y-46997082D01*
X26167748Y-47176013D01*
X25940013Y-47403748D01*
X25761082Y-47671537D01*
X25637832Y-47969088D01*
X25575000Y-48284967D01*
X25575000Y-48607033D01*
X25622334Y-48845000D01*
X3331736Y-48845000D01*
X3302159Y-48815423D01*
X3280711Y-48789289D01*
X3176407Y-48703688D01*
X3057406Y-48640081D01*
X2928283Y-48600912D01*
X2827647Y-48591000D01*
X2827639Y-48591000D01*
X2794000Y-48587687D01*
X2760361Y-48591000D01*
X1811505Y-48591000D01*
X1566338Y-48566961D01*
X1362742Y-48505492D01*
X1174962Y-48405647D01*
X1010149Y-48271230D01*
X874585Y-48107361D01*
X773432Y-47920283D01*
X710541Y-47717114D01*
X685000Y-47474109D01*
X685000Y-45295117D01*
X1821000Y-45295117D01*
X1821000Y-45636883D01*
X1887675Y-45972081D01*
X2018463Y-46287831D01*
X2208337Y-46571998D01*
X2450002Y-46813663D01*
X2734169Y-47003537D01*
X3049919Y-47134325D01*
X3385117Y-47201000D01*
X3726883Y-47201000D01*
X4062081Y-47134325D01*
X4377831Y-47003537D01*
X4661998Y-46813663D01*
X4903663Y-46571998D01*
X5093537Y-46287831D01*
X5224325Y-45972081D01*
X5291000Y-45636883D01*
X5291000Y-45295117D01*
X5224325Y-44959919D01*
X5093537Y-44644169D01*
X4903663Y-44360002D01*
X4855661Y-44312000D01*
X7859928Y-44312000D01*
X7859928Y-46112000D01*
X7872188Y-46236482D01*
X7908498Y-46356180D01*
X7967463Y-46466494D01*
X8046815Y-46563185D01*
X8143506Y-46642537D01*
X8253820Y-46701502D01*
X8373518Y-46737812D01*
X8498000Y-46750072D01*
X10298000Y-46750072D01*
X10422482Y-46737812D01*
X10542180Y-46701502D01*
X10652494Y-46642537D01*
X10749185Y-46563185D01*
X10828537Y-46466494D01*
X10887502Y-46356180D01*
X10893056Y-46337873D01*
X10959495Y-46404312D01*
X11210905Y-46572299D01*
X11490257Y-46688011D01*
X11786816Y-46747000D01*
X12089184Y-46747000D01*
X12385743Y-46688011D01*
X12665095Y-46572299D01*
X12916505Y-46404312D01*
X13130312Y-46190505D01*
X13298299Y-45939095D01*
X13414011Y-45659743D01*
X13473000Y-45363184D01*
X13473000Y-45060816D01*
X13414011Y-44764257D01*
X13298299Y-44484905D01*
X13130312Y-44233495D01*
X13116817Y-44220000D01*
X15641928Y-44220000D01*
X15641928Y-47220000D01*
X15654188Y-47344482D01*
X15690498Y-47464180D01*
X15749463Y-47574494D01*
X15828815Y-47671185D01*
X15925506Y-47750537D01*
X16035820Y-47809502D01*
X16155518Y-47845812D01*
X16280000Y-47858072D01*
X19280000Y-47858072D01*
X19404482Y-47845812D01*
X19524180Y-47809502D01*
X19634494Y-47750537D01*
X19731185Y-47671185D01*
X19810537Y-47574494D01*
X19869502Y-47464180D01*
X19905812Y-47344482D01*
X19918072Y-47220000D01*
X19918072Y-47211653D01*
X21547952Y-47211653D01*
X21703962Y-47527214D01*
X22078745Y-47718020D01*
X22483551Y-47832044D01*
X22902824Y-47864902D01*
X23320451Y-47815334D01*
X23720383Y-47685243D01*
X24016038Y-47527214D01*
X24172048Y-47211653D01*
X22860000Y-45899605D01*
X21547952Y-47211653D01*
X19918072Y-47211653D01*
X19918072Y-45762824D01*
X20715098Y-45762824D01*
X20764666Y-46180451D01*
X20894757Y-46580383D01*
X21052786Y-46876038D01*
X21368347Y-47032048D01*
X22680395Y-45720000D01*
X23039605Y-45720000D01*
X24351653Y-47032048D01*
X24667214Y-46876038D01*
X24858020Y-46501255D01*
X24972044Y-46096449D01*
X25004902Y-45677176D01*
X24955334Y-45259549D01*
X24825243Y-44859617D01*
X24667214Y-44563962D01*
X24351653Y-44407952D01*
X23039605Y-45720000D01*
X22680395Y-45720000D01*
X21368347Y-44407952D01*
X21052786Y-44563962D01*
X20861980Y-44938745D01*
X20747956Y-45343551D01*
X20715098Y-45762824D01*
X19918072Y-45762824D01*
X19918072Y-44228347D01*
X21547952Y-44228347D01*
X22860000Y-45540395D01*
X24172048Y-44228347D01*
X24016038Y-43912786D01*
X23641255Y-43721980D01*
X23236449Y-43607956D01*
X22817176Y-43575098D01*
X22399549Y-43624666D01*
X21999617Y-43754757D01*
X21703962Y-43912786D01*
X21547952Y-44228347D01*
X19918072Y-44228347D01*
X19918072Y-44220000D01*
X19905812Y-44095518D01*
X19869502Y-43975820D01*
X19810537Y-43865506D01*
X19731185Y-43768815D01*
X19634494Y-43689463D01*
X19524180Y-43630498D01*
X19404482Y-43594188D01*
X19280000Y-43581928D01*
X16280000Y-43581928D01*
X16155518Y-43594188D01*
X16035820Y-43630498D01*
X15925506Y-43689463D01*
X15828815Y-43768815D01*
X15749463Y-43865506D01*
X15690498Y-43975820D01*
X15654188Y-44095518D01*
X15641928Y-44220000D01*
X13116817Y-44220000D01*
X12916505Y-44019688D01*
X12665095Y-43851701D01*
X12385743Y-43735989D01*
X12089184Y-43677000D01*
X11786816Y-43677000D01*
X11490257Y-43735989D01*
X11210905Y-43851701D01*
X10959495Y-44019688D01*
X10893056Y-44086127D01*
X10887502Y-44067820D01*
X10828537Y-43957506D01*
X10749185Y-43860815D01*
X10652494Y-43781463D01*
X10542180Y-43722498D01*
X10422482Y-43686188D01*
X10298000Y-43673928D01*
X8498000Y-43673928D01*
X8373518Y-43686188D01*
X8253820Y-43722498D01*
X8143506Y-43781463D01*
X8046815Y-43860815D01*
X7967463Y-43957506D01*
X7908498Y-44067820D01*
X7872188Y-44187518D01*
X7859928Y-44312000D01*
X4855661Y-44312000D01*
X4661998Y-44118337D01*
X4377831Y-43928463D01*
X4062081Y-43797675D01*
X3726883Y-43731000D01*
X3385117Y-43731000D01*
X3049919Y-43797675D01*
X2734169Y-43928463D01*
X2450002Y-44118337D01*
X2208337Y-44360002D01*
X2018463Y-44644169D01*
X1887675Y-44959919D01*
X1821000Y-45295117D01*
X685000Y-45295117D01*
X685000Y-42284967D01*
X25575000Y-42284967D01*
X25575000Y-42607033D01*
X25637832Y-42922912D01*
X25761082Y-43220463D01*
X25940013Y-43488252D01*
X26167748Y-43715987D01*
X26435537Y-43894918D01*
X26733088Y-44018168D01*
X27048967Y-44081000D01*
X27371033Y-44081000D01*
X27686912Y-44018168D01*
X27735264Y-43998140D01*
X27725000Y-44049740D01*
X27725000Y-44342260D01*
X27782068Y-44629158D01*
X27894010Y-44899411D01*
X28056525Y-45142632D01*
X28263368Y-45349475D01*
X28506589Y-45511990D01*
X28776842Y-45623932D01*
X29063740Y-45681000D01*
X29356260Y-45681000D01*
X29643158Y-45623932D01*
X29913411Y-45511990D01*
X30156632Y-45349475D01*
X30363475Y-45142632D01*
X30525990Y-44899411D01*
X30637932Y-44629158D01*
X30695000Y-44342260D01*
X30695000Y-44049740D01*
X31725000Y-44049740D01*
X31725000Y-44342260D01*
X31782068Y-44629158D01*
X31894010Y-44899411D01*
X32056525Y-45142632D01*
X32263368Y-45349475D01*
X32506589Y-45511990D01*
X32776842Y-45623932D01*
X33063740Y-45681000D01*
X33356260Y-45681000D01*
X33643158Y-45623932D01*
X33913411Y-45511990D01*
X34156632Y-45349475D01*
X34363475Y-45142632D01*
X34525990Y-44899411D01*
X34637932Y-44629158D01*
X34695000Y-44342260D01*
X34695000Y-44049740D01*
X35725000Y-44049740D01*
X35725000Y-44342260D01*
X35782068Y-44629158D01*
X35894010Y-44899411D01*
X36056525Y-45142632D01*
X36263368Y-45349475D01*
X36506589Y-45511990D01*
X36776842Y-45623932D01*
X37063740Y-45681000D01*
X37356260Y-45681000D01*
X37643158Y-45623932D01*
X37913411Y-45511990D01*
X37933829Y-45498347D01*
X43772952Y-45498347D01*
X45085000Y-46810395D01*
X46397048Y-45498347D01*
X46241038Y-45182786D01*
X45866255Y-44991980D01*
X45461449Y-44877956D01*
X45042176Y-44845098D01*
X44624549Y-44894666D01*
X44224617Y-45024757D01*
X43928962Y-45182786D01*
X43772952Y-45498347D01*
X37933829Y-45498347D01*
X38156632Y-45349475D01*
X38363475Y-45142632D01*
X38525990Y-44899411D01*
X38637932Y-44629158D01*
X38695000Y-44342260D01*
X38695000Y-44049740D01*
X38684736Y-43998140D01*
X38733088Y-44018168D01*
X39048967Y-44081000D01*
X39371033Y-44081000D01*
X39686912Y-44018168D01*
X39984463Y-43894918D01*
X40252252Y-43715987D01*
X40479987Y-43488252D01*
X40658918Y-43220463D01*
X40782168Y-42922912D01*
X40845000Y-42607033D01*
X40845000Y-42284967D01*
X40782168Y-41969088D01*
X40670593Y-41699721D01*
X42950000Y-41699721D01*
X42950000Y-42120279D01*
X43032047Y-42532756D01*
X43192988Y-42921302D01*
X43426637Y-43270983D01*
X43724017Y-43568363D01*
X44073698Y-43802012D01*
X44462244Y-43962953D01*
X44874721Y-44045000D01*
X45295279Y-44045000D01*
X45707756Y-43962953D01*
X46096302Y-43802012D01*
X46445983Y-43568363D01*
X46743363Y-43270983D01*
X46977012Y-42921302D01*
X47137953Y-42532756D01*
X47220000Y-42120279D01*
X47220000Y-41699721D01*
X47137953Y-41287244D01*
X46977012Y-40898698D01*
X46743363Y-40549017D01*
X46445983Y-40251637D01*
X46096302Y-40017988D01*
X45707756Y-39857047D01*
X45295279Y-39775000D01*
X44874721Y-39775000D01*
X44462244Y-39857047D01*
X44073698Y-40017988D01*
X43724017Y-40251637D01*
X43426637Y-40549017D01*
X43192988Y-40898698D01*
X43032047Y-41287244D01*
X42950000Y-41699721D01*
X40670593Y-41699721D01*
X40658918Y-41671537D01*
X40479987Y-41403748D01*
X40252252Y-41176013D01*
X39984463Y-40997082D01*
X39686912Y-40873832D01*
X39371033Y-40811000D01*
X39048967Y-40811000D01*
X38733088Y-40873832D01*
X38435537Y-40997082D01*
X38167748Y-41176013D01*
X37940013Y-41403748D01*
X37761082Y-41671537D01*
X37637832Y-41969088D01*
X37575000Y-42284967D01*
X37575000Y-42607033D01*
X37605543Y-42760586D01*
X37356260Y-42711000D01*
X37063740Y-42711000D01*
X36776842Y-42768068D01*
X36506589Y-42880010D01*
X36263368Y-43042525D01*
X36056525Y-43249368D01*
X35894010Y-43492589D01*
X35782068Y-43762842D01*
X35725000Y-44049740D01*
X34695000Y-44049740D01*
X34637932Y-43762842D01*
X34525990Y-43492589D01*
X34363475Y-43249368D01*
X34156632Y-43042525D01*
X33913411Y-42880010D01*
X33643158Y-42768068D01*
X33356260Y-42711000D01*
X33063740Y-42711000D01*
X32776842Y-42768068D01*
X32506589Y-42880010D01*
X32263368Y-43042525D01*
X32056525Y-43249368D01*
X31894010Y-43492589D01*
X31782068Y-43762842D01*
X31725000Y-44049740D01*
X30695000Y-44049740D01*
X30637932Y-43762842D01*
X30525990Y-43492589D01*
X30363475Y-43249368D01*
X30156632Y-43042525D01*
X29913411Y-42880010D01*
X29643158Y-42768068D01*
X29356260Y-42711000D01*
X29063740Y-42711000D01*
X28814457Y-42760586D01*
X28845000Y-42607033D01*
X28845000Y-42284967D01*
X28782168Y-41969088D01*
X28658918Y-41671537D01*
X28479987Y-41403748D01*
X28252252Y-41176013D01*
X27984463Y-40997082D01*
X27686912Y-40873832D01*
X27371033Y-40811000D01*
X27048967Y-40811000D01*
X26733088Y-40873832D01*
X26435537Y-40997082D01*
X26167748Y-41176013D01*
X25940013Y-41403748D01*
X25761082Y-41671537D01*
X25637832Y-41969088D01*
X25575000Y-42284967D01*
X685000Y-42284967D01*
X685000Y-37708000D01*
X7859928Y-37708000D01*
X7859928Y-39508000D01*
X7872188Y-39632482D01*
X7908498Y-39752180D01*
X7967463Y-39862494D01*
X8046815Y-39959185D01*
X8143506Y-40038537D01*
X8253820Y-40097502D01*
X8373518Y-40133812D01*
X8498000Y-40146072D01*
X10298000Y-40146072D01*
X10422482Y-40133812D01*
X10542180Y-40097502D01*
X10652494Y-40038537D01*
X10749185Y-39959185D01*
X10828537Y-39862494D01*
X10887502Y-39752180D01*
X10893056Y-39733873D01*
X10959495Y-39800312D01*
X11210905Y-39968299D01*
X11490257Y-40084011D01*
X11786816Y-40143000D01*
X12089184Y-40143000D01*
X12385743Y-40084011D01*
X12665095Y-39968299D01*
X12916505Y-39800312D01*
X13130312Y-39586505D01*
X13298299Y-39335095D01*
X13414011Y-39055743D01*
X13473000Y-38759184D01*
X13473000Y-38506061D01*
X14713000Y-38506061D01*
X14713000Y-38709939D01*
X14752774Y-38909898D01*
X14830795Y-39098256D01*
X14944063Y-39267774D01*
X15088226Y-39411937D01*
X15257744Y-39525205D01*
X15446102Y-39603226D01*
X15646061Y-39643000D01*
X15849939Y-39643000D01*
X16049898Y-39603226D01*
X16238256Y-39525205D01*
X16407774Y-39411937D01*
X16451711Y-39368000D01*
X18065928Y-39368000D01*
X18065928Y-39716000D01*
X18078188Y-39840482D01*
X18114498Y-39960180D01*
X18173463Y-40070494D01*
X18252815Y-40167185D01*
X18349506Y-40246537D01*
X18459820Y-40305502D01*
X18579518Y-40341812D01*
X18704000Y-40354072D01*
X19904000Y-40354072D01*
X20028482Y-40341812D01*
X20148180Y-40305502D01*
X20258494Y-40246537D01*
X20275681Y-40232432D01*
X20402516Y-40290237D01*
X20639313Y-40346000D01*
X20882438Y-40354495D01*
X21122549Y-40315395D01*
X21350418Y-40230202D01*
X21426852Y-40189348D01*
X21474159Y-39965764D01*
X20804000Y-39295605D01*
X20789858Y-39309748D01*
X20610253Y-39130143D01*
X20624395Y-39116000D01*
X20983605Y-39116000D01*
X21653764Y-39786159D01*
X21877348Y-39738852D01*
X21978237Y-39517484D01*
X22034000Y-39280687D01*
X22042495Y-39037562D01*
X22003395Y-38797451D01*
X21918202Y-38569582D01*
X21877348Y-38493148D01*
X21653764Y-38445841D01*
X20983605Y-39116000D01*
X20624395Y-39116000D01*
X20610253Y-39101858D01*
X20789858Y-38922253D01*
X20804000Y-38936395D01*
X21474159Y-38266236D01*
X21426852Y-38042652D01*
X21205484Y-37941763D01*
X20968687Y-37886000D01*
X20725562Y-37877505D01*
X20485451Y-37916605D01*
X20271883Y-37996451D01*
X20258494Y-37985463D01*
X20148180Y-37926498D01*
X20028482Y-37890188D01*
X19904000Y-37877928D01*
X19007394Y-37877928D01*
X18944986Y-37858997D01*
X18833333Y-37848000D01*
X18833322Y-37848000D01*
X18796000Y-37844324D01*
X18758678Y-37848000D01*
X16451711Y-37848000D01*
X16407774Y-37804063D01*
X16238256Y-37690795D01*
X16049898Y-37612774D01*
X15849939Y-37573000D01*
X15646061Y-37573000D01*
X15446102Y-37612774D01*
X15257744Y-37690795D01*
X15088226Y-37804063D01*
X14944063Y-37948226D01*
X14830795Y-38117744D01*
X14752774Y-38306102D01*
X14713000Y-38506061D01*
X13473000Y-38506061D01*
X13473000Y-38456816D01*
X13414011Y-38160257D01*
X13298299Y-37880905D01*
X13130312Y-37629495D01*
X12916505Y-37415688D01*
X12665095Y-37247701D01*
X12385743Y-37131989D01*
X12089184Y-37073000D01*
X11786816Y-37073000D01*
X11490257Y-37131989D01*
X11210905Y-37247701D01*
X10959495Y-37415688D01*
X10893056Y-37482127D01*
X10887502Y-37463820D01*
X10828537Y-37353506D01*
X10749185Y-37256815D01*
X10652494Y-37177463D01*
X10542180Y-37118498D01*
X10422482Y-37082188D01*
X10298000Y-37069928D01*
X8498000Y-37069928D01*
X8373518Y-37082188D01*
X8253820Y-37118498D01*
X8143506Y-37177463D01*
X8046815Y-37256815D01*
X7967463Y-37353506D01*
X7908498Y-37463820D01*
X7872188Y-37583518D01*
X7859928Y-37708000D01*
X685000Y-37708000D01*
X685000Y-31104000D01*
X7859928Y-31104000D01*
X7859928Y-32904000D01*
X7872188Y-33028482D01*
X7908498Y-33148180D01*
X7967463Y-33258494D01*
X8046815Y-33355185D01*
X8143506Y-33434537D01*
X8253820Y-33493502D01*
X8373518Y-33529812D01*
X8498000Y-33542072D01*
X10298000Y-33542072D01*
X10422482Y-33529812D01*
X10542180Y-33493502D01*
X10652494Y-33434537D01*
X10749185Y-33355185D01*
X10828537Y-33258494D01*
X10887502Y-33148180D01*
X10893056Y-33129873D01*
X10959495Y-33196312D01*
X11210905Y-33364299D01*
X11490257Y-33480011D01*
X11786816Y-33539000D01*
X12089184Y-33539000D01*
X12385743Y-33480011D01*
X12665095Y-33364299D01*
X12916505Y-33196312D01*
X13130312Y-32982505D01*
X13298299Y-32731095D01*
X13414011Y-32451743D01*
X13473000Y-32155184D01*
X13473000Y-31852816D01*
X13414011Y-31556257D01*
X13298299Y-31276905D01*
X13130312Y-31025495D01*
X12916505Y-30811688D01*
X12665095Y-30643701D01*
X12385743Y-30527989D01*
X12089184Y-30469000D01*
X11786816Y-30469000D01*
X11490257Y-30527989D01*
X11210905Y-30643701D01*
X10959495Y-30811688D01*
X10893056Y-30878127D01*
X10887502Y-30859820D01*
X10828537Y-30749506D01*
X10749185Y-30652815D01*
X10652494Y-30573463D01*
X10542180Y-30514498D01*
X10422482Y-30478188D01*
X10298000Y-30465928D01*
X8498000Y-30465928D01*
X8373518Y-30478188D01*
X8253820Y-30514498D01*
X8143506Y-30573463D01*
X8046815Y-30652815D01*
X7967463Y-30749506D01*
X7908498Y-30859820D01*
X7872188Y-30979518D01*
X7859928Y-31104000D01*
X685000Y-31104000D01*
X685000Y-30509735D01*
X714573Y-30480162D01*
X740711Y-30458711D01*
X826312Y-30354407D01*
X889919Y-30235406D01*
X929088Y-30106283D01*
X939000Y-30005647D01*
X939000Y-30005640D01*
X942313Y-29972001D01*
X939000Y-29938362D01*
X939000Y-25644589D01*
X3187000Y-25644589D01*
X3187000Y-25917411D01*
X3240225Y-26184989D01*
X3344629Y-26437043D01*
X3496201Y-26663886D01*
X3689114Y-26856799D01*
X3915957Y-27008371D01*
X4168011Y-27112775D01*
X4435589Y-27166000D01*
X4708411Y-27166000D01*
X4975989Y-27112775D01*
X5228043Y-27008371D01*
X5454886Y-26856799D01*
X5647799Y-26663886D01*
X5799371Y-26437043D01*
X5903775Y-26184989D01*
X5957000Y-25917411D01*
X5957000Y-25644589D01*
X5903775Y-25377011D01*
X5799371Y-25124957D01*
X5647799Y-24898114D01*
X5454886Y-24705201D01*
X5228043Y-24553629D01*
X4975989Y-24449225D01*
X4708411Y-24396000D01*
X4435589Y-24396000D01*
X4168011Y-24449225D01*
X3915957Y-24553629D01*
X3689114Y-24705201D01*
X3496201Y-24898114D01*
X3344629Y-25124957D01*
X3240225Y-25377011D01*
X3187000Y-25644589D01*
X939000Y-25644589D01*
X939000Y-20764589D01*
X3187000Y-20764589D01*
X3187000Y-21037411D01*
X3240225Y-21304989D01*
X3344629Y-21557043D01*
X3496201Y-21783886D01*
X3689114Y-21976799D01*
X3915957Y-22128371D01*
X4168011Y-22232775D01*
X4435589Y-22286000D01*
X4708411Y-22286000D01*
X4975989Y-22232775D01*
X5228043Y-22128371D01*
X5454886Y-21976799D01*
X5647799Y-21783886D01*
X5799371Y-21557043D01*
X5903775Y-21304989D01*
X5957000Y-21037411D01*
X5957000Y-20764589D01*
X5903775Y-20497011D01*
X5799371Y-20244957D01*
X5647799Y-20018114D01*
X5454886Y-19825201D01*
X5228043Y-19673629D01*
X4975989Y-19569225D01*
X4708411Y-19516000D01*
X4435589Y-19516000D01*
X4168011Y-19569225D01*
X3915957Y-19673629D01*
X3689114Y-19825201D01*
X3496201Y-20018114D01*
X3344629Y-20244957D01*
X3240225Y-20497011D01*
X3187000Y-20764589D01*
X939000Y-20764589D01*
X939000Y-17746353D01*
X929088Y-17645717D01*
X889919Y-17516594D01*
X826312Y-17397593D01*
X740710Y-17293289D01*
X685000Y-17247568D01*
X685000Y-1303504D01*
X699364Y-1157008D01*
X732176Y-1048330D01*
X785479Y-948082D01*
X857232Y-860103D01*
X944707Y-787737D01*
X1044579Y-733737D01*
X1153027Y-700167D01*
X1297331Y-685000D01*
X6095538Y-685000D01*
X6131714Y-751907D01*
G36*
X40132000Y-19558000D02*
G01*
X40152000Y-19558000D01*
X40152000Y-19812000D01*
X40132000Y-19812000D01*
X40132000Y-21005814D01*
X40361891Y-21126481D01*
X40420002Y-21105867D01*
X40420002Y-21198786D01*
X38952798Y-22665991D01*
X37336811Y-22665991D01*
X39123108Y-20879694D01*
X39123645Y-20880178D01*
X39373748Y-21029157D01*
X39648109Y-21126481D01*
X39878000Y-21005814D01*
X39878000Y-19812000D01*
X39858000Y-19812000D01*
X39858000Y-19558000D01*
X39878000Y-19558000D01*
X39878000Y-19538000D01*
X40132000Y-19538000D01*
X40132000Y-19558000D01*
X40132000Y-19558000D01*
G37*
X40132000Y-19558000D02*
X40152000Y-19558000D01*
X40152000Y-19812000D01*
X40132000Y-19812000D01*
X40132000Y-21005814D01*
X40361891Y-21126481D01*
X40420002Y-21105867D01*
X40420002Y-21198786D01*
X38952798Y-22665991D01*
X37336811Y-22665991D01*
X39123108Y-20879694D01*
X39123645Y-20880178D01*
X39373748Y-21029157D01*
X39648109Y-21126481D01*
X39878000Y-21005814D01*
X39878000Y-19812000D01*
X39858000Y-19812000D01*
X39858000Y-19558000D01*
X39878000Y-19558000D01*
X39878000Y-19538000D01*
X40132000Y-19538000D01*
X40132000Y-19558000D01*
M02*
