M48
; DRILL file {KiCad (5.1.2)-1} date 6/9/2019 10:25:33 AM
; FORMAT={2:4/ absolute / inch / suppress leading zeros}
; #@! TF.CreationDate,2019-06-09T10:25:33-07:00
; #@! TF.GenerationSoftware,Kicad,Pcbnew,(5.1.2)-1
FMAT,2
INCH,TZ
T1C0.0157
T2C0.0236
T3C0.0315
T4C0.0354
T5C0.0394
T6C0.0472
T7C0.0598
T8C0.0866
%
G90
G05
T1
X800Y-13700
X1314Y-12986
X1314Y-14486
X3100Y-3500
X3300Y-7650
X3800Y-6500
X4900Y-10950
X6200Y-15200
X8600Y-14600
X10307Y-2193
X11100Y-2700
X12200Y-10700
X13700Y-13100
X16300Y-10100
X16600Y-7700
X17850Y-9650
X18600Y-6500
X18750Y-3300
X18800Y-11100
T2
X15000Y-3500
X15591Y-3500
X7600Y-15400
X8191Y-15400
T3
X6200Y-750
X6200Y-1750
X6200Y-2750
X6200Y-3750
X6200Y-4750
X6200Y-5750
X6200Y-6750
X6200Y-7750
X6200Y-8750
X6200Y-9750
X6200Y-10750
X6200Y-11750
X6200Y-12750
X6200Y-13750
X9200Y-750
X9200Y-1750
X9200Y-2750
X9200Y-3750
X9200Y-4750
X9200Y-5750
X9200Y-6750
X9200Y-7750
X9200Y-8750
X9200Y-9750
X9200Y-10750
X9200Y-11750
X9200Y-12750
X9200Y-13750
X1800Y-8229
X1800Y-10150
T4
X3700Y-17800
X4700Y-17800
X3700Y-12600
X4700Y-12600
X11500Y-17400
X13075Y-17400
X14650Y-17400
X3700Y-15200
X4700Y-15200
T5
X14750Y-5750
X14750Y-6750
X14750Y-7750
X15750Y-5750
X15750Y-6750
X15750Y-7750
X10750Y-750
X11750Y-750
X12750Y-750
X13750Y-750
X14750Y-750
X15750Y-750
X4750Y-750
X4750Y-1750
X4750Y-2750
X4750Y-3750
X4750Y-4750
X4750Y-5750
X4750Y-6750
X4750Y-7750
X14750Y-9750
X14750Y-10750
X14750Y-11750
X14750Y-12750
X14750Y-13750
X14750Y-14750
X12750Y-2750
X12750Y-3750
X12750Y-4750
X12750Y-5750
X12750Y-6750
X12750Y-7750
X12750Y-8750
T6
X10713Y-16711
X10713Y-19073
X15437Y-16711
X15437Y-19073
T7
X17750Y-12500
X17750Y-14500
X17750Y-16500
X17750Y-18500
X7000Y-18000
X9000Y-18000
T8
X1400Y-17900
X10800Y-5100
X12400Y-14300
T0
M30
