G04 #@! TF.GenerationSoftware,KiCad,Pcbnew,(5.1.2)-1*
G04 #@! TF.CreationDate,2019-06-09T10:39:25-07:00*
G04 #@! TF.ProjectId,gen3basic,67656e33-6261-4736-9963-2e6b69636164,v1.0a*
G04 #@! TF.SameCoordinates,PX3072580PY2a640d0*
G04 #@! TF.FileFunction,Legend,Top*
G04 #@! TF.FilePolarity,Positive*
%FSLAX46Y46*%
G04 Gerber Fmt 4.6, Leading zero omitted, Abs format (unit mm)*
G04 Created by KiCad (PCBNEW (5.1.2)-1) date 2019-06-09 10:39:25*
%MOMM*%
%LPD*%
G04 APERTURE LIST*
%ADD10C,0.150000*%
%ADD11C,0.100000*%
%ADD12C,0.203200*%
%ADD13C,0.120000*%
%ADD14C,0.127000*%
G04 APERTURE END LIST*
D10*
X40318666Y-11153000D02*
X40318666Y-11619666D01*
X40152000Y-10886333D02*
X39985333Y-11386333D01*
X40418666Y-11386333D01*
X40618666Y-10919666D02*
X41085333Y-10919666D01*
X40785333Y-11619666D01*
X42185333Y-11153000D02*
X42185333Y-11619666D01*
X41885333Y-11153000D02*
X41885333Y-11519666D01*
X41918666Y-11586333D01*
X41985333Y-11619666D01*
X42085333Y-11619666D01*
X42152000Y-11586333D01*
X42185333Y-11553000D01*
X42752000Y-11253000D02*
X42518666Y-11253000D01*
X42518666Y-11619666D02*
X42518666Y-10919666D01*
X42852000Y-10919666D01*
X9468000Y-48451333D02*
X9501333Y-48418000D01*
X9568000Y-48384666D01*
X9734666Y-48384666D01*
X9801333Y-48418000D01*
X9834666Y-48451333D01*
X9868000Y-48518000D01*
X9868000Y-48584666D01*
X9834666Y-48684666D01*
X9434666Y-49084666D01*
X9868000Y-49084666D01*
X10301333Y-48384666D02*
X10368000Y-48384666D01*
X10434666Y-48418000D01*
X10468000Y-48451333D01*
X10501333Y-48518000D01*
X10534666Y-48651333D01*
X10534666Y-48818000D01*
X10501333Y-48951333D01*
X10468000Y-49018000D01*
X10434666Y-49051333D01*
X10368000Y-49084666D01*
X10301333Y-49084666D01*
X10234666Y-49051333D01*
X10201333Y-49018000D01*
X10168000Y-48951333D01*
X10134666Y-48818000D01*
X10134666Y-48651333D01*
X10168000Y-48518000D01*
X10201333Y-48451333D01*
X10234666Y-48418000D01*
X10301333Y-48384666D01*
X11201333Y-49084666D02*
X10801333Y-49084666D01*
X11001333Y-49084666D02*
X11001333Y-48384666D01*
X10934666Y-48484666D01*
X10868000Y-48551333D01*
X10801333Y-48584666D01*
X11534666Y-49084666D02*
X11668000Y-49084666D01*
X11734666Y-49051333D01*
X11768000Y-49018000D01*
X11834666Y-48918000D01*
X11868000Y-48784666D01*
X11868000Y-48518000D01*
X11834666Y-48451333D01*
X11801333Y-48418000D01*
X11734666Y-48384666D01*
X11601333Y-48384666D01*
X11534666Y-48418000D01*
X11501333Y-48451333D01*
X11468000Y-48518000D01*
X11468000Y-48684666D01*
X11501333Y-48751333D01*
X11534666Y-48784666D01*
X11601333Y-48818000D01*
X11734666Y-48818000D01*
X11801333Y-48784666D01*
X11834666Y-48751333D01*
X11868000Y-48684666D01*
X801714Y-47950047D02*
X1611238Y-47950047D01*
X1706476Y-47997666D01*
X1754095Y-48045285D01*
X1801714Y-48140523D01*
X1801714Y-48283380D01*
X1754095Y-48378619D01*
X1420761Y-47950047D02*
X1468380Y-48045285D01*
X1468380Y-48235761D01*
X1420761Y-48331000D01*
X1373142Y-48378619D01*
X1277904Y-48426238D01*
X992190Y-48426238D01*
X896952Y-48378619D01*
X849333Y-48331000D01*
X801714Y-48235761D01*
X801714Y-48045285D01*
X849333Y-47950047D01*
X1420761Y-47092904D02*
X1468380Y-47188142D01*
X1468380Y-47378619D01*
X1420761Y-47473857D01*
X1325523Y-47521476D01*
X944571Y-47521476D01*
X849333Y-47473857D01*
X801714Y-47378619D01*
X801714Y-47188142D01*
X849333Y-47092904D01*
X944571Y-47045285D01*
X1039809Y-47045285D01*
X1135047Y-47521476D01*
X801714Y-46616714D02*
X1468380Y-46616714D01*
X896952Y-46616714D02*
X849333Y-46569095D01*
X801714Y-46473857D01*
X801714Y-46331000D01*
X849333Y-46235761D01*
X944571Y-46188142D01*
X1468380Y-46188142D01*
X468380Y-45807190D02*
X468380Y-45188142D01*
X849333Y-45521476D01*
X849333Y-45378619D01*
X896952Y-45283380D01*
X944571Y-45235761D01*
X1039809Y-45188142D01*
X1277904Y-45188142D01*
X1373142Y-45235761D01*
X1420761Y-45283380D01*
X1468380Y-45378619D01*
X1468380Y-45664333D01*
X1420761Y-45759571D01*
X1373142Y-45807190D01*
X1468380Y-44759571D02*
X468380Y-44759571D01*
X849333Y-44759571D02*
X801714Y-44664333D01*
X801714Y-44473857D01*
X849333Y-44378619D01*
X896952Y-44331000D01*
X992190Y-44283380D01*
X1277904Y-44283380D01*
X1373142Y-44331000D01*
X1420761Y-44378619D01*
X1468380Y-44473857D01*
X1468380Y-44664333D01*
X1420761Y-44759571D01*
X1468380Y-43426238D02*
X944571Y-43426238D01*
X849333Y-43473857D01*
X801714Y-43569095D01*
X801714Y-43759571D01*
X849333Y-43854809D01*
X1420761Y-43426238D02*
X1468380Y-43521476D01*
X1468380Y-43759571D01*
X1420761Y-43854809D01*
X1325523Y-43902428D01*
X1230285Y-43902428D01*
X1135047Y-43854809D01*
X1087428Y-43759571D01*
X1087428Y-43521476D01*
X1039809Y-43426238D01*
X1420761Y-42997666D02*
X1468380Y-42902428D01*
X1468380Y-42711952D01*
X1420761Y-42616714D01*
X1325523Y-42569095D01*
X1277904Y-42569095D01*
X1182666Y-42616714D01*
X1135047Y-42711952D01*
X1135047Y-42854809D01*
X1087428Y-42950047D01*
X992190Y-42997666D01*
X944571Y-42997666D01*
X849333Y-42950047D01*
X801714Y-42854809D01*
X801714Y-42711952D01*
X849333Y-42616714D01*
X1468380Y-42140523D02*
X801714Y-42140523D01*
X468380Y-42140523D02*
X516000Y-42188142D01*
X563619Y-42140523D01*
X516000Y-42092904D01*
X468380Y-42140523D01*
X563619Y-42140523D01*
X1420761Y-41235761D02*
X1468380Y-41331000D01*
X1468380Y-41521476D01*
X1420761Y-41616714D01*
X1373142Y-41664333D01*
X1277904Y-41711952D01*
X992190Y-41711952D01*
X896952Y-41664333D01*
X849333Y-41616714D01*
X801714Y-41521476D01*
X801714Y-41331000D01*
X849333Y-41235761D01*
X19162547Y-33087666D02*
X18512547Y-33087666D01*
X19131595Y-33087666D02*
X19162547Y-33149571D01*
X19162547Y-33273380D01*
X19131595Y-33335285D01*
X19100642Y-33366238D01*
X19038738Y-33397190D01*
X18853023Y-33397190D01*
X18791119Y-33366238D01*
X18760166Y-33335285D01*
X18729214Y-33273380D01*
X18729214Y-33149571D01*
X18760166Y-33087666D01*
X19162547Y-32778142D02*
X18729214Y-32778142D01*
X18512547Y-32778142D02*
X18543500Y-32809095D01*
X18574452Y-32778142D01*
X18543500Y-32747190D01*
X18512547Y-32778142D01*
X18574452Y-32778142D01*
X19162547Y-32190047D02*
X18512547Y-32190047D01*
X19131595Y-32190047D02*
X19162547Y-32251952D01*
X19162547Y-32375761D01*
X19131595Y-32437666D01*
X19100642Y-32468619D01*
X19038738Y-32499571D01*
X18853023Y-32499571D01*
X18791119Y-32468619D01*
X18760166Y-32437666D01*
X18729214Y-32375761D01*
X18729214Y-32251952D01*
X18760166Y-32190047D01*
X18729214Y-31447190D02*
X19162547Y-31292428D01*
X18729214Y-31137666D02*
X19162547Y-31292428D01*
X19317309Y-31354333D01*
X19348261Y-31385285D01*
X19379214Y-31447190D01*
X19162547Y-30797190D02*
X19131595Y-30859095D01*
X19100642Y-30890047D01*
X19038738Y-30921000D01*
X18853023Y-30921000D01*
X18791119Y-30890047D01*
X18760166Y-30859095D01*
X18729214Y-30797190D01*
X18729214Y-30704333D01*
X18760166Y-30642428D01*
X18791119Y-30611476D01*
X18853023Y-30580523D01*
X19038738Y-30580523D01*
X19100642Y-30611476D01*
X19131595Y-30642428D01*
X19162547Y-30704333D01*
X19162547Y-30797190D01*
X18729214Y-30023380D02*
X19162547Y-30023380D01*
X18729214Y-30301952D02*
X19069690Y-30301952D01*
X19131595Y-30271000D01*
X19162547Y-30209095D01*
X19162547Y-30116238D01*
X19131595Y-30054333D01*
X19100642Y-30023380D01*
X19162547Y-29218619D02*
X18729214Y-29218619D01*
X18853023Y-29218619D02*
X18791119Y-29187666D01*
X18760166Y-29156714D01*
X18729214Y-29094809D01*
X18729214Y-29032904D01*
X19131595Y-28568619D02*
X19162547Y-28630523D01*
X19162547Y-28754333D01*
X19131595Y-28816238D01*
X19069690Y-28847190D01*
X18822071Y-28847190D01*
X18760166Y-28816238D01*
X18729214Y-28754333D01*
X18729214Y-28630523D01*
X18760166Y-28568619D01*
X18822071Y-28537666D01*
X18883976Y-28537666D01*
X18945880Y-28847190D01*
X19162547Y-28259095D02*
X18729214Y-28259095D01*
X18791119Y-28259095D02*
X18760166Y-28228142D01*
X18729214Y-28166238D01*
X18729214Y-28073380D01*
X18760166Y-28011476D01*
X18822071Y-27980523D01*
X19162547Y-27980523D01*
X18822071Y-27980523D02*
X18760166Y-27949571D01*
X18729214Y-27887666D01*
X18729214Y-27794809D01*
X18760166Y-27732904D01*
X18822071Y-27701952D01*
X19162547Y-27701952D01*
X19131595Y-27144809D02*
X19162547Y-27206714D01*
X19162547Y-27330523D01*
X19131595Y-27392428D01*
X19069690Y-27423380D01*
X18822071Y-27423380D01*
X18760166Y-27392428D01*
X18729214Y-27330523D01*
X18729214Y-27206714D01*
X18760166Y-27144809D01*
X18822071Y-27113857D01*
X18883976Y-27113857D01*
X18945880Y-27423380D01*
X19162547Y-26835285D02*
X18729214Y-26835285D01*
X18791119Y-26835285D02*
X18760166Y-26804333D01*
X18729214Y-26742428D01*
X18729214Y-26649571D01*
X18760166Y-26587666D01*
X18822071Y-26556714D01*
X19162547Y-26556714D01*
X18822071Y-26556714D02*
X18760166Y-26525761D01*
X18729214Y-26463857D01*
X18729214Y-26371000D01*
X18760166Y-26309095D01*
X18822071Y-26278142D01*
X19162547Y-26278142D01*
X19162547Y-25968619D02*
X18512547Y-25968619D01*
X18760166Y-25968619D02*
X18729214Y-25906714D01*
X18729214Y-25782904D01*
X18760166Y-25721000D01*
X18791119Y-25690047D01*
X18853023Y-25659095D01*
X19038738Y-25659095D01*
X19100642Y-25690047D01*
X19131595Y-25721000D01*
X19162547Y-25782904D01*
X19162547Y-25906714D01*
X19131595Y-25968619D01*
X19131595Y-25132904D02*
X19162547Y-25194809D01*
X19162547Y-25318619D01*
X19131595Y-25380523D01*
X19069690Y-25411476D01*
X18822071Y-25411476D01*
X18760166Y-25380523D01*
X18729214Y-25318619D01*
X18729214Y-25194809D01*
X18760166Y-25132904D01*
X18822071Y-25101952D01*
X18883976Y-25101952D01*
X18945880Y-25411476D01*
X19162547Y-24823380D02*
X18729214Y-24823380D01*
X18853023Y-24823380D02*
X18791119Y-24792428D01*
X18760166Y-24761476D01*
X18729214Y-24699571D01*
X18729214Y-24637666D01*
X18729214Y-24018619D02*
X18729214Y-23771000D01*
X18512547Y-23925761D02*
X19069690Y-23925761D01*
X19131595Y-23894809D01*
X19162547Y-23832904D01*
X19162547Y-23771000D01*
X19162547Y-23461476D02*
X19131595Y-23523380D01*
X19100642Y-23554333D01*
X19038738Y-23585285D01*
X18853023Y-23585285D01*
X18791119Y-23554333D01*
X18760166Y-23523380D01*
X18729214Y-23461476D01*
X18729214Y-23368619D01*
X18760166Y-23306714D01*
X18791119Y-23275761D01*
X18853023Y-23244809D01*
X19038738Y-23244809D01*
X19100642Y-23275761D01*
X19131595Y-23306714D01*
X19162547Y-23368619D01*
X19162547Y-23461476D01*
X19854214Y-31880523D02*
X20504214Y-31880523D01*
X19885166Y-31880523D02*
X19854214Y-31818619D01*
X19854214Y-31694809D01*
X19885166Y-31632904D01*
X19916119Y-31601952D01*
X19978023Y-31571000D01*
X20163738Y-31571000D01*
X20225642Y-31601952D01*
X20256595Y-31632904D01*
X20287547Y-31694809D01*
X20287547Y-31818619D01*
X20256595Y-31880523D01*
X19854214Y-31013857D02*
X20287547Y-31013857D01*
X19854214Y-31292428D02*
X20194690Y-31292428D01*
X20256595Y-31261476D01*
X20287547Y-31199571D01*
X20287547Y-31106714D01*
X20256595Y-31044809D01*
X20225642Y-31013857D01*
X19854214Y-30797190D02*
X19854214Y-30549571D01*
X19637547Y-30704333D02*
X20194690Y-30704333D01*
X20256595Y-30673380D01*
X20287547Y-30611476D01*
X20287547Y-30549571D01*
X20287547Y-29559095D02*
X19947071Y-29559095D01*
X19885166Y-29590047D01*
X19854214Y-29651952D01*
X19854214Y-29775761D01*
X19885166Y-29837666D01*
X20256595Y-29559095D02*
X20287547Y-29621000D01*
X20287547Y-29775761D01*
X20256595Y-29837666D01*
X20194690Y-29868619D01*
X20132785Y-29868619D01*
X20070880Y-29837666D01*
X20039928Y-29775761D01*
X20039928Y-29621000D01*
X20008976Y-29559095D01*
X19854214Y-29249571D02*
X20287547Y-29249571D01*
X19916119Y-29249571D02*
X19885166Y-29218619D01*
X19854214Y-29156714D01*
X19854214Y-29063857D01*
X19885166Y-29001952D01*
X19947071Y-28971000D01*
X20287547Y-28971000D01*
X20101833Y-28197190D02*
X20101833Y-27887666D01*
X20287547Y-28259095D02*
X19637547Y-28042428D01*
X20287547Y-27825761D01*
X19637547Y-27701952D02*
X20287547Y-27485285D01*
X19637547Y-27268619D01*
X20287547Y-26680523D02*
X19978023Y-26897190D01*
X20287547Y-27051952D02*
X19637547Y-27051952D01*
X19637547Y-26804333D01*
X19668500Y-26742428D01*
X19699452Y-26711476D01*
X19761357Y-26680523D01*
X19854214Y-26680523D01*
X19916119Y-26711476D01*
X19947071Y-26742428D01*
X19978023Y-26804333D01*
X19978023Y-27051952D01*
X20287547Y-25906714D02*
X19854214Y-25906714D01*
X19637547Y-25906714D02*
X19668500Y-25937666D01*
X19699452Y-25906714D01*
X19668500Y-25875761D01*
X19637547Y-25906714D01*
X19699452Y-25906714D01*
X19854214Y-25597190D02*
X20287547Y-25597190D01*
X19916119Y-25597190D02*
X19885166Y-25566238D01*
X19854214Y-25504333D01*
X19854214Y-25411476D01*
X19885166Y-25349571D01*
X19947071Y-25318619D01*
X20287547Y-25318619D01*
X20225642Y-24916238D02*
X20256595Y-24885285D01*
X20287547Y-24916238D01*
X20256595Y-24947190D01*
X20225642Y-24916238D01*
X20287547Y-24916238D01*
X19668500Y-25040047D02*
X19637547Y-24978142D01*
X19637547Y-24823380D01*
X19668500Y-24761476D01*
X19730404Y-24730523D01*
X19792309Y-24730523D01*
X19854214Y-24761476D01*
X19885166Y-24792428D01*
X19916119Y-24854333D01*
X19947071Y-24885285D01*
X20008976Y-24916238D01*
X20039928Y-24916238D01*
X26949428Y-38396857D02*
X27406571Y-38396857D01*
X10414000Y-33274000D02*
X10414000Y-33909000D01*
X10795000Y-33528000D02*
X11303000Y-33528000D01*
X10795000Y-33909000D02*
X10541000Y-33655000D01*
X10795000Y-33274000D02*
X10795000Y-33909000D01*
X10414000Y-33528000D02*
X10795000Y-33274000D01*
X9906000Y-33528000D02*
X10414000Y-33528000D01*
X11290333Y-30403000D02*
X11823666Y-30403000D01*
X11557000Y-30669666D02*
X11557000Y-30136333D01*
X9385333Y-30403000D02*
X9918666Y-30403000D01*
X4256020Y-48618000D02*
X4364354Y-49084666D01*
X4589354Y-48618000D01*
X5164354Y-49084666D02*
X4764354Y-49084666D01*
X4964354Y-49084666D02*
X5051854Y-48384666D01*
X4972687Y-48484666D01*
X4897687Y-48551333D01*
X4826854Y-48584666D01*
X5472687Y-49018000D02*
X5501854Y-49051333D01*
X5464354Y-49084666D01*
X5435187Y-49051333D01*
X5472687Y-49018000D01*
X5464354Y-49084666D01*
X6018520Y-48384666D02*
X6085187Y-48384666D01*
X6147687Y-48418000D01*
X6176854Y-48451333D01*
X6201854Y-48518000D01*
X6218520Y-48651333D01*
X6197687Y-48818000D01*
X6147687Y-48951333D01*
X6106020Y-49018000D01*
X6068520Y-49051333D01*
X5997687Y-49084666D01*
X5931020Y-49084666D01*
X5868520Y-49051333D01*
X5839354Y-49018000D01*
X5814354Y-48951333D01*
X5797687Y-48818000D01*
X5818520Y-48651333D01*
X5868520Y-48518000D01*
X5910187Y-48451333D01*
X5947687Y-48418000D01*
X6018520Y-48384666D01*
X6764354Y-49084666D02*
X6810187Y-48718000D01*
X6785187Y-48651333D01*
X6722687Y-48618000D01*
X6589354Y-48618000D01*
X6518520Y-48651333D01*
X6768520Y-49051333D02*
X6697687Y-49084666D01*
X6531020Y-49084666D01*
X6468520Y-49051333D01*
X6443520Y-48984666D01*
X6451854Y-48918000D01*
X6493520Y-48851333D01*
X6564354Y-48818000D01*
X6731020Y-48818000D01*
X6801854Y-48784666D01*
D11*
G36*
X2286000Y-1016000D02*
G01*
X2032000Y-508000D01*
X2540000Y-508000D01*
X2286000Y-1016000D01*
G37*
X2286000Y-1016000D02*
X2032000Y-508000D01*
X2540000Y-508000D01*
X2286000Y-1016000D01*
G36*
X2286000Y-1524000D02*
G01*
X1905000Y-1524000D01*
X1397000Y-508000D01*
X1778000Y-508000D01*
X2286000Y-1524000D01*
G37*
X2286000Y-1524000D02*
X1905000Y-1524000D01*
X1397000Y-508000D01*
X1778000Y-508000D01*
X2286000Y-1524000D01*
G36*
X1651000Y-1524000D02*
G01*
X1270000Y-1524000D01*
X762000Y-508000D01*
X1143000Y-508000D01*
X1651000Y-1524000D01*
G37*
X1651000Y-1524000D02*
X1270000Y-1524000D01*
X762000Y-508000D01*
X1143000Y-508000D01*
X1651000Y-1524000D01*
D10*
X5916666Y-40144000D02*
X5916666Y-40610666D01*
X5616666Y-40144000D02*
X5616666Y-40510666D01*
X5650000Y-40577333D01*
X5716666Y-40610666D01*
X5816666Y-40610666D01*
X5883333Y-40577333D01*
X5916666Y-40544000D01*
X6216666Y-40577333D02*
X6283333Y-40610666D01*
X6416666Y-40610666D01*
X6483333Y-40577333D01*
X6516666Y-40510666D01*
X6516666Y-40477333D01*
X6483333Y-40410666D01*
X6416666Y-40377333D01*
X6316666Y-40377333D01*
X6250000Y-40344000D01*
X6216666Y-40277333D01*
X6216666Y-40244000D01*
X6250000Y-40177333D01*
X6316666Y-40144000D01*
X6416666Y-40144000D01*
X6483333Y-40177333D01*
X7083333Y-40577333D02*
X7016666Y-40610666D01*
X6883333Y-40610666D01*
X6816666Y-40577333D01*
X6783333Y-40510666D01*
X6783333Y-40244000D01*
X6816666Y-40177333D01*
X6883333Y-40144000D01*
X7016666Y-40144000D01*
X7083333Y-40177333D01*
X7116666Y-40244000D01*
X7116666Y-40310666D01*
X6783333Y-40377333D01*
X5716666Y-41777333D02*
X5650000Y-41810666D01*
X5516666Y-41810666D01*
X5450000Y-41777333D01*
X5416666Y-41744000D01*
X5383333Y-41677333D01*
X5383333Y-41477333D01*
X5416666Y-41410666D01*
X5450000Y-41377333D01*
X5516666Y-41344000D01*
X5650000Y-41344000D01*
X5716666Y-41377333D01*
X6316666Y-41810666D02*
X6316666Y-41444000D01*
X6283333Y-41377333D01*
X6216666Y-41344000D01*
X6083333Y-41344000D01*
X6016666Y-41377333D01*
X6316666Y-41777333D02*
X6250000Y-41810666D01*
X6083333Y-41810666D01*
X6016666Y-41777333D01*
X5983333Y-41710666D01*
X5983333Y-41644000D01*
X6016666Y-41577333D01*
X6083333Y-41544000D01*
X6250000Y-41544000D01*
X6316666Y-41510666D01*
X6750000Y-41810666D02*
X6683333Y-41777333D01*
X6650000Y-41710666D01*
X6650000Y-41110666D01*
X7316666Y-41777333D02*
X7250000Y-41810666D01*
X7116666Y-41810666D01*
X7050000Y-41777333D01*
X7016666Y-41744000D01*
X6983333Y-41677333D01*
X6983333Y-41477333D01*
X7016666Y-41410666D01*
X7050000Y-41377333D01*
X7116666Y-41344000D01*
X7250000Y-41344000D01*
X7316666Y-41377333D01*
X826333Y-28467666D02*
X793000Y-28434333D01*
X759666Y-28367666D01*
X759666Y-28201000D01*
X793000Y-28134333D01*
X826333Y-28101000D01*
X893000Y-28067666D01*
X959666Y-28067666D01*
X1059666Y-28101000D01*
X1459666Y-28501000D01*
X1459666Y-28067666D01*
X759666Y-27634333D02*
X759666Y-27567666D01*
X793000Y-27501000D01*
X826333Y-27467666D01*
X893000Y-27434333D01*
X1026333Y-27401000D01*
X1193000Y-27401000D01*
X1326333Y-27434333D01*
X1393000Y-27467666D01*
X1426333Y-27501000D01*
X1459666Y-27567666D01*
X1459666Y-27634333D01*
X1426333Y-27701000D01*
X1393000Y-27734333D01*
X1326333Y-27767666D01*
X1193000Y-27801000D01*
X1026333Y-27801000D01*
X893000Y-27767666D01*
X826333Y-27734333D01*
X793000Y-27701000D01*
X759666Y-27634333D01*
X993000Y-26567666D02*
X1693000Y-26567666D01*
X1026333Y-26567666D02*
X993000Y-26501000D01*
X993000Y-26367666D01*
X1026333Y-26301000D01*
X1059666Y-26267666D01*
X1126333Y-26234333D01*
X1326333Y-26234333D01*
X1393000Y-26267666D01*
X1426333Y-26301000D01*
X1459666Y-26367666D01*
X1459666Y-26501000D01*
X1426333Y-26567666D01*
X1093000Y-25701000D02*
X1093000Y-25934333D01*
X1459666Y-25934333D02*
X759666Y-25934333D01*
X759666Y-25601000D01*
X7936666Y-22828666D02*
X7936666Y-23228666D01*
X7936666Y-23028666D02*
X7236666Y-23028666D01*
X7336666Y-23095333D01*
X7403333Y-23162000D01*
X7436666Y-23228666D01*
X7236666Y-22228666D02*
X7236666Y-22362000D01*
X7270000Y-22428666D01*
X7303333Y-22462000D01*
X7403333Y-22528666D01*
X7536666Y-22562000D01*
X7803333Y-22562000D01*
X7870000Y-22528666D01*
X7903333Y-22495333D01*
X7936666Y-22428666D01*
X7936666Y-22295333D01*
X7903333Y-22228666D01*
X7870000Y-22195333D01*
X7803333Y-22162000D01*
X7636666Y-22162000D01*
X7570000Y-22195333D01*
X7536666Y-22228666D01*
X7503333Y-22295333D01*
X7503333Y-22428666D01*
X7536666Y-22495333D01*
X7570000Y-22528666D01*
X7636666Y-22562000D01*
X7203333Y-20828666D02*
X8103333Y-21428666D01*
X7303333Y-20095333D02*
X7270000Y-20062000D01*
X7236666Y-19995333D01*
X7236666Y-19828666D01*
X7270000Y-19762000D01*
X7303333Y-19728666D01*
X7370000Y-19695333D01*
X7436666Y-19695333D01*
X7536666Y-19728666D01*
X7936666Y-20128666D01*
X7936666Y-19695333D01*
X7236666Y-19262000D02*
X7236666Y-19195333D01*
X7270000Y-19128666D01*
X7303333Y-19095333D01*
X7370000Y-19062000D01*
X7503333Y-19028666D01*
X7670000Y-19028666D01*
X7803333Y-19062000D01*
X7870000Y-19095333D01*
X7903333Y-19128666D01*
X7936666Y-19195333D01*
X7936666Y-19262000D01*
X7903333Y-19328666D01*
X7870000Y-19362000D01*
X7803333Y-19395333D01*
X7670000Y-19428666D01*
X7503333Y-19428666D01*
X7370000Y-19395333D01*
X7303333Y-19362000D01*
X7270000Y-19328666D01*
X7236666Y-19262000D01*
X7936666Y-18195333D02*
X7236666Y-18195333D01*
X7736666Y-17962000D01*
X7236666Y-17728666D01*
X7936666Y-17728666D01*
X7936666Y-17395333D02*
X7236666Y-17395333D01*
X7570000Y-17395333D02*
X7570000Y-16995333D01*
X7936666Y-16995333D02*
X7236666Y-16995333D01*
X7470000Y-16728666D02*
X7470000Y-16362000D01*
X7936666Y-16728666D01*
X7936666Y-16362000D01*
X39786000Y-12889666D02*
X39786000Y-12423000D01*
X39786000Y-12189666D02*
X39752666Y-12223000D01*
X39786000Y-12256333D01*
X39819333Y-12223000D01*
X39786000Y-12189666D01*
X39786000Y-12256333D01*
X40086000Y-12856333D02*
X40152666Y-12889666D01*
X40286000Y-12889666D01*
X40352666Y-12856333D01*
X40386000Y-12789666D01*
X40386000Y-12756333D01*
X40352666Y-12689666D01*
X40286000Y-12656333D01*
X40186000Y-12656333D01*
X40119333Y-12623000D01*
X40086000Y-12556333D01*
X40086000Y-12523000D01*
X40119333Y-12456333D01*
X40186000Y-12423000D01*
X40286000Y-12423000D01*
X40352666Y-12456333D01*
X40686000Y-12423000D02*
X40686000Y-13123000D01*
X40686000Y-12456333D02*
X40752666Y-12423000D01*
X40886000Y-12423000D01*
X40952666Y-12456333D01*
X40986000Y-12489666D01*
X41019333Y-12556333D01*
X41019333Y-12756333D01*
X40986000Y-12823000D01*
X40952666Y-12856333D01*
X40886000Y-12889666D01*
X40752666Y-12889666D01*
X40686000Y-12856333D01*
X44116000Y-28510666D02*
X43716000Y-28510666D01*
X43916000Y-28510666D02*
X43916000Y-27810666D01*
X43849333Y-27910666D01*
X43782666Y-27977333D01*
X43716000Y-28010666D01*
X44549333Y-27810666D02*
X44616000Y-27810666D01*
X44682666Y-27844000D01*
X44716000Y-27877333D01*
X44749333Y-27944000D01*
X44782666Y-28077333D01*
X44782666Y-28244000D01*
X44749333Y-28377333D01*
X44716000Y-28444000D01*
X44682666Y-28477333D01*
X44616000Y-28510666D01*
X44549333Y-28510666D01*
X44482666Y-28477333D01*
X44449333Y-28444000D01*
X44416000Y-28377333D01*
X44382666Y-28244000D01*
X44382666Y-28077333D01*
X44416000Y-27944000D01*
X44449333Y-27877333D01*
X44482666Y-27844000D01*
X44549333Y-27810666D01*
X45216000Y-27810666D02*
X45282666Y-27810666D01*
X45349333Y-27844000D01*
X45382666Y-27877333D01*
X45416000Y-27944000D01*
X45449333Y-28077333D01*
X45449333Y-28244000D01*
X45416000Y-28377333D01*
X45382666Y-28444000D01*
X45349333Y-28477333D01*
X45282666Y-28510666D01*
X45216000Y-28510666D01*
X45149333Y-28477333D01*
X45116000Y-28444000D01*
X45082666Y-28377333D01*
X45049333Y-28244000D01*
X45049333Y-28077333D01*
X45082666Y-27944000D01*
X45116000Y-27877333D01*
X45149333Y-27844000D01*
X45216000Y-27810666D01*
X46282666Y-28044000D02*
X46282666Y-28510666D01*
X46282666Y-28110666D02*
X46316000Y-28077333D01*
X46382666Y-28044000D01*
X46482666Y-28044000D01*
X46549333Y-28077333D01*
X46582666Y-28144000D01*
X46582666Y-28510666D01*
X47149333Y-28144000D02*
X46916000Y-28144000D01*
X46916000Y-28510666D02*
X46916000Y-27810666D01*
X47249333Y-27810666D01*
X40956666Y-42053666D02*
X40256666Y-42053666D01*
X40923333Y-42053666D02*
X40956666Y-42120333D01*
X40956666Y-42253666D01*
X40923333Y-42320333D01*
X40890000Y-42353666D01*
X40823333Y-42387000D01*
X40623333Y-42387000D01*
X40556666Y-42353666D01*
X40523333Y-42320333D01*
X40490000Y-42253666D01*
X40490000Y-42120333D01*
X40523333Y-42053666D01*
X40956666Y-41720333D02*
X40490000Y-41720333D01*
X40256666Y-41720333D02*
X40290000Y-41753666D01*
X40323333Y-41720333D01*
X40290000Y-41687000D01*
X40256666Y-41720333D01*
X40323333Y-41720333D01*
X40923333Y-37084000D02*
X40956666Y-37150666D01*
X40956666Y-37284000D01*
X40923333Y-37350666D01*
X40890000Y-37384000D01*
X40823333Y-37417333D01*
X40623333Y-37417333D01*
X40556666Y-37384000D01*
X40523333Y-37350666D01*
X40490000Y-37284000D01*
X40490000Y-37150666D01*
X40523333Y-37084000D01*
X40956666Y-36784000D02*
X40490000Y-36784000D01*
X40256666Y-36784000D02*
X40290000Y-36817333D01*
X40323333Y-36784000D01*
X40290000Y-36750666D01*
X40256666Y-36784000D01*
X40323333Y-36784000D01*
X40617000Y-31246666D02*
X41083666Y-31080000D01*
X40617000Y-30913333D01*
X41050333Y-30346666D02*
X41083666Y-30413333D01*
X41083666Y-30546666D01*
X41050333Y-30613333D01*
X41017000Y-30646666D01*
X40950333Y-30680000D01*
X40750333Y-30680000D01*
X40683666Y-30646666D01*
X40650333Y-30613333D01*
X40617000Y-30546666D01*
X40617000Y-30413333D01*
X40650333Y-30346666D01*
X41050333Y-29746666D02*
X41083666Y-29813333D01*
X41083666Y-29946666D01*
X41050333Y-30013333D01*
X41017000Y-30046666D01*
X40950333Y-30080000D01*
X40750333Y-30080000D01*
X40683666Y-30046666D01*
X40650333Y-30013333D01*
X40617000Y-29946666D01*
X40617000Y-29813333D01*
X40650333Y-29746666D01*
X43180000Y-4699000D02*
X43180000Y-3175000D01*
X43180000Y-12319000D02*
X43180000Y-10541000D01*
X38699333Y-5396666D02*
X38299333Y-5396666D01*
X38499333Y-5396666D02*
X38499333Y-4696666D01*
X38432666Y-4796666D01*
X38366000Y-4863333D01*
X38299333Y-4896666D01*
X39132666Y-4696666D02*
X39199333Y-4696666D01*
X39266000Y-4730000D01*
X39299333Y-4763333D01*
X39332666Y-4830000D01*
X39366000Y-4963333D01*
X39366000Y-5130000D01*
X39332666Y-5263333D01*
X39299333Y-5330000D01*
X39266000Y-5363333D01*
X39199333Y-5396666D01*
X39132666Y-5396666D01*
X39066000Y-5363333D01*
X39032666Y-5330000D01*
X38999333Y-5263333D01*
X38966000Y-5130000D01*
X38966000Y-4963333D01*
X38999333Y-4830000D01*
X39032666Y-4763333D01*
X39066000Y-4730000D01*
X39132666Y-4696666D01*
X39666000Y-5396666D02*
X39666000Y-4696666D01*
X39732666Y-5130000D02*
X39932666Y-5396666D01*
X39932666Y-4930000D02*
X39666000Y-5196666D01*
X35941000Y-9398000D02*
X35560000Y-8890000D01*
X35179000Y-9398000D02*
X35941000Y-9398000D01*
X35560000Y-8890000D02*
X35179000Y-9398000D01*
X35560000Y-8636000D02*
X35560000Y-8890000D01*
X35306000Y-8890000D02*
X35814000Y-8890000D01*
X25701000Y-18477666D02*
X25301000Y-18477666D01*
X25501000Y-18477666D02*
X25501000Y-17777666D01*
X25434333Y-17877666D01*
X25367666Y-17944333D01*
X25301000Y-17977666D01*
X26134333Y-17777666D02*
X26201000Y-17777666D01*
X26267666Y-17811000D01*
X26301000Y-17844333D01*
X26334333Y-17911000D01*
X26367666Y-18044333D01*
X26367666Y-18211000D01*
X26334333Y-18344333D01*
X26301000Y-18411000D01*
X26267666Y-18444333D01*
X26201000Y-18477666D01*
X26134333Y-18477666D01*
X26067666Y-18444333D01*
X26034333Y-18411000D01*
X26001000Y-18344333D01*
X25967666Y-18211000D01*
X25967666Y-18044333D01*
X26001000Y-17911000D01*
X26034333Y-17844333D01*
X26067666Y-17811000D01*
X26134333Y-17777666D01*
X26801000Y-17777666D02*
X26867666Y-17777666D01*
X26934333Y-17811000D01*
X26967666Y-17844333D01*
X27001000Y-17911000D01*
X27034333Y-18044333D01*
X27034333Y-18211000D01*
X27001000Y-18344333D01*
X26967666Y-18411000D01*
X26934333Y-18444333D01*
X26867666Y-18477666D01*
X26801000Y-18477666D01*
X26734333Y-18444333D01*
X26701000Y-18411000D01*
X26667666Y-18344333D01*
X26634333Y-18211000D01*
X26634333Y-18044333D01*
X26667666Y-17911000D01*
X26701000Y-17844333D01*
X26734333Y-17811000D01*
X26801000Y-17777666D01*
X27867666Y-18011000D02*
X27867666Y-18477666D01*
X27867666Y-18077666D02*
X27901000Y-18044333D01*
X27967666Y-18011000D01*
X28067666Y-18011000D01*
X28134333Y-18044333D01*
X28167666Y-18111000D01*
X28167666Y-18477666D01*
X28734333Y-18111000D02*
X28501000Y-18111000D01*
X28501000Y-18477666D02*
X28501000Y-17777666D01*
X28834333Y-17777666D01*
X31455666Y-25397666D02*
X31889000Y-25397666D01*
X31655666Y-25664333D01*
X31755666Y-25664333D01*
X31822333Y-25697666D01*
X31855666Y-25731000D01*
X31889000Y-25797666D01*
X31889000Y-25964333D01*
X31855666Y-26031000D01*
X31822333Y-26064333D01*
X31755666Y-26097666D01*
X31555666Y-26097666D01*
X31489000Y-26064333D01*
X31455666Y-26031000D01*
X32122333Y-25397666D02*
X32555666Y-25397666D01*
X32322333Y-25664333D01*
X32422333Y-25664333D01*
X32489000Y-25697666D01*
X32522333Y-25731000D01*
X32555666Y-25797666D01*
X32555666Y-25964333D01*
X32522333Y-26031000D01*
X32489000Y-26064333D01*
X32422333Y-26097666D01*
X32222333Y-26097666D01*
X32155666Y-26064333D01*
X32122333Y-26031000D01*
X32989000Y-25397666D02*
X33055666Y-25397666D01*
X33122333Y-25431000D01*
X33155666Y-25464333D01*
X33189000Y-25531000D01*
X33222333Y-25664333D01*
X33222333Y-25831000D01*
X33189000Y-25964333D01*
X33155666Y-26031000D01*
X33122333Y-26064333D01*
X33055666Y-26097666D01*
X32989000Y-26097666D01*
X32922333Y-26064333D01*
X32889000Y-26031000D01*
X32855666Y-25964333D01*
X32822333Y-25831000D01*
X32822333Y-25664333D01*
X32855666Y-25531000D01*
X32889000Y-25464333D01*
X32922333Y-25431000D01*
X32989000Y-25397666D01*
X33522333Y-26097666D02*
X33522333Y-25397666D01*
X33589000Y-25831000D02*
X33789000Y-26097666D01*
X33789000Y-25631000D02*
X33522333Y-25897666D01*
X27010666Y-25778666D02*
X27444000Y-25778666D01*
X27210666Y-26045333D01*
X27310666Y-26045333D01*
X27377333Y-26078666D01*
X27410666Y-26112000D01*
X27444000Y-26178666D01*
X27444000Y-26345333D01*
X27410666Y-26412000D01*
X27377333Y-26445333D01*
X27310666Y-26478666D01*
X27110666Y-26478666D01*
X27044000Y-26445333D01*
X27010666Y-26412000D01*
X27677333Y-25778666D02*
X28110666Y-25778666D01*
X27877333Y-26045333D01*
X27977333Y-26045333D01*
X28044000Y-26078666D01*
X28077333Y-26112000D01*
X28110666Y-26178666D01*
X28110666Y-26345333D01*
X28077333Y-26412000D01*
X28044000Y-26445333D01*
X27977333Y-26478666D01*
X27777333Y-26478666D01*
X27710666Y-26445333D01*
X27677333Y-26412000D01*
X28544000Y-25778666D02*
X28610666Y-25778666D01*
X28677333Y-25812000D01*
X28710666Y-25845333D01*
X28744000Y-25912000D01*
X28777333Y-26045333D01*
X28777333Y-26212000D01*
X28744000Y-26345333D01*
X28710666Y-26412000D01*
X28677333Y-26445333D01*
X28610666Y-26478666D01*
X28544000Y-26478666D01*
X28477333Y-26445333D01*
X28444000Y-26412000D01*
X28410666Y-26345333D01*
X28377333Y-26212000D01*
X28377333Y-26045333D01*
X28410666Y-25912000D01*
X28444000Y-25845333D01*
X28477333Y-25812000D01*
X28544000Y-25778666D01*
X29077333Y-26478666D02*
X29077333Y-25778666D01*
X29144000Y-26212000D02*
X29344000Y-26478666D01*
X29344000Y-26012000D02*
X29077333Y-26278666D01*
X7938333Y-25915000D02*
X7905000Y-25881666D01*
X7871666Y-25815000D01*
X7871666Y-25648333D01*
X7905000Y-25581666D01*
X7938333Y-25548333D01*
X8005000Y-25515000D01*
X8071666Y-25515000D01*
X8171666Y-25548333D01*
X8571666Y-25948333D01*
X8571666Y-25515000D01*
X7938333Y-25248333D02*
X7905000Y-25215000D01*
X7871666Y-25148333D01*
X7871666Y-24981666D01*
X7905000Y-24915000D01*
X7938333Y-24881666D01*
X8005000Y-24848333D01*
X8071666Y-24848333D01*
X8171666Y-24881666D01*
X8571666Y-25281666D01*
X8571666Y-24848333D01*
X8105000Y-24548333D02*
X8805000Y-24548333D01*
X8138333Y-24548333D02*
X8105000Y-24481666D01*
X8105000Y-24348333D01*
X8138333Y-24281666D01*
X8171666Y-24248333D01*
X8238333Y-24215000D01*
X8438333Y-24215000D01*
X8505000Y-24248333D01*
X8538333Y-24281666D01*
X8571666Y-24348333D01*
X8571666Y-24481666D01*
X8538333Y-24548333D01*
X8205000Y-23681666D02*
X8205000Y-23915000D01*
X8571666Y-23915000D02*
X7871666Y-23915000D01*
X7871666Y-23581666D01*
X25590523Y-35504380D02*
X25019095Y-35504380D01*
X25304809Y-35504380D02*
X25304809Y-34504380D01*
X25209571Y-34647238D01*
X25114333Y-34742476D01*
X25019095Y-34790095D01*
X26495285Y-34504380D02*
X26019095Y-34504380D01*
X25971476Y-34980571D01*
X26019095Y-34932952D01*
X26114333Y-34885333D01*
X26352428Y-34885333D01*
X26447666Y-34932952D01*
X26495285Y-34980571D01*
X26542904Y-35075809D01*
X26542904Y-35313904D01*
X26495285Y-35409142D01*
X26447666Y-35456761D01*
X26352428Y-35504380D01*
X26114333Y-35504380D01*
X26019095Y-35456761D01*
X25971476Y-35409142D01*
X14128714Y-2738380D02*
X13557285Y-2738380D01*
X13843000Y-2738380D02*
X13843000Y-1738380D01*
X13747761Y-1881238D01*
X13652523Y-1976476D01*
X13557285Y-2024095D01*
X15172666Y-39474000D02*
X15172666Y-39940666D01*
X15006000Y-39207333D02*
X14839333Y-39707333D01*
X15272666Y-39707333D01*
X15472666Y-39240666D02*
X15939333Y-39240666D01*
X15639333Y-39940666D01*
X17039333Y-39474000D02*
X17039333Y-39940666D01*
X16739333Y-39474000D02*
X16739333Y-39840666D01*
X16772666Y-39907333D01*
X16839333Y-39940666D01*
X16939333Y-39940666D01*
X17006000Y-39907333D01*
X17039333Y-39874000D01*
X17606000Y-39574000D02*
X17372666Y-39574000D01*
X17372666Y-39940666D02*
X17372666Y-39240666D01*
X17706000Y-39240666D01*
X28956000Y-39624000D02*
X29210000Y-39624000D01*
X28956000Y-40005000D02*
X28575000Y-39751000D01*
X28956000Y-39243000D02*
X28956000Y-40005000D01*
X28575000Y-39497000D02*
X28956000Y-39243000D01*
X28575000Y-40005000D02*
X28575000Y-39497000D01*
X28575000Y-39243000D02*
X28575000Y-40005000D01*
X33571666Y-41464666D02*
X33171666Y-41464666D01*
X33371666Y-41464666D02*
X33371666Y-40764666D01*
X33305000Y-40864666D01*
X33238333Y-40931333D01*
X33171666Y-40964666D01*
X33871666Y-41464666D02*
X33871666Y-40764666D01*
X33938333Y-41198000D02*
X34138333Y-41464666D01*
X34138333Y-40998000D02*
X33871666Y-41264666D01*
X23146666Y-41464666D02*
X22746666Y-41464666D01*
X22946666Y-41464666D02*
X22946666Y-40764666D01*
X22880000Y-40864666D01*
X22813333Y-40931333D01*
X22746666Y-40964666D01*
X23580000Y-40764666D02*
X23646666Y-40764666D01*
X23713333Y-40798000D01*
X23746666Y-40831333D01*
X23780000Y-40898000D01*
X23813333Y-41031333D01*
X23813333Y-41198000D01*
X23780000Y-41331333D01*
X23746666Y-41398000D01*
X23713333Y-41431333D01*
X23646666Y-41464666D01*
X23580000Y-41464666D01*
X23513333Y-41431333D01*
X23480000Y-41398000D01*
X23446666Y-41331333D01*
X23413333Y-41198000D01*
X23413333Y-41031333D01*
X23446666Y-40898000D01*
X23480000Y-40831333D01*
X23513333Y-40798000D01*
X23580000Y-40764666D01*
X24246666Y-40764666D02*
X24313333Y-40764666D01*
X24380000Y-40798000D01*
X24413333Y-40831333D01*
X24446666Y-40898000D01*
X24480000Y-41031333D01*
X24480000Y-41198000D01*
X24446666Y-41331333D01*
X24413333Y-41398000D01*
X24380000Y-41431333D01*
X24313333Y-41464666D01*
X24246666Y-41464666D01*
X24180000Y-41431333D01*
X24146666Y-41398000D01*
X24113333Y-41331333D01*
X24080000Y-41198000D01*
X24080000Y-41031333D01*
X24113333Y-40898000D01*
X24146666Y-40831333D01*
X24180000Y-40798000D01*
X24246666Y-40764666D01*
X24780000Y-40998000D02*
X24780000Y-41464666D01*
X24780000Y-41064666D02*
X24813333Y-41031333D01*
X24880000Y-40998000D01*
X24980000Y-40998000D01*
X25046666Y-41031333D01*
X25080000Y-41098000D01*
X25080000Y-41464666D01*
X25313333Y-40998000D02*
X25580000Y-40998000D01*
X25413333Y-41464666D02*
X25413333Y-40864666D01*
X25446666Y-40798000D01*
X25513333Y-40764666D01*
X25580000Y-40764666D01*
X14636904Y-41346428D02*
X15398809Y-41346428D01*
X15017857Y-41727380D02*
X15017857Y-40965476D01*
X16351190Y-40727380D02*
X15875000Y-40727380D01*
X15827380Y-41203571D01*
X15875000Y-41155952D01*
X15970238Y-41108333D01*
X16208333Y-41108333D01*
X16303571Y-41155952D01*
X16351190Y-41203571D01*
X16398809Y-41298809D01*
X16398809Y-41536904D01*
X16351190Y-41632142D01*
X16303571Y-41679761D01*
X16208333Y-41727380D01*
X15970238Y-41727380D01*
X15875000Y-41679761D01*
X15827380Y-41632142D01*
X16732142Y-41060714D02*
X16970238Y-41727380D01*
X17208333Y-41060714D01*
X41624285Y-13644619D02*
X41671904Y-13597000D01*
X41767142Y-13549380D01*
X42005238Y-13549380D01*
X42100476Y-13597000D01*
X42148095Y-13644619D01*
X42195714Y-13739857D01*
X42195714Y-13835095D01*
X42148095Y-13977952D01*
X41576666Y-14549380D01*
X42195714Y-14549380D01*
X35718714Y-14422380D02*
X35147285Y-14422380D01*
X35433000Y-14422380D02*
X35433000Y-13422380D01*
X35337761Y-13565238D01*
X35242523Y-13660476D01*
X35147285Y-13708095D01*
X25177000Y-2057333D02*
X25143666Y-2124000D01*
X25143666Y-2224000D01*
X25177000Y-2324000D01*
X25243666Y-2390666D01*
X25310333Y-2424000D01*
X25443666Y-2457333D01*
X25543666Y-2457333D01*
X25677000Y-2424000D01*
X25743666Y-2390666D01*
X25810333Y-2324000D01*
X25843666Y-2224000D01*
X25843666Y-2157333D01*
X25810333Y-2057333D01*
X25777000Y-2024000D01*
X25543666Y-2024000D01*
X25543666Y-2157333D01*
X25843666Y-1324000D02*
X25510333Y-1557333D01*
X25843666Y-1724000D02*
X25143666Y-1724000D01*
X25143666Y-1457333D01*
X25177000Y-1390666D01*
X25210333Y-1357333D01*
X25277000Y-1324000D01*
X25377000Y-1324000D01*
X25443666Y-1357333D01*
X25477000Y-1390666D01*
X25510333Y-1457333D01*
X25510333Y-1724000D01*
X25843666Y-1024000D02*
X25143666Y-1024000D01*
X25843666Y-624000D01*
X25143666Y-624000D01*
X27533666Y-3618666D02*
X27533666Y-3152000D01*
X27533666Y-3285333D02*
X27567000Y-3218666D01*
X27600333Y-3185333D01*
X27667000Y-3152000D01*
X27733666Y-3152000D01*
X27867000Y-3152000D02*
X28133666Y-3152000D01*
X27967000Y-2918666D02*
X27967000Y-3518666D01*
X28000333Y-3585333D01*
X28067000Y-3618666D01*
X28133666Y-3618666D01*
X28333666Y-3585333D02*
X28400333Y-3618666D01*
X28533666Y-3618666D01*
X28600333Y-3585333D01*
X28633666Y-3518666D01*
X28633666Y-3485333D01*
X28600333Y-3418666D01*
X28533666Y-3385333D01*
X28433666Y-3385333D01*
X28367000Y-3352000D01*
X28333666Y-3285333D01*
X28333666Y-3252000D01*
X28367000Y-3185333D01*
X28433666Y-3152000D01*
X28533666Y-3152000D01*
X28600333Y-3185333D01*
X29384666Y-3618666D02*
X29384666Y-3152000D01*
X29384666Y-3285333D02*
X29418000Y-3218666D01*
X29451333Y-3185333D01*
X29518000Y-3152000D01*
X29584666Y-3152000D01*
X29751333Y-3618666D02*
X30118000Y-3152000D01*
X29751333Y-3152000D02*
X30118000Y-3618666D01*
X31968333Y-3152000D02*
X32235000Y-3152000D01*
X32068333Y-2918666D02*
X32068333Y-3518666D01*
X32101666Y-3585333D01*
X32168333Y-3618666D01*
X32235000Y-3618666D01*
X32401666Y-3618666D02*
X32768333Y-3152000D01*
X32401666Y-3152000D02*
X32768333Y-3618666D01*
X34698000Y-2918666D02*
X34364666Y-2918666D01*
X34331333Y-3252000D01*
X34364666Y-3218666D01*
X34431333Y-3185333D01*
X34598000Y-3185333D01*
X34664666Y-3218666D01*
X34698000Y-3252000D01*
X34731333Y-3318666D01*
X34731333Y-3485333D01*
X34698000Y-3552000D01*
X34664666Y-3585333D01*
X34598000Y-3618666D01*
X34431333Y-3618666D01*
X34364666Y-3585333D01*
X34331333Y-3552000D01*
X34964666Y-3152000D02*
X35131333Y-3618666D01*
X35298000Y-3152000D01*
X40029666Y-3152000D02*
X40029666Y-3718666D01*
X39996333Y-3785333D01*
X39963000Y-3818666D01*
X39896333Y-3852000D01*
X39796333Y-3852000D01*
X39729666Y-3818666D01*
X40029666Y-3585333D02*
X39963000Y-3618666D01*
X39829666Y-3618666D01*
X39763000Y-3585333D01*
X39729666Y-3552000D01*
X39696333Y-3485333D01*
X39696333Y-3285333D01*
X39729666Y-3218666D01*
X39763000Y-3185333D01*
X39829666Y-3152000D01*
X39963000Y-3152000D01*
X40029666Y-3185333D01*
X40363000Y-3152000D02*
X40363000Y-3618666D01*
X40363000Y-3218666D02*
X40396333Y-3185333D01*
X40463000Y-3152000D01*
X40563000Y-3152000D01*
X40629666Y-3185333D01*
X40663000Y-3252000D01*
X40663000Y-3618666D01*
X41296333Y-3618666D02*
X41296333Y-2918666D01*
X41296333Y-3585333D02*
X41229666Y-3618666D01*
X41096333Y-3618666D01*
X41029666Y-3585333D01*
X40996333Y-3552000D01*
X40963000Y-3485333D01*
X40963000Y-3285333D01*
X40996333Y-3218666D01*
X41029666Y-3185333D01*
X41096333Y-3152000D01*
X41229666Y-3152000D01*
X41296333Y-3185333D01*
X41860000Y-2107333D02*
X41893333Y-2007333D01*
X41926666Y-1974000D01*
X41993333Y-1940666D01*
X42093333Y-1940666D01*
X42160000Y-1974000D01*
X42193333Y-2007333D01*
X42226666Y-2074000D01*
X42226666Y-2340666D01*
X41526666Y-2340666D01*
X41526666Y-2107333D01*
X41560000Y-2040666D01*
X41593333Y-2007333D01*
X41660000Y-1974000D01*
X41726666Y-1974000D01*
X41793333Y-2007333D01*
X41826666Y-2040666D01*
X41860000Y-2107333D01*
X41860000Y-2340666D01*
X42226666Y-1307333D02*
X42226666Y-1640666D01*
X41526666Y-1640666D01*
X42226666Y-1074000D02*
X41526666Y-1074000D01*
X42226666Y-674000D02*
X41826666Y-974000D01*
X41526666Y-674000D02*
X41926666Y-1074000D01*
X13970000Y-30099000D02*
X13843000Y-34671000D01*
X6350000Y-28829000D02*
X11811000Y-28829000D01*
X762000Y-28829000D02*
X2794000Y-28829000D01*
X10287000Y-15875000D02*
X1016000Y-15875000D01*
X10287000Y-1397000D02*
X10287000Y-15875000D01*
X-6800715Y-21098333D02*
X-7467381Y-21098333D01*
X-6419762Y-20860238D02*
X-7134048Y-20622142D01*
X-7134048Y-21241190D01*
X-7467381Y-21669761D02*
X-7467381Y-21860238D01*
X-7419762Y-21955476D01*
X-7372143Y-22003095D01*
X-7229286Y-22098333D01*
X-7038810Y-22145952D01*
X-6657858Y-22145952D01*
X-6562620Y-22098333D01*
X-6515000Y-22050714D01*
X-6467381Y-21955476D01*
X-6467381Y-21765000D01*
X-6515000Y-21669761D01*
X-6562620Y-21622142D01*
X-6657858Y-21574523D01*
X-6895953Y-21574523D01*
X-6991191Y-21622142D01*
X-7038810Y-21669761D01*
X-7086429Y-21765000D01*
X-7086429Y-21955476D01*
X-7038810Y-22050714D01*
X-6991191Y-22098333D01*
X-6895953Y-22145952D01*
X-7372143Y-22574523D02*
X-7419762Y-22622142D01*
X-7467381Y-22574523D01*
X-7419762Y-22526904D01*
X-7372143Y-22574523D01*
X-7467381Y-22574523D01*
X-6467381Y-23526904D02*
X-6467381Y-23050714D01*
X-6943572Y-23003095D01*
X-6895953Y-23050714D01*
X-6848334Y-23145952D01*
X-6848334Y-23384047D01*
X-6895953Y-23479285D01*
X-6943572Y-23526904D01*
X-7038810Y-23574523D01*
X-7276905Y-23574523D01*
X-7372143Y-23526904D01*
X-7419762Y-23479285D01*
X-7467381Y-23384047D01*
X-7467381Y-23145952D01*
X-7419762Y-23050714D01*
X-7372143Y-23003095D01*
X-6467381Y-23907857D02*
X-6467381Y-24526904D01*
X-6848334Y-24193571D01*
X-6848334Y-24336428D01*
X-6895953Y-24431666D01*
X-6943572Y-24479285D01*
X-7038810Y-24526904D01*
X-7276905Y-24526904D01*
X-7372143Y-24479285D01*
X-7419762Y-24431666D01*
X-7467381Y-24336428D01*
X-7467381Y-24050714D01*
X-7419762Y-23955476D01*
X-7372143Y-23907857D01*
X-6467381Y-25145952D02*
X-6467381Y-25241190D01*
X-6515000Y-25336428D01*
X-6562620Y-25384047D01*
X-6657858Y-25431666D01*
X-6848334Y-25479285D01*
X-7086429Y-25479285D01*
X-7276905Y-25431666D01*
X-7372143Y-25384047D01*
X-7419762Y-25336428D01*
X-7467381Y-25241190D01*
X-7467381Y-25145952D01*
X-7419762Y-25050714D01*
X-7372143Y-25003095D01*
X-7276905Y-24955476D01*
X-7086429Y-24907857D01*
X-6848334Y-24907857D01*
X-6657858Y-24955476D01*
X-6562620Y-25003095D01*
X-6515000Y-25050714D01*
X-6467381Y-25145952D01*
X-7467381Y-26669761D02*
X-6800715Y-26669761D01*
X-6895953Y-26669761D02*
X-6848334Y-26717380D01*
X-6800715Y-26812619D01*
X-6800715Y-26955476D01*
X-6848334Y-27050714D01*
X-6943572Y-27098333D01*
X-7467381Y-27098333D01*
X-6943572Y-27098333D02*
X-6848334Y-27145952D01*
X-6800715Y-27241190D01*
X-6800715Y-27384047D01*
X-6848334Y-27479285D01*
X-6943572Y-27526904D01*
X-7467381Y-27526904D01*
X-7467381Y-28003095D02*
X-6800715Y-28003095D01*
X-6895953Y-28003095D02*
X-6848334Y-28050714D01*
X-6800715Y-28145952D01*
X-6800715Y-28288809D01*
X-6848334Y-28384047D01*
X-6943572Y-28431666D01*
X-7467381Y-28431666D01*
X-6943572Y-28431666D02*
X-6848334Y-28479285D01*
X-6800715Y-28574523D01*
X-6800715Y-28717380D01*
X-6848334Y-28812619D01*
X-6943572Y-28860238D01*
X-7467381Y-28860238D01*
X-5715000Y0D02*
X-5715000Y-49530000D01*
X0Y0D02*
X-6301421Y0D01*
X0Y-49530000D02*
X-6301421Y-49530000D01*
X-5715000Y-49530000D02*
X-6301421Y-48403496D01*
X-5715000Y-49530000D02*
X-5128579Y-48403496D01*
X-5715000Y0D02*
X-6301421Y-1126504D01*
X-5715000Y0D02*
X-5128579Y-1126504D01*
X21098333Y7864286D02*
X21098333Y7197620D01*
X20860238Y8245239D02*
X20622142Y7530953D01*
X21241190Y7530953D01*
X21669761Y7197620D02*
X21860238Y7197620D01*
X21955476Y7245239D01*
X22003095Y7292858D01*
X22098333Y7435715D01*
X22145952Y7626191D01*
X22145952Y8007143D01*
X22098333Y8102381D01*
X22050714Y8150000D01*
X21955476Y8197620D01*
X21765000Y8197620D01*
X21669761Y8150000D01*
X21622142Y8102381D01*
X21574523Y8007143D01*
X21574523Y7769048D01*
X21622142Y7673810D01*
X21669761Y7626191D01*
X21765000Y7578572D01*
X21955476Y7578572D01*
X22050714Y7626191D01*
X22098333Y7673810D01*
X22145952Y7769048D01*
X22574523Y7292858D02*
X22622142Y7245239D01*
X22574523Y7197620D01*
X22526904Y7245239D01*
X22574523Y7292858D01*
X22574523Y7197620D01*
X23526904Y8197620D02*
X23050714Y8197620D01*
X23003095Y7721429D01*
X23050714Y7769048D01*
X23145952Y7816667D01*
X23384047Y7816667D01*
X23479285Y7769048D01*
X23526904Y7721429D01*
X23574523Y7626191D01*
X23574523Y7388096D01*
X23526904Y7292858D01*
X23479285Y7245239D01*
X23384047Y7197620D01*
X23145952Y7197620D01*
X23050714Y7245239D01*
X23003095Y7292858D01*
X23907857Y8197620D02*
X24526904Y8197620D01*
X24193571Y7816667D01*
X24336428Y7816667D01*
X24431666Y7769048D01*
X24479285Y7721429D01*
X24526904Y7626191D01*
X24526904Y7388096D01*
X24479285Y7292858D01*
X24431666Y7245239D01*
X24336428Y7197620D01*
X24050714Y7197620D01*
X23955476Y7245239D01*
X23907857Y7292858D01*
X25145952Y8197620D02*
X25241190Y8197620D01*
X25336428Y8150000D01*
X25384047Y8102381D01*
X25431666Y8007143D01*
X25479285Y7816667D01*
X25479285Y7578572D01*
X25431666Y7388096D01*
X25384047Y7292858D01*
X25336428Y7245239D01*
X25241190Y7197620D01*
X25145952Y7197620D01*
X25050714Y7245239D01*
X25003095Y7292858D01*
X24955476Y7388096D01*
X24907857Y7578572D01*
X24907857Y7816667D01*
X24955476Y8007143D01*
X25003095Y8102381D01*
X25050714Y8150000D01*
X25145952Y8197620D01*
X26669761Y7197620D02*
X26669761Y7864286D01*
X26669761Y7769048D02*
X26717380Y7816667D01*
X26812619Y7864286D01*
X26955476Y7864286D01*
X27050714Y7816667D01*
X27098333Y7721429D01*
X27098333Y7197620D01*
X27098333Y7721429D02*
X27145952Y7816667D01*
X27241190Y7864286D01*
X27384047Y7864286D01*
X27479285Y7816667D01*
X27526904Y7721429D01*
X27526904Y7197620D01*
X28003095Y7197620D02*
X28003095Y7864286D01*
X28003095Y7769048D02*
X28050714Y7816667D01*
X28145952Y7864286D01*
X28288809Y7864286D01*
X28384047Y7816667D01*
X28431666Y7721429D01*
X28431666Y7197620D01*
X28431666Y7721429D02*
X28479285Y7816667D01*
X28574523Y7864286D01*
X28717380Y7864286D01*
X28812619Y7816667D01*
X28860238Y7721429D01*
X28860238Y7197620D01*
X0Y6350000D02*
X49530000Y6350000D01*
X0Y0D02*
X0Y6936421D01*
X49530000Y0D02*
X49530000Y6936421D01*
X49530000Y6350000D02*
X48403496Y5763579D01*
X49530000Y6350000D02*
X48403496Y6936421D01*
X0Y6350000D02*
X1126504Y5763579D01*
X0Y6350000D02*
X1126504Y6936421D01*
X42712803Y-6718000D02*
G75*
G03X42712803Y-6718000I-89803J0D01*
G01*
X42851953Y-6718000D02*
G75*
G03X42851953Y-6718000I-228953J0D01*
G01*
D12*
X43171000Y-1805000D02*
X43171000Y-6805000D01*
X48171000Y-1805000D02*
X48171000Y-6805000D01*
D10*
X42761803Y-14859000D02*
G75*
G03X42761803Y-14859000I-89803J0D01*
G01*
X42900953Y-14859000D02*
G75*
G03X42900953Y-14859000I-228953J0D01*
G01*
D12*
X43220000Y-9946000D02*
X43220000Y-14946000D01*
X48220000Y-9946000D02*
X48220000Y-14946000D01*
D10*
X42761803Y-22987000D02*
G75*
G03X42761803Y-22987000I-89803J0D01*
G01*
X42900953Y-22987000D02*
G75*
G03X42900953Y-22987000I-228953J0D01*
G01*
D12*
X43220000Y-18074000D02*
X43220000Y-23074000D01*
X48220000Y-18074000D02*
X48220000Y-23074000D01*
D13*
X26035000Y-3175000D02*
X26035000Y-1905000D01*
X27305000Y-3175000D02*
X26035000Y-3175000D01*
X40385000Y-862071D02*
X40385000Y-465000D01*
X39625000Y-862071D02*
X39625000Y-465000D01*
X40385000Y8195000D02*
X40385000Y2195000D01*
X39625000Y8195000D02*
X40385000Y8195000D01*
X39625000Y2195000D02*
X39625000Y8195000D01*
X38735000Y-465000D02*
X38735000Y2195000D01*
X37845000Y-862071D02*
X37845000Y-465000D01*
X37085000Y-862071D02*
X37085000Y-465000D01*
X37845000Y8195000D02*
X37845000Y2195000D01*
X37085000Y8195000D02*
X37845000Y8195000D01*
X37085000Y2195000D02*
X37085000Y8195000D01*
X36195000Y-465000D02*
X36195000Y2195000D01*
X35305000Y-862071D02*
X35305000Y-465000D01*
X34545000Y-862071D02*
X34545000Y-465000D01*
X35305000Y8195000D02*
X35305000Y2195000D01*
X34545000Y8195000D02*
X35305000Y8195000D01*
X34545000Y2195000D02*
X34545000Y8195000D01*
X33655000Y-465000D02*
X33655000Y2195000D01*
X32765000Y-862071D02*
X32765000Y-465000D01*
X32005000Y-862071D02*
X32005000Y-465000D01*
X32765000Y8195000D02*
X32765000Y2195000D01*
X32005000Y8195000D02*
X32765000Y8195000D01*
X32005000Y2195000D02*
X32005000Y8195000D01*
X31115000Y-465000D02*
X31115000Y2195000D01*
X30225000Y-862071D02*
X30225000Y-465000D01*
X29465000Y-862071D02*
X29465000Y-465000D01*
X30225000Y8195000D02*
X30225000Y2195000D01*
X29465000Y8195000D02*
X30225000Y8195000D01*
X29465000Y2195000D02*
X29465000Y8195000D01*
X28575000Y-465000D02*
X28575000Y2195000D01*
X27685000Y-795000D02*
X27685000Y-465000D01*
X26925000Y-795000D02*
X26925000Y-465000D01*
X27585000Y2195000D02*
X27585000Y8195000D01*
X27465000Y2195000D02*
X27465000Y8195000D01*
X27345000Y2195000D02*
X27345000Y8195000D01*
X27225000Y2195000D02*
X27225000Y8195000D01*
X27105000Y2195000D02*
X27105000Y8195000D01*
X26985000Y2195000D02*
X26985000Y8195000D01*
X27685000Y8195000D02*
X27685000Y2195000D01*
X26925000Y8195000D02*
X27685000Y8195000D01*
X26925000Y2195000D02*
X26925000Y8195000D01*
X25975000Y2195000D02*
X25975000Y-465000D01*
X41335000Y2195000D02*
X25975000Y2195000D01*
X41335000Y-465000D02*
X41335000Y2195000D01*
X25975000Y-465000D02*
X41335000Y-465000D01*
X15240000Y-49530000D02*
X25400000Y-49530000D01*
X15240000Y-41910000D02*
X15240000Y-49530000D01*
X25400000Y-41910000D02*
X15240000Y-41910000D01*
X25400000Y-49530000D02*
X25400000Y-41910000D01*
X25400000Y-48260000D02*
X15240000Y-48260000D01*
X40210000Y-42846000D02*
X40210000Y-48046000D01*
X26210000Y-48046000D02*
X26210000Y-42846000D01*
X28260000Y-42096000D02*
X38160000Y-42096000D01*
X38160000Y-48796000D02*
X28260000Y-48796000D01*
X25910000Y-42446000D02*
X25910000Y-41146000D01*
X25910000Y-41146000D02*
X27210000Y-41146000D01*
X33012748Y-27888000D02*
X33535252Y-27888000D01*
X33012748Y-26468000D02*
X33535252Y-26468000D01*
X28440748Y-25348000D02*
X28963252Y-25348000D01*
X28440748Y-23928000D02*
X28963252Y-23928000D01*
X24376748Y-38914000D02*
X24899252Y-38914000D01*
X24376748Y-40334000D02*
X24899252Y-40334000D01*
D12*
X31750000Y-30988000D02*
G75*
G03X31750000Y-30988000I-1270000J0D01*
G01*
X32019240Y-33528000D02*
X28940760Y-33528000D01*
X33020000Y-29748480D02*
X33020000Y-32227520D01*
X28940760Y-28448000D02*
X32019240Y-28448000D01*
X27940000Y-32227520D02*
X27940000Y-29718000D01*
D13*
X5428064Y-33888000D02*
X4223936Y-33888000D01*
X5428064Y-35708000D02*
X4223936Y-35708000D01*
X5428064Y-30332000D02*
X4223936Y-30332000D01*
X5428064Y-32152000D02*
X4223936Y-32152000D01*
X5428064Y-37698000D02*
X4223936Y-37698000D01*
X5428064Y-39518000D02*
X4223936Y-39518000D01*
X10466000Y-23233748D02*
X10466000Y-23756252D01*
X11886000Y-23233748D02*
X11886000Y-23756252D01*
X7097000Y-20216000D02*
G75*
G03X2047000Y-20216000I-2525000J0D01*
G01*
X7097000Y-26466000D02*
G75*
G02X2047000Y-26466000I-2525000J0D01*
G01*
X7097000Y-26466000D02*
X7097000Y-20216000D01*
X2047000Y-26466000D02*
X2047000Y-20216000D01*
D12*
X6604000Y-12954000D02*
G75*
G03X6604000Y-12954000I-1270000J0D01*
G01*
X6873240Y-15494000D02*
X3794760Y-15494000D01*
X7874000Y-11714480D02*
X7874000Y-14193520D01*
X3794760Y-10414000D02*
X6873240Y-10414000D01*
X2794000Y-14193520D02*
X2794000Y-11684000D01*
X6604000Y-5080000D02*
G75*
G03X6604000Y-5080000I-1270000J0D01*
G01*
X6873240Y-7620000D02*
X3794760Y-7620000D01*
X7874000Y-3840480D02*
X7874000Y-6319520D01*
X3794760Y-2540000D02*
X6873240Y-2540000D01*
X2794000Y-6319520D02*
X2794000Y-3810000D01*
D13*
X36060748Y-5536000D02*
X36583252Y-5536000D01*
X36060748Y-4116000D02*
X36583252Y-4116000D01*
X33266748Y-38914000D02*
X33789252Y-38914000D01*
X33266748Y-40334000D02*
X33789252Y-40334000D01*
X31055000Y-5655000D02*
X32385000Y-5655000D01*
X31055000Y-6985000D02*
X31055000Y-5655000D01*
X31055000Y-8255000D02*
X33715000Y-8255000D01*
X33715000Y-8255000D02*
X33715000Y-23555000D01*
X31055000Y-8255000D02*
X31055000Y-23555000D01*
X31055000Y-23555000D02*
X33715000Y-23555000D01*
X36135000Y-23435000D02*
X37465000Y-23435000D01*
X36135000Y-24765000D02*
X36135000Y-23435000D01*
X36135000Y-26035000D02*
X38795000Y-26035000D01*
X38795000Y-26035000D02*
X38795000Y-38795000D01*
X36135000Y-26035000D02*
X36135000Y-38795000D01*
X36135000Y-38795000D02*
X38795000Y-38795000D01*
X13658000Y-38607538D02*
G75*
G02X8108000Y-40152830I-2990000J-462D01*
G01*
X13658000Y-38608462D02*
G75*
G03X8108000Y-37063170I-2990000J462D01*
G01*
X13168000Y-38608000D02*
G75*
G03X13168000Y-38608000I-2500000J0D01*
G01*
X8108000Y-37063000D02*
X8108000Y-40153000D01*
X13658000Y-32003538D02*
G75*
G02X8108000Y-33548830I-2990000J-462D01*
G01*
X13658000Y-32004462D02*
G75*
G03X8108000Y-30459170I-2990000J462D01*
G01*
X13168000Y-32004000D02*
G75*
G03X13168000Y-32004000I-2500000J0D01*
G01*
X8108000Y-30459000D02*
X8108000Y-33549000D01*
X36410000Y-7644000D02*
X36410000Y-10194000D01*
X34710000Y-7644000D02*
X34710000Y-10194000D01*
X36410000Y-7644000D02*
X34710000Y-7644000D01*
X29956000Y-38664000D02*
X27096000Y-38664000D01*
X27096000Y-38664000D02*
X27096000Y-40584000D01*
X27096000Y-40584000D02*
X29956000Y-40584000D01*
X13658000Y-45211538D02*
G75*
G02X8108000Y-46756830I-2990000J-462D01*
G01*
X13658000Y-45212462D02*
G75*
G03X8108000Y-43667170I-2990000J462D01*
G01*
X13168000Y-45212000D02*
G75*
G03X13168000Y-45212000I-2500000J0D01*
G01*
X8108000Y-43667000D02*
X8108000Y-46757000D01*
X8434000Y-21201748D02*
X8434000Y-21724252D01*
X9854000Y-21201748D02*
X9854000Y-21724252D01*
X13791000Y-25788252D02*
X13791000Y-25265748D01*
X12371000Y-25788252D02*
X12371000Y-25265748D01*
X46311248Y-27380000D02*
X46833752Y-27380000D01*
X46311248Y-25960000D02*
X46833752Y-25960000D01*
X28186748Y-5536000D02*
X28709252Y-5536000D01*
X28186748Y-4116000D02*
X28709252Y-4116000D01*
X26872000Y-20835252D02*
X26872000Y-20312748D01*
X25452000Y-20835252D02*
X25452000Y-20312748D01*
X24698000Y-515000D02*
X14418000Y-515000D01*
X24698000Y-36315000D02*
X24698000Y-515000D01*
X14418000Y-36315000D02*
X24698000Y-36315000D01*
X14418000Y-515000D02*
X14418000Y-36315000D01*
X22208000Y-575000D02*
X20558000Y-575000D01*
X22208000Y-36255000D02*
X22208000Y-575000D01*
X16908000Y-36255000D02*
X22208000Y-36255000D01*
X16908000Y-575000D02*
X16908000Y-36255000D01*
X18558000Y-575000D02*
X16908000Y-575000D01*
X20558000Y-575000D02*
G75*
G02X18558000Y-575000I-1000000J0D01*
G01*
X41275000Y-29210000D02*
X41275000Y-49530000D01*
X48895000Y-29210000D02*
X48895000Y-49530000D01*
X42545000Y-49530000D02*
X42545000Y-29210000D01*
X41275000Y-49530000D02*
X48895000Y-49530000D01*
X48895000Y-29210000D02*
X41275000Y-29210000D01*
X10735000Y-575000D02*
X12065000Y-575000D01*
X10735000Y-1905000D02*
X10735000Y-575000D01*
X10735000Y-3175000D02*
X13395000Y-3175000D01*
X13395000Y-3175000D02*
X13395000Y-21015000D01*
X10735000Y-3175000D02*
X10735000Y-21015000D01*
X10735000Y-21015000D02*
X13395000Y-21015000D01*
X36135000Y-13275000D02*
X37465000Y-13275000D01*
X36135000Y-14605000D02*
X36135000Y-13275000D01*
X38735000Y-13275000D02*
X41335000Y-13275000D01*
X38735000Y-15875000D02*
X38735000Y-13275000D01*
X36135000Y-15875000D02*
X38735000Y-15875000D01*
X41335000Y-13275000D02*
X41335000Y-21015000D01*
X36135000Y-15875000D02*
X36135000Y-21015000D01*
X36135000Y-21015000D02*
X41335000Y-21015000D01*
X36780199Y-7495000D02*
X36780199Y-7895000D01*
X36580199Y-7695000D02*
X36980199Y-7695000D01*
X40931000Y-8520000D02*
X40931000Y-9260000D01*
X40891000Y-8353000D02*
X40891000Y-9427000D01*
X40851000Y-8226000D02*
X40851000Y-9554000D01*
X40811000Y-8122000D02*
X40811000Y-9658000D01*
X40771000Y-8031000D02*
X40771000Y-9749000D01*
X40731000Y-7950000D02*
X40731000Y-9830000D01*
X40691000Y-7877000D02*
X40691000Y-9903000D01*
X40651000Y-7810000D02*
X40651000Y-9970000D01*
X40611000Y-7748000D02*
X40611000Y-10032000D01*
X40571000Y-7690000D02*
X40571000Y-10090000D01*
X40531000Y-7636000D02*
X40531000Y-10144000D01*
X40491000Y-7586000D02*
X40491000Y-10194000D01*
X40451000Y-7539000D02*
X40451000Y-10241000D01*
X40411000Y-9730000D02*
X40411000Y-10286000D01*
X40411000Y-7494000D02*
X40411000Y-8050000D01*
X40371000Y-9730000D02*
X40371000Y-10328000D01*
X40371000Y-7452000D02*
X40371000Y-8050000D01*
X40331000Y-9730000D02*
X40331000Y-10368000D01*
X40331000Y-7412000D02*
X40331000Y-8050000D01*
X40291000Y-9730000D02*
X40291000Y-10406000D01*
X40291000Y-7374000D02*
X40291000Y-8050000D01*
X40251000Y-9730000D02*
X40251000Y-10442000D01*
X40251000Y-7338000D02*
X40251000Y-8050000D01*
X40211000Y-9730000D02*
X40211000Y-10477000D01*
X40211000Y-7303000D02*
X40211000Y-8050000D01*
X40171000Y-9730000D02*
X40171000Y-10509000D01*
X40171000Y-7271000D02*
X40171000Y-8050000D01*
X40131000Y-9730000D02*
X40131000Y-10540000D01*
X40131000Y-7240000D02*
X40131000Y-8050000D01*
X40091000Y-9730000D02*
X40091000Y-10570000D01*
X40091000Y-7210000D02*
X40091000Y-8050000D01*
X40051000Y-9730000D02*
X40051000Y-10598000D01*
X40051000Y-7182000D02*
X40051000Y-8050000D01*
X40011000Y-9730000D02*
X40011000Y-10625000D01*
X40011000Y-7155000D02*
X40011000Y-8050000D01*
X39971000Y-9730000D02*
X39971000Y-10650000D01*
X39971000Y-7130000D02*
X39971000Y-8050000D01*
X39931000Y-9730000D02*
X39931000Y-10675000D01*
X39931000Y-7105000D02*
X39931000Y-8050000D01*
X39891000Y-9730000D02*
X39891000Y-10698000D01*
X39891000Y-7082000D02*
X39891000Y-8050000D01*
X39851000Y-9730000D02*
X39851000Y-10720000D01*
X39851000Y-7060000D02*
X39851000Y-8050000D01*
X39811000Y-9730000D02*
X39811000Y-10741000D01*
X39811000Y-7039000D02*
X39811000Y-8050000D01*
X39771000Y-9730000D02*
X39771000Y-10760000D01*
X39771000Y-7020000D02*
X39771000Y-8050000D01*
X39731000Y-9730000D02*
X39731000Y-10779000D01*
X39731000Y-7001000D02*
X39731000Y-8050000D01*
X39691000Y-9730000D02*
X39691000Y-10797000D01*
X39691000Y-6983000D02*
X39691000Y-8050000D01*
X39651000Y-9730000D02*
X39651000Y-10814000D01*
X39651000Y-6966000D02*
X39651000Y-8050000D01*
X39611000Y-9730000D02*
X39611000Y-10830000D01*
X39611000Y-6950000D02*
X39611000Y-8050000D01*
X39571000Y-9730000D02*
X39571000Y-10844000D01*
X39571000Y-6936000D02*
X39571000Y-8050000D01*
X39530000Y-9730000D02*
X39530000Y-10858000D01*
X39530000Y-6922000D02*
X39530000Y-8050000D01*
X39490000Y-9730000D02*
X39490000Y-10872000D01*
X39490000Y-6908000D02*
X39490000Y-8050000D01*
X39450000Y-9730000D02*
X39450000Y-10884000D01*
X39450000Y-6896000D02*
X39450000Y-8050000D01*
X39410000Y-9730000D02*
X39410000Y-10895000D01*
X39410000Y-6885000D02*
X39410000Y-8050000D01*
X39370000Y-9730000D02*
X39370000Y-10906000D01*
X39370000Y-6874000D02*
X39370000Y-8050000D01*
X39330000Y-9730000D02*
X39330000Y-10915000D01*
X39330000Y-6865000D02*
X39330000Y-8050000D01*
X39290000Y-9730000D02*
X39290000Y-10924000D01*
X39290000Y-6856000D02*
X39290000Y-8050000D01*
X39250000Y-9730000D02*
X39250000Y-10932000D01*
X39250000Y-6848000D02*
X39250000Y-8050000D01*
X39210000Y-9730000D02*
X39210000Y-10940000D01*
X39210000Y-6840000D02*
X39210000Y-8050000D01*
X39170000Y-9730000D02*
X39170000Y-10946000D01*
X39170000Y-6834000D02*
X39170000Y-8050000D01*
X39130000Y-9730000D02*
X39130000Y-10952000D01*
X39130000Y-6828000D02*
X39130000Y-8050000D01*
X39090000Y-9730000D02*
X39090000Y-10957000D01*
X39090000Y-6823000D02*
X39090000Y-8050000D01*
X39050000Y-9730000D02*
X39050000Y-10961000D01*
X39050000Y-6819000D02*
X39050000Y-8050000D01*
X39010000Y-9730000D02*
X39010000Y-10964000D01*
X39010000Y-6816000D02*
X39010000Y-8050000D01*
X38970000Y-9730000D02*
X38970000Y-10967000D01*
X38970000Y-6813000D02*
X38970000Y-8050000D01*
X38930000Y-6811000D02*
X38930000Y-8050000D01*
X38930000Y-9730000D02*
X38930000Y-10969000D01*
X38890000Y-6810000D02*
X38890000Y-8050000D01*
X38890000Y-9730000D02*
X38890000Y-10970000D01*
X38850000Y-6810000D02*
X38850000Y-8050000D01*
X38850000Y-9730000D02*
X38850000Y-10970000D01*
X40970000Y-8890000D02*
G75*
G03X40970000Y-8890000I-2120000J0D01*
G01*
X22174000Y-39116000D02*
G75*
G03X22174000Y-39116000I-2120000J0D01*
G01*
X20054000Y-39956000D02*
X20054000Y-41196000D01*
X20054000Y-37036000D02*
X20054000Y-38276000D01*
X20094000Y-39956000D02*
X20094000Y-41196000D01*
X20094000Y-37036000D02*
X20094000Y-38276000D01*
X20134000Y-39956000D02*
X20134000Y-41195000D01*
X20134000Y-37037000D02*
X20134000Y-38276000D01*
X20174000Y-37039000D02*
X20174000Y-38276000D01*
X20174000Y-39956000D02*
X20174000Y-41193000D01*
X20214000Y-37042000D02*
X20214000Y-38276000D01*
X20214000Y-39956000D02*
X20214000Y-41190000D01*
X20254000Y-37045000D02*
X20254000Y-38276000D01*
X20254000Y-39956000D02*
X20254000Y-41187000D01*
X20294000Y-37049000D02*
X20294000Y-38276000D01*
X20294000Y-39956000D02*
X20294000Y-41183000D01*
X20334000Y-37054000D02*
X20334000Y-38276000D01*
X20334000Y-39956000D02*
X20334000Y-41178000D01*
X20374000Y-37060000D02*
X20374000Y-38276000D01*
X20374000Y-39956000D02*
X20374000Y-41172000D01*
X20414000Y-37066000D02*
X20414000Y-38276000D01*
X20414000Y-39956000D02*
X20414000Y-41166000D01*
X20454000Y-37074000D02*
X20454000Y-38276000D01*
X20454000Y-39956000D02*
X20454000Y-41158000D01*
X20494000Y-37082000D02*
X20494000Y-38276000D01*
X20494000Y-39956000D02*
X20494000Y-41150000D01*
X20534000Y-37091000D02*
X20534000Y-38276000D01*
X20534000Y-39956000D02*
X20534000Y-41141000D01*
X20574000Y-37100000D02*
X20574000Y-38276000D01*
X20574000Y-39956000D02*
X20574000Y-41132000D01*
X20614000Y-37111000D02*
X20614000Y-38276000D01*
X20614000Y-39956000D02*
X20614000Y-41121000D01*
X20654000Y-37122000D02*
X20654000Y-38276000D01*
X20654000Y-39956000D02*
X20654000Y-41110000D01*
X20694000Y-37134000D02*
X20694000Y-38276000D01*
X20694000Y-39956000D02*
X20694000Y-41098000D01*
X20734000Y-37148000D02*
X20734000Y-38276000D01*
X20734000Y-39956000D02*
X20734000Y-41084000D01*
X20775000Y-37162000D02*
X20775000Y-38276000D01*
X20775000Y-39956000D02*
X20775000Y-41070000D01*
X20815000Y-37176000D02*
X20815000Y-38276000D01*
X20815000Y-39956000D02*
X20815000Y-41056000D01*
X20855000Y-37192000D02*
X20855000Y-38276000D01*
X20855000Y-39956000D02*
X20855000Y-41040000D01*
X20895000Y-37209000D02*
X20895000Y-38276000D01*
X20895000Y-39956000D02*
X20895000Y-41023000D01*
X20935000Y-37227000D02*
X20935000Y-38276000D01*
X20935000Y-39956000D02*
X20935000Y-41005000D01*
X20975000Y-37246000D02*
X20975000Y-38276000D01*
X20975000Y-39956000D02*
X20975000Y-40986000D01*
X21015000Y-37265000D02*
X21015000Y-38276000D01*
X21015000Y-39956000D02*
X21015000Y-40967000D01*
X21055000Y-37286000D02*
X21055000Y-38276000D01*
X21055000Y-39956000D02*
X21055000Y-40946000D01*
X21095000Y-37308000D02*
X21095000Y-38276000D01*
X21095000Y-39956000D02*
X21095000Y-40924000D01*
X21135000Y-37331000D02*
X21135000Y-38276000D01*
X21135000Y-39956000D02*
X21135000Y-40901000D01*
X21175000Y-37356000D02*
X21175000Y-38276000D01*
X21175000Y-39956000D02*
X21175000Y-40876000D01*
X21215000Y-37381000D02*
X21215000Y-38276000D01*
X21215000Y-39956000D02*
X21215000Y-40851000D01*
X21255000Y-37408000D02*
X21255000Y-38276000D01*
X21255000Y-39956000D02*
X21255000Y-40824000D01*
X21295000Y-37436000D02*
X21295000Y-38276000D01*
X21295000Y-39956000D02*
X21295000Y-40796000D01*
X21335000Y-37466000D02*
X21335000Y-38276000D01*
X21335000Y-39956000D02*
X21335000Y-40766000D01*
X21375000Y-37497000D02*
X21375000Y-38276000D01*
X21375000Y-39956000D02*
X21375000Y-40735000D01*
X21415000Y-37529000D02*
X21415000Y-38276000D01*
X21415000Y-39956000D02*
X21415000Y-40703000D01*
X21455000Y-37564000D02*
X21455000Y-38276000D01*
X21455000Y-39956000D02*
X21455000Y-40668000D01*
X21495000Y-37600000D02*
X21495000Y-38276000D01*
X21495000Y-39956000D02*
X21495000Y-40632000D01*
X21535000Y-37638000D02*
X21535000Y-38276000D01*
X21535000Y-39956000D02*
X21535000Y-40594000D01*
X21575000Y-37678000D02*
X21575000Y-38276000D01*
X21575000Y-39956000D02*
X21575000Y-40554000D01*
X21615000Y-37720000D02*
X21615000Y-38276000D01*
X21615000Y-39956000D02*
X21615000Y-40512000D01*
X21655000Y-37765000D02*
X21655000Y-40467000D01*
X21695000Y-37812000D02*
X21695000Y-40420000D01*
X21735000Y-37862000D02*
X21735000Y-40370000D01*
X21775000Y-37916000D02*
X21775000Y-40316000D01*
X21815000Y-37974000D02*
X21815000Y-40258000D01*
X21855000Y-38036000D02*
X21855000Y-40196000D01*
X21895000Y-38103000D02*
X21895000Y-40129000D01*
X21935000Y-38176000D02*
X21935000Y-40056000D01*
X21975000Y-38257000D02*
X21975000Y-39975000D01*
X22015000Y-38348000D02*
X22015000Y-39884000D01*
X22055000Y-38452000D02*
X22055000Y-39780000D01*
X22095000Y-38579000D02*
X22095000Y-39653000D01*
X22135000Y-38746000D02*
X22135000Y-39486000D01*
X17784199Y-37921000D02*
X18184199Y-37921000D01*
X17984199Y-37721000D02*
X17984199Y-38121000D01*
D10*
X25106380Y-4143333D02*
X25820666Y-4143333D01*
X25963523Y-4190952D01*
X26058761Y-4286190D01*
X26106380Y-4429047D01*
X26106380Y-4524285D01*
X25106380Y-3238571D02*
X25106380Y-3429047D01*
X25154000Y-3524285D01*
X25201619Y-3571904D01*
X25344476Y-3667142D01*
X25534952Y-3714761D01*
X25915904Y-3714761D01*
X26011142Y-3667142D01*
X26058761Y-3619523D01*
X26106380Y-3524285D01*
X26106380Y-3333809D01*
X26058761Y-3238571D01*
X26011142Y-3190952D01*
X25915904Y-3143333D01*
X25677809Y-3143333D01*
X25582571Y-3190952D01*
X25534952Y-3238571D01*
X25487333Y-3333809D01*
X25487333Y-3524285D01*
X25534952Y-3619523D01*
X25582571Y-3667142D01*
X25677809Y-3714761D01*
X13676380Y-48593333D02*
X14390666Y-48593333D01*
X14533523Y-48640952D01*
X14628761Y-48736190D01*
X14676380Y-48879047D01*
X14676380Y-48974285D01*
X14676380Y-47593333D02*
X14676380Y-48164761D01*
X14676380Y-47879047D02*
X13676380Y-47879047D01*
X13819238Y-47974285D01*
X13914476Y-48069523D01*
X13962095Y-48164761D01*
X36195095Y-41806761D02*
X36337952Y-41854380D01*
X36576047Y-41854380D01*
X36671285Y-41806761D01*
X36718904Y-41759142D01*
X36766523Y-41663904D01*
X36766523Y-41568666D01*
X36718904Y-41473428D01*
X36671285Y-41425809D01*
X36576047Y-41378190D01*
X36385571Y-41330571D01*
X36290333Y-41282952D01*
X36242714Y-41235333D01*
X36195095Y-41140095D01*
X36195095Y-41044857D01*
X36242714Y-40949619D01*
X36290333Y-40902000D01*
X36385571Y-40854380D01*
X36623666Y-40854380D01*
X36766523Y-40902000D01*
X37718904Y-41854380D02*
X37147476Y-41854380D01*
X37433190Y-41854380D02*
X37433190Y-40854380D01*
X37337952Y-40997238D01*
X37242714Y-41092476D01*
X37147476Y-41140095D01*
X34631333Y-26106380D02*
X34298000Y-25630190D01*
X34059904Y-26106380D02*
X34059904Y-25106380D01*
X34440857Y-25106380D01*
X34536095Y-25154000D01*
X34583714Y-25201619D01*
X34631333Y-25296857D01*
X34631333Y-25439714D01*
X34583714Y-25534952D01*
X34536095Y-25582571D01*
X34440857Y-25630190D01*
X34059904Y-25630190D01*
X35012285Y-25201619D02*
X35059904Y-25154000D01*
X35155142Y-25106380D01*
X35393238Y-25106380D01*
X35488476Y-25154000D01*
X35536095Y-25201619D01*
X35583714Y-25296857D01*
X35583714Y-25392095D01*
X35536095Y-25534952D01*
X34964666Y-26106380D01*
X35583714Y-26106380D01*
X27392333Y-23566380D02*
X27059000Y-23090190D01*
X26820904Y-23566380D02*
X26820904Y-22566380D01*
X27201857Y-22566380D01*
X27297095Y-22614000D01*
X27344714Y-22661619D01*
X27392333Y-22756857D01*
X27392333Y-22899714D01*
X27344714Y-22994952D01*
X27297095Y-23042571D01*
X27201857Y-23090190D01*
X26820904Y-23090190D01*
X27725666Y-22566380D02*
X28344714Y-22566380D01*
X28011380Y-22947333D01*
X28154238Y-22947333D01*
X28249476Y-22994952D01*
X28297095Y-23042571D01*
X28344714Y-23137809D01*
X28344714Y-23375904D01*
X28297095Y-23471142D01*
X28249476Y-23518761D01*
X28154238Y-23566380D01*
X27868523Y-23566380D01*
X27773285Y-23518761D01*
X27725666Y-23471142D01*
X27686095Y-36266380D02*
X27686095Y-35266380D01*
X27686095Y-35742571D02*
X28257523Y-35742571D01*
X28257523Y-36266380D02*
X28257523Y-35266380D01*
X28638476Y-35266380D02*
X29257523Y-35266380D01*
X28924190Y-35647333D01*
X29067047Y-35647333D01*
X29162285Y-35694952D01*
X29209904Y-35742571D01*
X29257523Y-35837809D01*
X29257523Y-36075904D01*
X29209904Y-36171142D01*
X29162285Y-36218761D01*
X29067047Y-36266380D01*
X28781333Y-36266380D01*
X28686095Y-36218761D01*
X28638476Y-36171142D01*
X27813095Y-10993380D02*
X27813095Y-9993380D01*
X27813095Y-10469571D02*
X28384523Y-10469571D01*
X28384523Y-10993380D02*
X28384523Y-9993380D01*
X28813095Y-10088619D02*
X28860714Y-10041000D01*
X28955952Y-9993380D01*
X29194047Y-9993380D01*
X29289285Y-10041000D01*
X29336904Y-10088619D01*
X29384523Y-10183857D01*
X29384523Y-10279095D01*
X29336904Y-10421952D01*
X28765476Y-10993380D01*
X29384523Y-10993380D01*
X2794095Y-43168380D02*
X2794095Y-42168380D01*
X2794095Y-42644571D02*
X3365523Y-42644571D01*
X3365523Y-43168380D02*
X3365523Y-42168380D01*
X4365523Y-43168380D02*
X3794095Y-43168380D01*
X4079809Y-43168380D02*
X4079809Y-42168380D01*
X3984571Y-42311238D01*
X3889333Y-42406476D01*
X3794095Y-42454095D01*
X24471333Y-38331142D02*
X24423714Y-38378761D01*
X24280857Y-38426380D01*
X24185619Y-38426380D01*
X24042761Y-38378761D01*
X23947523Y-38283523D01*
X23899904Y-38188285D01*
X23852285Y-37997809D01*
X23852285Y-37854952D01*
X23899904Y-37664476D01*
X23947523Y-37569238D01*
X24042761Y-37474000D01*
X24185619Y-37426380D01*
X24280857Y-37426380D01*
X24423714Y-37474000D01*
X24471333Y-37521619D01*
X24804666Y-37426380D02*
X25423714Y-37426380D01*
X25090380Y-37807333D01*
X25233238Y-37807333D01*
X25328476Y-37854952D01*
X25376095Y-37902571D01*
X25423714Y-37997809D01*
X25423714Y-38235904D01*
X25376095Y-38331142D01*
X25328476Y-38378761D01*
X25233238Y-38426380D01*
X24947523Y-38426380D01*
X24852285Y-38378761D01*
X24804666Y-38331142D01*
D14*
X30015542Y-28059742D02*
X30102628Y-28088771D01*
X30247771Y-28088771D01*
X30305828Y-28059742D01*
X30334857Y-28030714D01*
X30363885Y-27972657D01*
X30363885Y-27914600D01*
X30334857Y-27856542D01*
X30305828Y-27827514D01*
X30247771Y-27798485D01*
X30131657Y-27769457D01*
X30073600Y-27740428D01*
X30044571Y-27711400D01*
X30015542Y-27653342D01*
X30015542Y-27595285D01*
X30044571Y-27537228D01*
X30073600Y-27508200D01*
X30131657Y-27479171D01*
X30276800Y-27479171D01*
X30363885Y-27508200D01*
X30596114Y-27537228D02*
X30625142Y-27508200D01*
X30683200Y-27479171D01*
X30828342Y-27479171D01*
X30886400Y-27508200D01*
X30915428Y-27537228D01*
X30944457Y-27595285D01*
X30944457Y-27653342D01*
X30915428Y-27740428D01*
X30567085Y-28088771D01*
X30944457Y-28088771D01*
D10*
X1230333Y-35250380D02*
X897000Y-34774190D01*
X658904Y-35250380D02*
X658904Y-34250380D01*
X1039857Y-34250380D01*
X1135095Y-34298000D01*
X1182714Y-34345619D01*
X1230333Y-34440857D01*
X1230333Y-34583714D01*
X1182714Y-34678952D01*
X1135095Y-34726571D01*
X1039857Y-34774190D01*
X658904Y-34774190D01*
X1801761Y-34678952D02*
X1706523Y-34631333D01*
X1658904Y-34583714D01*
X1611285Y-34488476D01*
X1611285Y-34440857D01*
X1658904Y-34345619D01*
X1706523Y-34298000D01*
X1801761Y-34250380D01*
X1992238Y-34250380D01*
X2087476Y-34298000D01*
X2135095Y-34345619D01*
X2182714Y-34440857D01*
X2182714Y-34488476D01*
X2135095Y-34583714D01*
X2087476Y-34631333D01*
X1992238Y-34678952D01*
X1801761Y-34678952D01*
X1706523Y-34726571D01*
X1658904Y-34774190D01*
X1611285Y-34869428D01*
X1611285Y-35059904D01*
X1658904Y-35155142D01*
X1706523Y-35202761D01*
X1801761Y-35250380D01*
X1992238Y-35250380D01*
X2087476Y-35202761D01*
X2135095Y-35155142D01*
X2182714Y-35059904D01*
X2182714Y-34869428D01*
X2135095Y-34774190D01*
X2087476Y-34726571D01*
X1992238Y-34678952D01*
X1103333Y-31821380D02*
X770000Y-31345190D01*
X531904Y-31821380D02*
X531904Y-30821380D01*
X912857Y-30821380D01*
X1008095Y-30869000D01*
X1055714Y-30916619D01*
X1103333Y-31011857D01*
X1103333Y-31154714D01*
X1055714Y-31249952D01*
X1008095Y-31297571D01*
X912857Y-31345190D01*
X531904Y-31345190D01*
X1436666Y-30821380D02*
X2103333Y-30821380D01*
X1674761Y-31821380D01*
X1103333Y-38933380D02*
X770000Y-38457190D01*
X531904Y-38933380D02*
X531904Y-37933380D01*
X912857Y-37933380D01*
X1008095Y-37981000D01*
X1055714Y-38028619D01*
X1103333Y-38123857D01*
X1103333Y-38266714D01*
X1055714Y-38361952D01*
X1008095Y-38409571D01*
X912857Y-38457190D01*
X531904Y-38457190D01*
X2008095Y-37933380D02*
X1531904Y-37933380D01*
X1484285Y-38409571D01*
X1531904Y-38361952D01*
X1627142Y-38314333D01*
X1865238Y-38314333D01*
X1960476Y-38361952D01*
X2008095Y-38409571D01*
X2055714Y-38504809D01*
X2055714Y-38742904D01*
X2008095Y-38838142D01*
X1960476Y-38885761D01*
X1865238Y-38933380D01*
X1627142Y-38933380D01*
X1531904Y-38885761D01*
X1484285Y-38838142D01*
X11247380Y-27217666D02*
X10771190Y-27551000D01*
X11247380Y-27789095D02*
X10247380Y-27789095D01*
X10247380Y-27408142D01*
X10295000Y-27312904D01*
X10342619Y-27265285D01*
X10437857Y-27217666D01*
X10580714Y-27217666D01*
X10675952Y-27265285D01*
X10723571Y-27312904D01*
X10771190Y-27408142D01*
X10771190Y-27789095D01*
X11247380Y-26265285D02*
X11247380Y-26836714D01*
X11247380Y-26551000D02*
X10247380Y-26551000D01*
X10390238Y-26646238D01*
X10485476Y-26741476D01*
X10533095Y-26836714D01*
X1023190Y-23817190D02*
X1499380Y-23817190D01*
X499380Y-24150523D02*
X1023190Y-23817190D01*
X499380Y-23483857D01*
X1499380Y-22626714D02*
X1499380Y-23198142D01*
X1499380Y-22912428D02*
X499380Y-22912428D01*
X642238Y-23007666D01*
X737476Y-23102904D01*
X785095Y-23198142D01*
D14*
X4869542Y-10025742D02*
X4956628Y-10054771D01*
X5101771Y-10054771D01*
X5159828Y-10025742D01*
X5188857Y-9996714D01*
X5217885Y-9938657D01*
X5217885Y-9880600D01*
X5188857Y-9822542D01*
X5159828Y-9793514D01*
X5101771Y-9764485D01*
X4985657Y-9735457D01*
X4927600Y-9706428D01*
X4898571Y-9677400D01*
X4869542Y-9619342D01*
X4869542Y-9561285D01*
X4898571Y-9503228D01*
X4927600Y-9474200D01*
X4985657Y-9445171D01*
X5130800Y-9445171D01*
X5217885Y-9474200D01*
X5740400Y-9648371D02*
X5740400Y-10054771D01*
X5595257Y-9416142D02*
X5450114Y-9851571D01*
X5827485Y-9851571D01*
X4869542Y-2151742D02*
X4956628Y-2180771D01*
X5101771Y-2180771D01*
X5159828Y-2151742D01*
X5188857Y-2122714D01*
X5217885Y-2064657D01*
X5217885Y-2006600D01*
X5188857Y-1948542D01*
X5159828Y-1919514D01*
X5101771Y-1890485D01*
X4985657Y-1861457D01*
X4927600Y-1832428D01*
X4898571Y-1803400D01*
X4869542Y-1745342D01*
X4869542Y-1687285D01*
X4898571Y-1629228D01*
X4927600Y-1600200D01*
X4985657Y-1571171D01*
X5130800Y-1571171D01*
X5217885Y-1600200D01*
X5421085Y-1571171D02*
X5798457Y-1571171D01*
X5595257Y-1803400D01*
X5682342Y-1803400D01*
X5740400Y-1832428D01*
X5769428Y-1861457D01*
X5798457Y-1919514D01*
X5798457Y-2064657D01*
X5769428Y-2122714D01*
X5740400Y-2151742D01*
X5682342Y-2180771D01*
X5508171Y-2180771D01*
X5450114Y-2151742D01*
X5421085Y-2122714D01*
D10*
X35647333Y-7183380D02*
X35314000Y-6707190D01*
X35075904Y-7183380D02*
X35075904Y-6183380D01*
X35456857Y-6183380D01*
X35552095Y-6231000D01*
X35599714Y-6278619D01*
X35647333Y-6373857D01*
X35647333Y-6516714D01*
X35599714Y-6611952D01*
X35552095Y-6659571D01*
X35456857Y-6707190D01*
X35075904Y-6707190D01*
X36504476Y-6183380D02*
X36314000Y-6183380D01*
X36218761Y-6231000D01*
X36171142Y-6278619D01*
X36075904Y-6421476D01*
X36028285Y-6611952D01*
X36028285Y-6992904D01*
X36075904Y-7088142D01*
X36123523Y-7135761D01*
X36218761Y-7183380D01*
X36409238Y-7183380D01*
X36504476Y-7135761D01*
X36552095Y-7088142D01*
X36599714Y-6992904D01*
X36599714Y-6754809D01*
X36552095Y-6659571D01*
X36504476Y-6611952D01*
X36409238Y-6564333D01*
X36218761Y-6564333D01*
X36123523Y-6611952D01*
X36075904Y-6659571D01*
X36028285Y-6754809D01*
X34123333Y-38425380D02*
X33790000Y-37949190D01*
X33551904Y-38425380D02*
X33551904Y-37425380D01*
X33932857Y-37425380D01*
X34028095Y-37473000D01*
X34075714Y-37520619D01*
X34123333Y-37615857D01*
X34123333Y-37758714D01*
X34075714Y-37853952D01*
X34028095Y-37901571D01*
X33932857Y-37949190D01*
X33551904Y-37949190D01*
X34980476Y-37758714D02*
X34980476Y-38425380D01*
X34742380Y-37377761D02*
X34504285Y-38092047D01*
X35123333Y-38092047D01*
X29765666Y-7326380D02*
X29765666Y-8040666D01*
X29718047Y-8183523D01*
X29622809Y-8278761D01*
X29479952Y-8326380D01*
X29384714Y-8326380D01*
X30670428Y-7659714D02*
X30670428Y-8326380D01*
X30432333Y-7278761D02*
X30194238Y-7993047D01*
X30813285Y-7993047D01*
X37131666Y-21887380D02*
X37131666Y-22601666D01*
X37084047Y-22744523D01*
X36988809Y-22839761D01*
X36845952Y-22887380D01*
X36750714Y-22887380D01*
X37512619Y-21887380D02*
X38131666Y-21887380D01*
X37798333Y-22268333D01*
X37941190Y-22268333D01*
X38036428Y-22315952D01*
X38084047Y-22363571D01*
X38131666Y-22458809D01*
X38131666Y-22696904D01*
X38084047Y-22792142D01*
X38036428Y-22839761D01*
X37941190Y-22887380D01*
X37655476Y-22887380D01*
X37560238Y-22839761D01*
X37512619Y-22792142D01*
X12342904Y-36012380D02*
X12342904Y-35012380D01*
X12581000Y-35012380D01*
X12723857Y-35060000D01*
X12819095Y-35155238D01*
X12866714Y-35250476D01*
X12914333Y-35440952D01*
X12914333Y-35583809D01*
X12866714Y-35774285D01*
X12819095Y-35869523D01*
X12723857Y-35964761D01*
X12581000Y-36012380D01*
X12342904Y-36012380D01*
X13819095Y-35012380D02*
X13342904Y-35012380D01*
X13295285Y-35488571D01*
X13342904Y-35440952D01*
X13438142Y-35393333D01*
X13676238Y-35393333D01*
X13771476Y-35440952D01*
X13819095Y-35488571D01*
X13866714Y-35583809D01*
X13866714Y-35821904D01*
X13819095Y-35917142D01*
X13771476Y-35964761D01*
X13676238Y-36012380D01*
X13438142Y-36012380D01*
X13342904Y-35964761D01*
X13295285Y-35917142D01*
X12469904Y-29281380D02*
X12469904Y-28281380D01*
X12708000Y-28281380D01*
X12850857Y-28329000D01*
X12946095Y-28424238D01*
X12993714Y-28519476D01*
X13041333Y-28709952D01*
X13041333Y-28852809D01*
X12993714Y-29043285D01*
X12946095Y-29138523D01*
X12850857Y-29233761D01*
X12708000Y-29281380D01*
X12469904Y-29281380D01*
X13898476Y-28614714D02*
X13898476Y-29281380D01*
X13660380Y-28233761D02*
X13422285Y-28948047D01*
X14041333Y-28948047D01*
X35885380Y-12676095D02*
X34885380Y-12676095D01*
X34885380Y-12438000D01*
X34933000Y-12295142D01*
X35028238Y-12199904D01*
X35123476Y-12152285D01*
X35313952Y-12104666D01*
X35456809Y-12104666D01*
X35647285Y-12152285D01*
X35742523Y-12199904D01*
X35837761Y-12295142D01*
X35885380Y-12438000D01*
X35885380Y-12676095D01*
X34885380Y-11771333D02*
X34885380Y-11152285D01*
X35266333Y-11485619D01*
X35266333Y-11342761D01*
X35313952Y-11247523D01*
X35361571Y-11199904D01*
X35456809Y-11152285D01*
X35694904Y-11152285D01*
X35790142Y-11199904D01*
X35837761Y-11247523D01*
X35885380Y-11342761D01*
X35885380Y-11628476D01*
X35837761Y-11723714D01*
X35790142Y-11771333D01*
X28217904Y-38426380D02*
X28217904Y-37426380D01*
X28456000Y-37426380D01*
X28598857Y-37474000D01*
X28694095Y-37569238D01*
X28741714Y-37664476D01*
X28789333Y-37854952D01*
X28789333Y-37997809D01*
X28741714Y-38188285D01*
X28694095Y-38283523D01*
X28598857Y-38378761D01*
X28456000Y-38426380D01*
X28217904Y-38426380D01*
X29170285Y-37521619D02*
X29217904Y-37474000D01*
X29313142Y-37426380D01*
X29551238Y-37426380D01*
X29646476Y-37474000D01*
X29694095Y-37521619D01*
X29741714Y-37616857D01*
X29741714Y-37712095D01*
X29694095Y-37854952D01*
X29122666Y-38426380D01*
X29741714Y-38426380D01*
X12850904Y-42870380D02*
X12850904Y-41870380D01*
X13089000Y-41870380D01*
X13231857Y-41918000D01*
X13327095Y-42013238D01*
X13374714Y-42108476D01*
X13422333Y-42298952D01*
X13422333Y-42441809D01*
X13374714Y-42632285D01*
X13327095Y-42727523D01*
X13231857Y-42822761D01*
X13089000Y-42870380D01*
X12850904Y-42870380D01*
X14374714Y-42870380D02*
X13803285Y-42870380D01*
X14089000Y-42870380D02*
X14089000Y-41870380D01*
X13993761Y-42013238D01*
X13898523Y-42108476D01*
X13803285Y-42156095D01*
X9501142Y-18708666D02*
X9548761Y-18756285D01*
X9596380Y-18899142D01*
X9596380Y-18994380D01*
X9548761Y-19137238D01*
X9453523Y-19232476D01*
X9358285Y-19280095D01*
X9167809Y-19327714D01*
X9024952Y-19327714D01*
X8834476Y-19280095D01*
X8739238Y-19232476D01*
X8644000Y-19137238D01*
X8596380Y-18994380D01*
X8596380Y-18899142D01*
X8644000Y-18756285D01*
X8691619Y-18708666D01*
X8691619Y-18327714D02*
X8644000Y-18280095D01*
X8596380Y-18184857D01*
X8596380Y-17946761D01*
X8644000Y-17851523D01*
X8691619Y-17803904D01*
X8786857Y-17756285D01*
X8882095Y-17756285D01*
X9024952Y-17803904D01*
X9596380Y-18375333D01*
X9596380Y-17756285D01*
X13438142Y-22772666D02*
X13485761Y-22820285D01*
X13533380Y-22963142D01*
X13533380Y-23058380D01*
X13485761Y-23201238D01*
X13390523Y-23296476D01*
X13295285Y-23344095D01*
X13104809Y-23391714D01*
X12961952Y-23391714D01*
X12771476Y-23344095D01*
X12676238Y-23296476D01*
X12581000Y-23201238D01*
X12533380Y-23058380D01*
X12533380Y-22963142D01*
X12581000Y-22820285D01*
X12628619Y-22772666D01*
X13533380Y-21820285D02*
X13533380Y-22391714D01*
X13533380Y-22106000D02*
X12533380Y-22106000D01*
X12676238Y-22201238D01*
X12771476Y-22296476D01*
X12819095Y-22391714D01*
X46405833Y-25377142D02*
X46358214Y-25424761D01*
X46215357Y-25472380D01*
X46120119Y-25472380D01*
X45977261Y-25424761D01*
X45882023Y-25329523D01*
X45834404Y-25234285D01*
X45786785Y-25043809D01*
X45786785Y-24900952D01*
X45834404Y-24710476D01*
X45882023Y-24615238D01*
X45977261Y-24520000D01*
X46120119Y-24472380D01*
X46215357Y-24472380D01*
X46358214Y-24520000D01*
X46405833Y-24567619D01*
X46739166Y-24472380D02*
X47405833Y-24472380D01*
X46977261Y-25472380D01*
X28408333Y-7088142D02*
X28360714Y-7135761D01*
X28217857Y-7183380D01*
X28122619Y-7183380D01*
X27979761Y-7135761D01*
X27884523Y-7040523D01*
X27836904Y-6945285D01*
X27789285Y-6754809D01*
X27789285Y-6611952D01*
X27836904Y-6421476D01*
X27884523Y-6326238D01*
X27979761Y-6231000D01*
X28122619Y-6183380D01*
X28217857Y-6183380D01*
X28360714Y-6231000D01*
X28408333Y-6278619D01*
X29265476Y-6183380D02*
X29075000Y-6183380D01*
X28979761Y-6231000D01*
X28932142Y-6278619D01*
X28836904Y-6421476D01*
X28789285Y-6611952D01*
X28789285Y-6992904D01*
X28836904Y-7088142D01*
X28884523Y-7135761D01*
X28979761Y-7183380D01*
X29170238Y-7183380D01*
X29265476Y-7135761D01*
X29313095Y-7088142D01*
X29360714Y-6992904D01*
X29360714Y-6754809D01*
X29313095Y-6659571D01*
X29265476Y-6611952D01*
X29170238Y-6564333D01*
X28979761Y-6564333D01*
X28884523Y-6611952D01*
X28836904Y-6659571D01*
X28789285Y-6754809D01*
X28551142Y-20740666D02*
X28598761Y-20788285D01*
X28646380Y-20931142D01*
X28646380Y-21026380D01*
X28598761Y-21169238D01*
X28503523Y-21264476D01*
X28408285Y-21312095D01*
X28217809Y-21359714D01*
X28074952Y-21359714D01*
X27884476Y-21312095D01*
X27789238Y-21264476D01*
X27694000Y-21169238D01*
X27646380Y-21026380D01*
X27646380Y-20931142D01*
X27694000Y-20788285D01*
X27741619Y-20740666D01*
X27646380Y-19835904D02*
X27646380Y-20312095D01*
X28122571Y-20359714D01*
X28074952Y-20312095D01*
X28027333Y-20216857D01*
X28027333Y-19978761D01*
X28074952Y-19883523D01*
X28122571Y-19835904D01*
X28217809Y-19788285D01*
X28455904Y-19788285D01*
X28551142Y-19835904D01*
X28598761Y-19883523D01*
X28646380Y-19978761D01*
X28646380Y-20216857D01*
X28598761Y-20312095D01*
X28551142Y-20359714D01*
X18796095Y-6691380D02*
X18796095Y-7500904D01*
X18843714Y-7596142D01*
X18891333Y-7643761D01*
X18986571Y-7691380D01*
X19177047Y-7691380D01*
X19272285Y-7643761D01*
X19319904Y-7596142D01*
X19367523Y-7500904D01*
X19367523Y-6691380D01*
X20367523Y-7691380D02*
X19796095Y-7691380D01*
X20081809Y-7691380D02*
X20081809Y-6691380D01*
X19986571Y-6834238D01*
X19891333Y-6929476D01*
X19796095Y-6977095D01*
X41743380Y-28527333D02*
X42457666Y-28527333D01*
X42600523Y-28574952D01*
X42695761Y-28670190D01*
X42743380Y-28813047D01*
X42743380Y-28908285D01*
X41743380Y-28146380D02*
X41743380Y-27479714D01*
X42743380Y-27908285D01*
X8937666Y-1230380D02*
X8937666Y-1944666D01*
X8890047Y-2087523D01*
X8794809Y-2182761D01*
X8651952Y-2230380D01*
X8556714Y-2230380D01*
X9890047Y-1230380D02*
X9413857Y-1230380D01*
X9366238Y-1706571D01*
X9413857Y-1658952D01*
X9509095Y-1611333D01*
X9747190Y-1611333D01*
X9842428Y-1658952D01*
X9890047Y-1706571D01*
X9937666Y-1801809D01*
X9937666Y-2039904D01*
X9890047Y-2135142D01*
X9842428Y-2182761D01*
X9747190Y-2230380D01*
X9509095Y-2230380D01*
X9413857Y-2182761D01*
X9366238Y-2135142D01*
X36242666Y-11771380D02*
X36242666Y-12485666D01*
X36195047Y-12628523D01*
X36099809Y-12723761D01*
X35956952Y-12771380D01*
X35861714Y-12771380D01*
X36671238Y-11866619D02*
X36718857Y-11819000D01*
X36814095Y-11771380D01*
X37052190Y-11771380D01*
X37147428Y-11819000D01*
X37195047Y-11866619D01*
X37242666Y-11961857D01*
X37242666Y-12057095D01*
X37195047Y-12199952D01*
X36623619Y-12771380D01*
X37242666Y-12771380D01*
X41235333Y-7088142D02*
X41187714Y-7135761D01*
X41044857Y-7183380D01*
X40949619Y-7183380D01*
X40806761Y-7135761D01*
X40711523Y-7040523D01*
X40663904Y-6945285D01*
X40616285Y-6754809D01*
X40616285Y-6611952D01*
X40663904Y-6421476D01*
X40711523Y-6326238D01*
X40806761Y-6231000D01*
X40949619Y-6183380D01*
X41044857Y-6183380D01*
X41187714Y-6231000D01*
X41235333Y-6278619D01*
X41806761Y-6611952D02*
X41711523Y-6564333D01*
X41663904Y-6516714D01*
X41616285Y-6421476D01*
X41616285Y-6373857D01*
X41663904Y-6278619D01*
X41711523Y-6231000D01*
X41806761Y-6183380D01*
X41997238Y-6183380D01*
X42092476Y-6231000D01*
X42140095Y-6278619D01*
X42187714Y-6373857D01*
X42187714Y-6421476D01*
X42140095Y-6516714D01*
X42092476Y-6564333D01*
X41997238Y-6611952D01*
X41806761Y-6611952D01*
X41711523Y-6659571D01*
X41663904Y-6707190D01*
X41616285Y-6802428D01*
X41616285Y-6992904D01*
X41663904Y-7088142D01*
X41711523Y-7135761D01*
X41806761Y-7183380D01*
X41997238Y-7183380D01*
X42092476Y-7135761D01*
X42140095Y-7088142D01*
X42187714Y-6992904D01*
X42187714Y-6802428D01*
X42140095Y-6707190D01*
X42092476Y-6659571D01*
X41997238Y-6611952D01*
X16470333Y-38330142D02*
X16422714Y-38377761D01*
X16279857Y-38425380D01*
X16184619Y-38425380D01*
X16041761Y-38377761D01*
X15946523Y-38282523D01*
X15898904Y-38187285D01*
X15851285Y-37996809D01*
X15851285Y-37853952D01*
X15898904Y-37663476D01*
X15946523Y-37568238D01*
X16041761Y-37473000D01*
X16184619Y-37425380D01*
X16279857Y-37425380D01*
X16422714Y-37473000D01*
X16470333Y-37520619D01*
X17327476Y-37758714D02*
X17327476Y-38425380D01*
X17089380Y-37377761D02*
X16851285Y-38092047D01*
X17470333Y-38092047D01*
M02*
