G04 #@! TF.GenerationSoftware,KiCad,Pcbnew,(5.1.2)-1*
G04 #@! TF.CreationDate,2019-06-09T10:24:47-07:00*
G04 #@! TF.ProjectId,gen3basic,67656e33-6261-4736-9963-2e6b69636164,v1.0a*
G04 #@! TF.SameCoordinates,PX3072580PY2a640d0*
G04 #@! TF.FileFunction,Soldermask,Top*
G04 #@! TF.FilePolarity,Negative*
%FSLAX46Y46*%
G04 Gerber Fmt 4.6, Leading zero omitted, Abs format (unit mm)*
G04 Created by KiCad (PCBNEW (5.1.2)-1) date 2019-06-09 10:24:47*
%MOMM*%
%LPD*%
G04 APERTURE LIST*
%ADD10R,1.303200X2.203200*%
%ADD11O,1.700000X1.700000*%
%ADD12R,1.700000X1.700000*%
%ADD13C,3.000000*%
%ADD14R,3.000000X3.000000*%
%ADD15C,1.700000*%
%ADD16C,2.000000*%
%ADD17C,0.100000*%
%ADD18C,1.150000*%
%ADD19C,2.200000*%
%ADD20R,1.727200X0.965200*%
%ADD21C,1.425000*%
%ADD22C,1.500000*%
%ADD23C,1.800000*%
%ADD24R,1.800000X1.800000*%
%ADD25R,0.450000X0.600000*%
%ADD26O,1.600000X1.600000*%
%ADD27R,1.600000X1.600000*%
%ADD28C,1.200000*%
%ADD29R,1.200000X1.200000*%
G04 APERTURE END LIST*
D10*
X43971000Y-6705000D03*
X45671000Y-6704998D03*
X47371001Y-6705000D03*
X47371000Y-1905000D03*
X45671000Y-1905002D03*
X43970999Y-1905000D03*
X44020000Y-14846000D03*
X45720000Y-14845998D03*
X47420001Y-14846000D03*
X47420000Y-10046000D03*
X45720000Y-10046002D03*
X44019999Y-10046000D03*
X44020000Y-22974000D03*
X45720000Y-22973998D03*
X47420001Y-22974000D03*
X47420000Y-18174000D03*
X45720000Y-18174002D03*
X44019999Y-18174000D03*
D11*
X40005000Y-1905000D03*
X37465000Y-1905000D03*
X34925000Y-1905000D03*
X32385000Y-1905000D03*
X29845000Y-1905000D03*
D12*
X27305000Y-1905000D03*
D13*
X22860000Y-45720000D03*
D14*
X17780000Y-45720000D03*
D15*
X37210000Y-44196000D03*
X33210000Y-44196000D03*
X29210000Y-44196000D03*
D16*
X27210000Y-48446000D03*
X39210000Y-48446000D03*
X39210000Y-42446000D03*
X27210000Y-42446000D03*
D17*
G36*
X34648505Y-26479204D02*
G01*
X34672773Y-26482804D01*
X34696572Y-26488765D01*
X34719671Y-26497030D01*
X34741850Y-26507520D01*
X34762893Y-26520132D01*
X34782599Y-26534747D01*
X34800777Y-26551223D01*
X34817253Y-26569401D01*
X34831868Y-26589107D01*
X34844480Y-26610150D01*
X34854970Y-26632329D01*
X34863235Y-26655428D01*
X34869196Y-26679227D01*
X34872796Y-26703495D01*
X34874000Y-26727999D01*
X34874000Y-27628001D01*
X34872796Y-27652505D01*
X34869196Y-27676773D01*
X34863235Y-27700572D01*
X34854970Y-27723671D01*
X34844480Y-27745850D01*
X34831868Y-27766893D01*
X34817253Y-27786599D01*
X34800777Y-27804777D01*
X34782599Y-27821253D01*
X34762893Y-27835868D01*
X34741850Y-27848480D01*
X34719671Y-27858970D01*
X34696572Y-27867235D01*
X34672773Y-27873196D01*
X34648505Y-27876796D01*
X34624001Y-27878000D01*
X33973999Y-27878000D01*
X33949495Y-27876796D01*
X33925227Y-27873196D01*
X33901428Y-27867235D01*
X33878329Y-27858970D01*
X33856150Y-27848480D01*
X33835107Y-27835868D01*
X33815401Y-27821253D01*
X33797223Y-27804777D01*
X33780747Y-27786599D01*
X33766132Y-27766893D01*
X33753520Y-27745850D01*
X33743030Y-27723671D01*
X33734765Y-27700572D01*
X33728804Y-27676773D01*
X33725204Y-27652505D01*
X33724000Y-27628001D01*
X33724000Y-26727999D01*
X33725204Y-26703495D01*
X33728804Y-26679227D01*
X33734765Y-26655428D01*
X33743030Y-26632329D01*
X33753520Y-26610150D01*
X33766132Y-26589107D01*
X33780747Y-26569401D01*
X33797223Y-26551223D01*
X33815401Y-26534747D01*
X33835107Y-26520132D01*
X33856150Y-26507520D01*
X33878329Y-26497030D01*
X33901428Y-26488765D01*
X33925227Y-26482804D01*
X33949495Y-26479204D01*
X33973999Y-26478000D01*
X34624001Y-26478000D01*
X34648505Y-26479204D01*
X34648505Y-26479204D01*
G37*
D18*
X34299000Y-27178000D03*
D17*
G36*
X32598505Y-26479204D02*
G01*
X32622773Y-26482804D01*
X32646572Y-26488765D01*
X32669671Y-26497030D01*
X32691850Y-26507520D01*
X32712893Y-26520132D01*
X32732599Y-26534747D01*
X32750777Y-26551223D01*
X32767253Y-26569401D01*
X32781868Y-26589107D01*
X32794480Y-26610150D01*
X32804970Y-26632329D01*
X32813235Y-26655428D01*
X32819196Y-26679227D01*
X32822796Y-26703495D01*
X32824000Y-26727999D01*
X32824000Y-27628001D01*
X32822796Y-27652505D01*
X32819196Y-27676773D01*
X32813235Y-27700572D01*
X32804970Y-27723671D01*
X32794480Y-27745850D01*
X32781868Y-27766893D01*
X32767253Y-27786599D01*
X32750777Y-27804777D01*
X32732599Y-27821253D01*
X32712893Y-27835868D01*
X32691850Y-27848480D01*
X32669671Y-27858970D01*
X32646572Y-27867235D01*
X32622773Y-27873196D01*
X32598505Y-27876796D01*
X32574001Y-27878000D01*
X31923999Y-27878000D01*
X31899495Y-27876796D01*
X31875227Y-27873196D01*
X31851428Y-27867235D01*
X31828329Y-27858970D01*
X31806150Y-27848480D01*
X31785107Y-27835868D01*
X31765401Y-27821253D01*
X31747223Y-27804777D01*
X31730747Y-27786599D01*
X31716132Y-27766893D01*
X31703520Y-27745850D01*
X31693030Y-27723671D01*
X31684765Y-27700572D01*
X31678804Y-27676773D01*
X31675204Y-27652505D01*
X31674000Y-27628001D01*
X31674000Y-26727999D01*
X31675204Y-26703495D01*
X31678804Y-26679227D01*
X31684765Y-26655428D01*
X31693030Y-26632329D01*
X31703520Y-26610150D01*
X31716132Y-26589107D01*
X31730747Y-26569401D01*
X31747223Y-26551223D01*
X31765401Y-26534747D01*
X31785107Y-26520132D01*
X31806150Y-26507520D01*
X31828329Y-26497030D01*
X31851428Y-26488765D01*
X31875227Y-26482804D01*
X31899495Y-26479204D01*
X31923999Y-26478000D01*
X32574001Y-26478000D01*
X32598505Y-26479204D01*
X32598505Y-26479204D01*
G37*
D18*
X32249000Y-27178000D03*
D17*
G36*
X30076505Y-23939204D02*
G01*
X30100773Y-23942804D01*
X30124572Y-23948765D01*
X30147671Y-23957030D01*
X30169850Y-23967520D01*
X30190893Y-23980132D01*
X30210599Y-23994747D01*
X30228777Y-24011223D01*
X30245253Y-24029401D01*
X30259868Y-24049107D01*
X30272480Y-24070150D01*
X30282970Y-24092329D01*
X30291235Y-24115428D01*
X30297196Y-24139227D01*
X30300796Y-24163495D01*
X30302000Y-24187999D01*
X30302000Y-25088001D01*
X30300796Y-25112505D01*
X30297196Y-25136773D01*
X30291235Y-25160572D01*
X30282970Y-25183671D01*
X30272480Y-25205850D01*
X30259868Y-25226893D01*
X30245253Y-25246599D01*
X30228777Y-25264777D01*
X30210599Y-25281253D01*
X30190893Y-25295868D01*
X30169850Y-25308480D01*
X30147671Y-25318970D01*
X30124572Y-25327235D01*
X30100773Y-25333196D01*
X30076505Y-25336796D01*
X30052001Y-25338000D01*
X29401999Y-25338000D01*
X29377495Y-25336796D01*
X29353227Y-25333196D01*
X29329428Y-25327235D01*
X29306329Y-25318970D01*
X29284150Y-25308480D01*
X29263107Y-25295868D01*
X29243401Y-25281253D01*
X29225223Y-25264777D01*
X29208747Y-25246599D01*
X29194132Y-25226893D01*
X29181520Y-25205850D01*
X29171030Y-25183671D01*
X29162765Y-25160572D01*
X29156804Y-25136773D01*
X29153204Y-25112505D01*
X29152000Y-25088001D01*
X29152000Y-24187999D01*
X29153204Y-24163495D01*
X29156804Y-24139227D01*
X29162765Y-24115428D01*
X29171030Y-24092329D01*
X29181520Y-24070150D01*
X29194132Y-24049107D01*
X29208747Y-24029401D01*
X29225223Y-24011223D01*
X29243401Y-23994747D01*
X29263107Y-23980132D01*
X29284150Y-23967520D01*
X29306329Y-23957030D01*
X29329428Y-23948765D01*
X29353227Y-23942804D01*
X29377495Y-23939204D01*
X29401999Y-23938000D01*
X30052001Y-23938000D01*
X30076505Y-23939204D01*
X30076505Y-23939204D01*
G37*
D18*
X29727000Y-24638000D03*
D17*
G36*
X28026505Y-23939204D02*
G01*
X28050773Y-23942804D01*
X28074572Y-23948765D01*
X28097671Y-23957030D01*
X28119850Y-23967520D01*
X28140893Y-23980132D01*
X28160599Y-23994747D01*
X28178777Y-24011223D01*
X28195253Y-24029401D01*
X28209868Y-24049107D01*
X28222480Y-24070150D01*
X28232970Y-24092329D01*
X28241235Y-24115428D01*
X28247196Y-24139227D01*
X28250796Y-24163495D01*
X28252000Y-24187999D01*
X28252000Y-25088001D01*
X28250796Y-25112505D01*
X28247196Y-25136773D01*
X28241235Y-25160572D01*
X28232970Y-25183671D01*
X28222480Y-25205850D01*
X28209868Y-25226893D01*
X28195253Y-25246599D01*
X28178777Y-25264777D01*
X28160599Y-25281253D01*
X28140893Y-25295868D01*
X28119850Y-25308480D01*
X28097671Y-25318970D01*
X28074572Y-25327235D01*
X28050773Y-25333196D01*
X28026505Y-25336796D01*
X28002001Y-25338000D01*
X27351999Y-25338000D01*
X27327495Y-25336796D01*
X27303227Y-25333196D01*
X27279428Y-25327235D01*
X27256329Y-25318970D01*
X27234150Y-25308480D01*
X27213107Y-25295868D01*
X27193401Y-25281253D01*
X27175223Y-25264777D01*
X27158747Y-25246599D01*
X27144132Y-25226893D01*
X27131520Y-25205850D01*
X27121030Y-25183671D01*
X27112765Y-25160572D01*
X27106804Y-25136773D01*
X27103204Y-25112505D01*
X27102000Y-25088001D01*
X27102000Y-24187999D01*
X27103204Y-24163495D01*
X27106804Y-24139227D01*
X27112765Y-24115428D01*
X27121030Y-24092329D01*
X27131520Y-24070150D01*
X27144132Y-24049107D01*
X27158747Y-24029401D01*
X27175223Y-24011223D01*
X27193401Y-23994747D01*
X27213107Y-23980132D01*
X27234150Y-23967520D01*
X27256329Y-23957030D01*
X27279428Y-23948765D01*
X27303227Y-23942804D01*
X27327495Y-23939204D01*
X27351999Y-23938000D01*
X28002001Y-23938000D01*
X28026505Y-23939204D01*
X28026505Y-23939204D01*
G37*
D18*
X27677000Y-24638000D03*
D19*
X31496000Y-36322000D03*
X27432000Y-12954000D03*
X3556000Y-45466000D03*
D17*
G36*
X23962505Y-38925204D02*
G01*
X23986773Y-38928804D01*
X24010572Y-38934765D01*
X24033671Y-38943030D01*
X24055850Y-38953520D01*
X24076893Y-38966132D01*
X24096599Y-38980747D01*
X24114777Y-38997223D01*
X24131253Y-39015401D01*
X24145868Y-39035107D01*
X24158480Y-39056150D01*
X24168970Y-39078329D01*
X24177235Y-39101428D01*
X24183196Y-39125227D01*
X24186796Y-39149495D01*
X24188000Y-39173999D01*
X24188000Y-40074001D01*
X24186796Y-40098505D01*
X24183196Y-40122773D01*
X24177235Y-40146572D01*
X24168970Y-40169671D01*
X24158480Y-40191850D01*
X24145868Y-40212893D01*
X24131253Y-40232599D01*
X24114777Y-40250777D01*
X24096599Y-40267253D01*
X24076893Y-40281868D01*
X24055850Y-40294480D01*
X24033671Y-40304970D01*
X24010572Y-40313235D01*
X23986773Y-40319196D01*
X23962505Y-40322796D01*
X23938001Y-40324000D01*
X23287999Y-40324000D01*
X23263495Y-40322796D01*
X23239227Y-40319196D01*
X23215428Y-40313235D01*
X23192329Y-40304970D01*
X23170150Y-40294480D01*
X23149107Y-40281868D01*
X23129401Y-40267253D01*
X23111223Y-40250777D01*
X23094747Y-40232599D01*
X23080132Y-40212893D01*
X23067520Y-40191850D01*
X23057030Y-40169671D01*
X23048765Y-40146572D01*
X23042804Y-40122773D01*
X23039204Y-40098505D01*
X23038000Y-40074001D01*
X23038000Y-39173999D01*
X23039204Y-39149495D01*
X23042804Y-39125227D01*
X23048765Y-39101428D01*
X23057030Y-39078329D01*
X23067520Y-39056150D01*
X23080132Y-39035107D01*
X23094747Y-39015401D01*
X23111223Y-38997223D01*
X23129401Y-38980747D01*
X23149107Y-38966132D01*
X23170150Y-38953520D01*
X23192329Y-38943030D01*
X23215428Y-38934765D01*
X23239227Y-38928804D01*
X23263495Y-38925204D01*
X23287999Y-38924000D01*
X23938001Y-38924000D01*
X23962505Y-38925204D01*
X23962505Y-38925204D01*
G37*
D18*
X23613000Y-39624000D03*
D17*
G36*
X26012505Y-38925204D02*
G01*
X26036773Y-38928804D01*
X26060572Y-38934765D01*
X26083671Y-38943030D01*
X26105850Y-38953520D01*
X26126893Y-38966132D01*
X26146599Y-38980747D01*
X26164777Y-38997223D01*
X26181253Y-39015401D01*
X26195868Y-39035107D01*
X26208480Y-39056150D01*
X26218970Y-39078329D01*
X26227235Y-39101428D01*
X26233196Y-39125227D01*
X26236796Y-39149495D01*
X26238000Y-39173999D01*
X26238000Y-40074001D01*
X26236796Y-40098505D01*
X26233196Y-40122773D01*
X26227235Y-40146572D01*
X26218970Y-40169671D01*
X26208480Y-40191850D01*
X26195868Y-40212893D01*
X26181253Y-40232599D01*
X26164777Y-40250777D01*
X26146599Y-40267253D01*
X26126893Y-40281868D01*
X26105850Y-40294480D01*
X26083671Y-40304970D01*
X26060572Y-40313235D01*
X26036773Y-40319196D01*
X26012505Y-40322796D01*
X25988001Y-40324000D01*
X25337999Y-40324000D01*
X25313495Y-40322796D01*
X25289227Y-40319196D01*
X25265428Y-40313235D01*
X25242329Y-40304970D01*
X25220150Y-40294480D01*
X25199107Y-40281868D01*
X25179401Y-40267253D01*
X25161223Y-40250777D01*
X25144747Y-40232599D01*
X25130132Y-40212893D01*
X25117520Y-40191850D01*
X25107030Y-40169671D01*
X25098765Y-40146572D01*
X25092804Y-40122773D01*
X25089204Y-40098505D01*
X25088000Y-40074001D01*
X25088000Y-39173999D01*
X25089204Y-39149495D01*
X25092804Y-39125227D01*
X25098765Y-39101428D01*
X25107030Y-39078329D01*
X25117520Y-39056150D01*
X25130132Y-39035107D01*
X25144747Y-39015401D01*
X25161223Y-38997223D01*
X25179401Y-38980747D01*
X25199107Y-38966132D01*
X25220150Y-38953520D01*
X25242329Y-38943030D01*
X25265428Y-38934765D01*
X25289227Y-38928804D01*
X25313495Y-38925204D01*
X25337999Y-38924000D01*
X25988001Y-38924000D01*
X26012505Y-38925204D01*
X26012505Y-38925204D01*
G37*
D18*
X25663000Y-39624000D03*
D20*
X33274000Y-32893000D03*
X27686000Y-32893000D03*
X33274000Y-29083000D03*
X27686000Y-29083000D03*
D17*
G36*
X3825504Y-33924204D02*
G01*
X3849773Y-33927804D01*
X3873571Y-33933765D01*
X3896671Y-33942030D01*
X3918849Y-33952520D01*
X3939893Y-33965133D01*
X3959598Y-33979747D01*
X3977777Y-33996223D01*
X3994253Y-34014402D01*
X4008867Y-34034107D01*
X4021480Y-34055151D01*
X4031970Y-34077329D01*
X4040235Y-34100429D01*
X4046196Y-34124227D01*
X4049796Y-34148496D01*
X4051000Y-34173000D01*
X4051000Y-35423000D01*
X4049796Y-35447504D01*
X4046196Y-35471773D01*
X4040235Y-35495571D01*
X4031970Y-35518671D01*
X4021480Y-35540849D01*
X4008867Y-35561893D01*
X3994253Y-35581598D01*
X3977777Y-35599777D01*
X3959598Y-35616253D01*
X3939893Y-35630867D01*
X3918849Y-35643480D01*
X3896671Y-35653970D01*
X3873571Y-35662235D01*
X3849773Y-35668196D01*
X3825504Y-35671796D01*
X3801000Y-35673000D01*
X2876000Y-35673000D01*
X2851496Y-35671796D01*
X2827227Y-35668196D01*
X2803429Y-35662235D01*
X2780329Y-35653970D01*
X2758151Y-35643480D01*
X2737107Y-35630867D01*
X2717402Y-35616253D01*
X2699223Y-35599777D01*
X2682747Y-35581598D01*
X2668133Y-35561893D01*
X2655520Y-35540849D01*
X2645030Y-35518671D01*
X2636765Y-35495571D01*
X2630804Y-35471773D01*
X2627204Y-35447504D01*
X2626000Y-35423000D01*
X2626000Y-34173000D01*
X2627204Y-34148496D01*
X2630804Y-34124227D01*
X2636765Y-34100429D01*
X2645030Y-34077329D01*
X2655520Y-34055151D01*
X2668133Y-34034107D01*
X2682747Y-34014402D01*
X2699223Y-33996223D01*
X2717402Y-33979747D01*
X2737107Y-33965133D01*
X2758151Y-33952520D01*
X2780329Y-33942030D01*
X2803429Y-33933765D01*
X2827227Y-33927804D01*
X2851496Y-33924204D01*
X2876000Y-33923000D01*
X3801000Y-33923000D01*
X3825504Y-33924204D01*
X3825504Y-33924204D01*
G37*
D21*
X3338500Y-34798000D03*
D17*
G36*
X6800504Y-33924204D02*
G01*
X6824773Y-33927804D01*
X6848571Y-33933765D01*
X6871671Y-33942030D01*
X6893849Y-33952520D01*
X6914893Y-33965133D01*
X6934598Y-33979747D01*
X6952777Y-33996223D01*
X6969253Y-34014402D01*
X6983867Y-34034107D01*
X6996480Y-34055151D01*
X7006970Y-34077329D01*
X7015235Y-34100429D01*
X7021196Y-34124227D01*
X7024796Y-34148496D01*
X7026000Y-34173000D01*
X7026000Y-35423000D01*
X7024796Y-35447504D01*
X7021196Y-35471773D01*
X7015235Y-35495571D01*
X7006970Y-35518671D01*
X6996480Y-35540849D01*
X6983867Y-35561893D01*
X6969253Y-35581598D01*
X6952777Y-35599777D01*
X6934598Y-35616253D01*
X6914893Y-35630867D01*
X6893849Y-35643480D01*
X6871671Y-35653970D01*
X6848571Y-35662235D01*
X6824773Y-35668196D01*
X6800504Y-35671796D01*
X6776000Y-35673000D01*
X5851000Y-35673000D01*
X5826496Y-35671796D01*
X5802227Y-35668196D01*
X5778429Y-35662235D01*
X5755329Y-35653970D01*
X5733151Y-35643480D01*
X5712107Y-35630867D01*
X5692402Y-35616253D01*
X5674223Y-35599777D01*
X5657747Y-35581598D01*
X5643133Y-35561893D01*
X5630520Y-35540849D01*
X5620030Y-35518671D01*
X5611765Y-35495571D01*
X5605804Y-35471773D01*
X5602204Y-35447504D01*
X5601000Y-35423000D01*
X5601000Y-34173000D01*
X5602204Y-34148496D01*
X5605804Y-34124227D01*
X5611765Y-34100429D01*
X5620030Y-34077329D01*
X5630520Y-34055151D01*
X5643133Y-34034107D01*
X5657747Y-34014402D01*
X5674223Y-33996223D01*
X5692402Y-33979747D01*
X5712107Y-33965133D01*
X5733151Y-33952520D01*
X5755329Y-33942030D01*
X5778429Y-33933765D01*
X5802227Y-33927804D01*
X5826496Y-33924204D01*
X5851000Y-33923000D01*
X6776000Y-33923000D01*
X6800504Y-33924204D01*
X6800504Y-33924204D01*
G37*
D21*
X6313500Y-34798000D03*
D17*
G36*
X3825504Y-30368204D02*
G01*
X3849773Y-30371804D01*
X3873571Y-30377765D01*
X3896671Y-30386030D01*
X3918849Y-30396520D01*
X3939893Y-30409133D01*
X3959598Y-30423747D01*
X3977777Y-30440223D01*
X3994253Y-30458402D01*
X4008867Y-30478107D01*
X4021480Y-30499151D01*
X4031970Y-30521329D01*
X4040235Y-30544429D01*
X4046196Y-30568227D01*
X4049796Y-30592496D01*
X4051000Y-30617000D01*
X4051000Y-31867000D01*
X4049796Y-31891504D01*
X4046196Y-31915773D01*
X4040235Y-31939571D01*
X4031970Y-31962671D01*
X4021480Y-31984849D01*
X4008867Y-32005893D01*
X3994253Y-32025598D01*
X3977777Y-32043777D01*
X3959598Y-32060253D01*
X3939893Y-32074867D01*
X3918849Y-32087480D01*
X3896671Y-32097970D01*
X3873571Y-32106235D01*
X3849773Y-32112196D01*
X3825504Y-32115796D01*
X3801000Y-32117000D01*
X2876000Y-32117000D01*
X2851496Y-32115796D01*
X2827227Y-32112196D01*
X2803429Y-32106235D01*
X2780329Y-32097970D01*
X2758151Y-32087480D01*
X2737107Y-32074867D01*
X2717402Y-32060253D01*
X2699223Y-32043777D01*
X2682747Y-32025598D01*
X2668133Y-32005893D01*
X2655520Y-31984849D01*
X2645030Y-31962671D01*
X2636765Y-31939571D01*
X2630804Y-31915773D01*
X2627204Y-31891504D01*
X2626000Y-31867000D01*
X2626000Y-30617000D01*
X2627204Y-30592496D01*
X2630804Y-30568227D01*
X2636765Y-30544429D01*
X2645030Y-30521329D01*
X2655520Y-30499151D01*
X2668133Y-30478107D01*
X2682747Y-30458402D01*
X2699223Y-30440223D01*
X2717402Y-30423747D01*
X2737107Y-30409133D01*
X2758151Y-30396520D01*
X2780329Y-30386030D01*
X2803429Y-30377765D01*
X2827227Y-30371804D01*
X2851496Y-30368204D01*
X2876000Y-30367000D01*
X3801000Y-30367000D01*
X3825504Y-30368204D01*
X3825504Y-30368204D01*
G37*
D21*
X3338500Y-31242000D03*
D17*
G36*
X6800504Y-30368204D02*
G01*
X6824773Y-30371804D01*
X6848571Y-30377765D01*
X6871671Y-30386030D01*
X6893849Y-30396520D01*
X6914893Y-30409133D01*
X6934598Y-30423747D01*
X6952777Y-30440223D01*
X6969253Y-30458402D01*
X6983867Y-30478107D01*
X6996480Y-30499151D01*
X7006970Y-30521329D01*
X7015235Y-30544429D01*
X7021196Y-30568227D01*
X7024796Y-30592496D01*
X7026000Y-30617000D01*
X7026000Y-31867000D01*
X7024796Y-31891504D01*
X7021196Y-31915773D01*
X7015235Y-31939571D01*
X7006970Y-31962671D01*
X6996480Y-31984849D01*
X6983867Y-32005893D01*
X6969253Y-32025598D01*
X6952777Y-32043777D01*
X6934598Y-32060253D01*
X6914893Y-32074867D01*
X6893849Y-32087480D01*
X6871671Y-32097970D01*
X6848571Y-32106235D01*
X6824773Y-32112196D01*
X6800504Y-32115796D01*
X6776000Y-32117000D01*
X5851000Y-32117000D01*
X5826496Y-32115796D01*
X5802227Y-32112196D01*
X5778429Y-32106235D01*
X5755329Y-32097970D01*
X5733151Y-32087480D01*
X5712107Y-32074867D01*
X5692402Y-32060253D01*
X5674223Y-32043777D01*
X5657747Y-32025598D01*
X5643133Y-32005893D01*
X5630520Y-31984849D01*
X5620030Y-31962671D01*
X5611765Y-31939571D01*
X5605804Y-31915773D01*
X5602204Y-31891504D01*
X5601000Y-31867000D01*
X5601000Y-30617000D01*
X5602204Y-30592496D01*
X5605804Y-30568227D01*
X5611765Y-30544429D01*
X5620030Y-30521329D01*
X5630520Y-30499151D01*
X5643133Y-30478107D01*
X5657747Y-30458402D01*
X5674223Y-30440223D01*
X5692402Y-30423747D01*
X5712107Y-30409133D01*
X5733151Y-30396520D01*
X5755329Y-30386030D01*
X5778429Y-30377765D01*
X5802227Y-30371804D01*
X5826496Y-30368204D01*
X5851000Y-30367000D01*
X6776000Y-30367000D01*
X6800504Y-30368204D01*
X6800504Y-30368204D01*
G37*
D21*
X6313500Y-31242000D03*
D17*
G36*
X3825504Y-37734204D02*
G01*
X3849773Y-37737804D01*
X3873571Y-37743765D01*
X3896671Y-37752030D01*
X3918849Y-37762520D01*
X3939893Y-37775133D01*
X3959598Y-37789747D01*
X3977777Y-37806223D01*
X3994253Y-37824402D01*
X4008867Y-37844107D01*
X4021480Y-37865151D01*
X4031970Y-37887329D01*
X4040235Y-37910429D01*
X4046196Y-37934227D01*
X4049796Y-37958496D01*
X4051000Y-37983000D01*
X4051000Y-39233000D01*
X4049796Y-39257504D01*
X4046196Y-39281773D01*
X4040235Y-39305571D01*
X4031970Y-39328671D01*
X4021480Y-39350849D01*
X4008867Y-39371893D01*
X3994253Y-39391598D01*
X3977777Y-39409777D01*
X3959598Y-39426253D01*
X3939893Y-39440867D01*
X3918849Y-39453480D01*
X3896671Y-39463970D01*
X3873571Y-39472235D01*
X3849773Y-39478196D01*
X3825504Y-39481796D01*
X3801000Y-39483000D01*
X2876000Y-39483000D01*
X2851496Y-39481796D01*
X2827227Y-39478196D01*
X2803429Y-39472235D01*
X2780329Y-39463970D01*
X2758151Y-39453480D01*
X2737107Y-39440867D01*
X2717402Y-39426253D01*
X2699223Y-39409777D01*
X2682747Y-39391598D01*
X2668133Y-39371893D01*
X2655520Y-39350849D01*
X2645030Y-39328671D01*
X2636765Y-39305571D01*
X2630804Y-39281773D01*
X2627204Y-39257504D01*
X2626000Y-39233000D01*
X2626000Y-37983000D01*
X2627204Y-37958496D01*
X2630804Y-37934227D01*
X2636765Y-37910429D01*
X2645030Y-37887329D01*
X2655520Y-37865151D01*
X2668133Y-37844107D01*
X2682747Y-37824402D01*
X2699223Y-37806223D01*
X2717402Y-37789747D01*
X2737107Y-37775133D01*
X2758151Y-37762520D01*
X2780329Y-37752030D01*
X2803429Y-37743765D01*
X2827227Y-37737804D01*
X2851496Y-37734204D01*
X2876000Y-37733000D01*
X3801000Y-37733000D01*
X3825504Y-37734204D01*
X3825504Y-37734204D01*
G37*
D21*
X3338500Y-38608000D03*
D17*
G36*
X6800504Y-37734204D02*
G01*
X6824773Y-37737804D01*
X6848571Y-37743765D01*
X6871671Y-37752030D01*
X6893849Y-37762520D01*
X6914893Y-37775133D01*
X6934598Y-37789747D01*
X6952777Y-37806223D01*
X6969253Y-37824402D01*
X6983867Y-37844107D01*
X6996480Y-37865151D01*
X7006970Y-37887329D01*
X7015235Y-37910429D01*
X7021196Y-37934227D01*
X7024796Y-37958496D01*
X7026000Y-37983000D01*
X7026000Y-39233000D01*
X7024796Y-39257504D01*
X7021196Y-39281773D01*
X7015235Y-39305571D01*
X7006970Y-39328671D01*
X6996480Y-39350849D01*
X6983867Y-39371893D01*
X6969253Y-39391598D01*
X6952777Y-39409777D01*
X6934598Y-39426253D01*
X6914893Y-39440867D01*
X6893849Y-39453480D01*
X6871671Y-39463970D01*
X6848571Y-39472235D01*
X6824773Y-39478196D01*
X6800504Y-39481796D01*
X6776000Y-39483000D01*
X5851000Y-39483000D01*
X5826496Y-39481796D01*
X5802227Y-39478196D01*
X5778429Y-39472235D01*
X5755329Y-39463970D01*
X5733151Y-39453480D01*
X5712107Y-39440867D01*
X5692402Y-39426253D01*
X5674223Y-39409777D01*
X5657747Y-39391598D01*
X5643133Y-39371893D01*
X5630520Y-39350849D01*
X5620030Y-39328671D01*
X5611765Y-39305571D01*
X5605804Y-39281773D01*
X5602204Y-39257504D01*
X5601000Y-39233000D01*
X5601000Y-37983000D01*
X5602204Y-37958496D01*
X5605804Y-37934227D01*
X5611765Y-37910429D01*
X5620030Y-37887329D01*
X5630520Y-37865151D01*
X5643133Y-37844107D01*
X5657747Y-37824402D01*
X5674223Y-37806223D01*
X5692402Y-37789747D01*
X5712107Y-37775133D01*
X5733151Y-37762520D01*
X5755329Y-37752030D01*
X5778429Y-37743765D01*
X5802227Y-37737804D01*
X5826496Y-37734204D01*
X5851000Y-37733000D01*
X6776000Y-37733000D01*
X6800504Y-37734204D01*
X6800504Y-37734204D01*
G37*
D21*
X6313500Y-38608000D03*
D17*
G36*
X11650505Y-23946204D02*
G01*
X11674773Y-23949804D01*
X11698572Y-23955765D01*
X11721671Y-23964030D01*
X11743850Y-23974520D01*
X11764893Y-23987132D01*
X11784599Y-24001747D01*
X11802777Y-24018223D01*
X11819253Y-24036401D01*
X11833868Y-24056107D01*
X11846480Y-24077150D01*
X11856970Y-24099329D01*
X11865235Y-24122428D01*
X11871196Y-24146227D01*
X11874796Y-24170495D01*
X11876000Y-24194999D01*
X11876000Y-24845001D01*
X11874796Y-24869505D01*
X11871196Y-24893773D01*
X11865235Y-24917572D01*
X11856970Y-24940671D01*
X11846480Y-24962850D01*
X11833868Y-24983893D01*
X11819253Y-25003599D01*
X11802777Y-25021777D01*
X11784599Y-25038253D01*
X11764893Y-25052868D01*
X11743850Y-25065480D01*
X11721671Y-25075970D01*
X11698572Y-25084235D01*
X11674773Y-25090196D01*
X11650505Y-25093796D01*
X11626001Y-25095000D01*
X10725999Y-25095000D01*
X10701495Y-25093796D01*
X10677227Y-25090196D01*
X10653428Y-25084235D01*
X10630329Y-25075970D01*
X10608150Y-25065480D01*
X10587107Y-25052868D01*
X10567401Y-25038253D01*
X10549223Y-25021777D01*
X10532747Y-25003599D01*
X10518132Y-24983893D01*
X10505520Y-24962850D01*
X10495030Y-24940671D01*
X10486765Y-24917572D01*
X10480804Y-24893773D01*
X10477204Y-24869505D01*
X10476000Y-24845001D01*
X10476000Y-24194999D01*
X10477204Y-24170495D01*
X10480804Y-24146227D01*
X10486765Y-24122428D01*
X10495030Y-24099329D01*
X10505520Y-24077150D01*
X10518132Y-24056107D01*
X10532747Y-24036401D01*
X10549223Y-24018223D01*
X10567401Y-24001747D01*
X10587107Y-23987132D01*
X10608150Y-23974520D01*
X10630329Y-23964030D01*
X10653428Y-23955765D01*
X10677227Y-23949804D01*
X10701495Y-23946204D01*
X10725999Y-23945000D01*
X11626001Y-23945000D01*
X11650505Y-23946204D01*
X11650505Y-23946204D01*
G37*
D18*
X11176000Y-24520000D03*
D17*
G36*
X11650505Y-21896204D02*
G01*
X11674773Y-21899804D01*
X11698572Y-21905765D01*
X11721671Y-21914030D01*
X11743850Y-21924520D01*
X11764893Y-21937132D01*
X11784599Y-21951747D01*
X11802777Y-21968223D01*
X11819253Y-21986401D01*
X11833868Y-22006107D01*
X11846480Y-22027150D01*
X11856970Y-22049329D01*
X11865235Y-22072428D01*
X11871196Y-22096227D01*
X11874796Y-22120495D01*
X11876000Y-22144999D01*
X11876000Y-22795001D01*
X11874796Y-22819505D01*
X11871196Y-22843773D01*
X11865235Y-22867572D01*
X11856970Y-22890671D01*
X11846480Y-22912850D01*
X11833868Y-22933893D01*
X11819253Y-22953599D01*
X11802777Y-22971777D01*
X11784599Y-22988253D01*
X11764893Y-23002868D01*
X11743850Y-23015480D01*
X11721671Y-23025970D01*
X11698572Y-23034235D01*
X11674773Y-23040196D01*
X11650505Y-23043796D01*
X11626001Y-23045000D01*
X10725999Y-23045000D01*
X10701495Y-23043796D01*
X10677227Y-23040196D01*
X10653428Y-23034235D01*
X10630329Y-23025970D01*
X10608150Y-23015480D01*
X10587107Y-23002868D01*
X10567401Y-22988253D01*
X10549223Y-22971777D01*
X10532747Y-22953599D01*
X10518132Y-22933893D01*
X10505520Y-22912850D01*
X10495030Y-22890671D01*
X10486765Y-22867572D01*
X10480804Y-22843773D01*
X10477204Y-22819505D01*
X10476000Y-22795001D01*
X10476000Y-22144999D01*
X10477204Y-22120495D01*
X10480804Y-22096227D01*
X10486765Y-22072428D01*
X10495030Y-22049329D01*
X10505520Y-22027150D01*
X10518132Y-22006107D01*
X10532747Y-21986401D01*
X10549223Y-21968223D01*
X10567401Y-21951747D01*
X10587107Y-21937132D01*
X10608150Y-21924520D01*
X10630329Y-21914030D01*
X10653428Y-21905765D01*
X10677227Y-21899804D01*
X10701495Y-21896204D01*
X10725999Y-21895000D01*
X11626001Y-21895000D01*
X11650505Y-21896204D01*
X11650505Y-21896204D01*
G37*
D18*
X11176000Y-22470000D03*
D22*
X4572000Y-20901000D03*
X4572000Y-25781000D03*
D20*
X8128000Y-14859000D03*
X2540000Y-14859000D03*
X8128000Y-11049000D03*
X2540000Y-11049000D03*
X8128000Y-6985000D03*
X2540000Y-6985000D03*
X8128000Y-3175000D03*
X2540000Y-3175000D03*
D17*
G36*
X37696505Y-4127204D02*
G01*
X37720773Y-4130804D01*
X37744572Y-4136765D01*
X37767671Y-4145030D01*
X37789850Y-4155520D01*
X37810893Y-4168132D01*
X37830599Y-4182747D01*
X37848777Y-4199223D01*
X37865253Y-4217401D01*
X37879868Y-4237107D01*
X37892480Y-4258150D01*
X37902970Y-4280329D01*
X37911235Y-4303428D01*
X37917196Y-4327227D01*
X37920796Y-4351495D01*
X37922000Y-4375999D01*
X37922000Y-5276001D01*
X37920796Y-5300505D01*
X37917196Y-5324773D01*
X37911235Y-5348572D01*
X37902970Y-5371671D01*
X37892480Y-5393850D01*
X37879868Y-5414893D01*
X37865253Y-5434599D01*
X37848777Y-5452777D01*
X37830599Y-5469253D01*
X37810893Y-5483868D01*
X37789850Y-5496480D01*
X37767671Y-5506970D01*
X37744572Y-5515235D01*
X37720773Y-5521196D01*
X37696505Y-5524796D01*
X37672001Y-5526000D01*
X37021999Y-5526000D01*
X36997495Y-5524796D01*
X36973227Y-5521196D01*
X36949428Y-5515235D01*
X36926329Y-5506970D01*
X36904150Y-5496480D01*
X36883107Y-5483868D01*
X36863401Y-5469253D01*
X36845223Y-5452777D01*
X36828747Y-5434599D01*
X36814132Y-5414893D01*
X36801520Y-5393850D01*
X36791030Y-5371671D01*
X36782765Y-5348572D01*
X36776804Y-5324773D01*
X36773204Y-5300505D01*
X36772000Y-5276001D01*
X36772000Y-4375999D01*
X36773204Y-4351495D01*
X36776804Y-4327227D01*
X36782765Y-4303428D01*
X36791030Y-4280329D01*
X36801520Y-4258150D01*
X36814132Y-4237107D01*
X36828747Y-4217401D01*
X36845223Y-4199223D01*
X36863401Y-4182747D01*
X36883107Y-4168132D01*
X36904150Y-4155520D01*
X36926329Y-4145030D01*
X36949428Y-4136765D01*
X36973227Y-4130804D01*
X36997495Y-4127204D01*
X37021999Y-4126000D01*
X37672001Y-4126000D01*
X37696505Y-4127204D01*
X37696505Y-4127204D01*
G37*
D18*
X37347000Y-4826000D03*
D17*
G36*
X35646505Y-4127204D02*
G01*
X35670773Y-4130804D01*
X35694572Y-4136765D01*
X35717671Y-4145030D01*
X35739850Y-4155520D01*
X35760893Y-4168132D01*
X35780599Y-4182747D01*
X35798777Y-4199223D01*
X35815253Y-4217401D01*
X35829868Y-4237107D01*
X35842480Y-4258150D01*
X35852970Y-4280329D01*
X35861235Y-4303428D01*
X35867196Y-4327227D01*
X35870796Y-4351495D01*
X35872000Y-4375999D01*
X35872000Y-5276001D01*
X35870796Y-5300505D01*
X35867196Y-5324773D01*
X35861235Y-5348572D01*
X35852970Y-5371671D01*
X35842480Y-5393850D01*
X35829868Y-5414893D01*
X35815253Y-5434599D01*
X35798777Y-5452777D01*
X35780599Y-5469253D01*
X35760893Y-5483868D01*
X35739850Y-5496480D01*
X35717671Y-5506970D01*
X35694572Y-5515235D01*
X35670773Y-5521196D01*
X35646505Y-5524796D01*
X35622001Y-5526000D01*
X34971999Y-5526000D01*
X34947495Y-5524796D01*
X34923227Y-5521196D01*
X34899428Y-5515235D01*
X34876329Y-5506970D01*
X34854150Y-5496480D01*
X34833107Y-5483868D01*
X34813401Y-5469253D01*
X34795223Y-5452777D01*
X34778747Y-5434599D01*
X34764132Y-5414893D01*
X34751520Y-5393850D01*
X34741030Y-5371671D01*
X34732765Y-5348572D01*
X34726804Y-5324773D01*
X34723204Y-5300505D01*
X34722000Y-5276001D01*
X34722000Y-4375999D01*
X34723204Y-4351495D01*
X34726804Y-4327227D01*
X34732765Y-4303428D01*
X34741030Y-4280329D01*
X34751520Y-4258150D01*
X34764132Y-4237107D01*
X34778747Y-4217401D01*
X34795223Y-4199223D01*
X34813401Y-4182747D01*
X34833107Y-4168132D01*
X34854150Y-4155520D01*
X34876329Y-4145030D01*
X34899428Y-4136765D01*
X34923227Y-4130804D01*
X34947495Y-4127204D01*
X34971999Y-4126000D01*
X35622001Y-4126000D01*
X35646505Y-4127204D01*
X35646505Y-4127204D01*
G37*
D18*
X35297000Y-4826000D03*
D17*
G36*
X32852505Y-38925204D02*
G01*
X32876773Y-38928804D01*
X32900572Y-38934765D01*
X32923671Y-38943030D01*
X32945850Y-38953520D01*
X32966893Y-38966132D01*
X32986599Y-38980747D01*
X33004777Y-38997223D01*
X33021253Y-39015401D01*
X33035868Y-39035107D01*
X33048480Y-39056150D01*
X33058970Y-39078329D01*
X33067235Y-39101428D01*
X33073196Y-39125227D01*
X33076796Y-39149495D01*
X33078000Y-39173999D01*
X33078000Y-40074001D01*
X33076796Y-40098505D01*
X33073196Y-40122773D01*
X33067235Y-40146572D01*
X33058970Y-40169671D01*
X33048480Y-40191850D01*
X33035868Y-40212893D01*
X33021253Y-40232599D01*
X33004777Y-40250777D01*
X32986599Y-40267253D01*
X32966893Y-40281868D01*
X32945850Y-40294480D01*
X32923671Y-40304970D01*
X32900572Y-40313235D01*
X32876773Y-40319196D01*
X32852505Y-40322796D01*
X32828001Y-40324000D01*
X32177999Y-40324000D01*
X32153495Y-40322796D01*
X32129227Y-40319196D01*
X32105428Y-40313235D01*
X32082329Y-40304970D01*
X32060150Y-40294480D01*
X32039107Y-40281868D01*
X32019401Y-40267253D01*
X32001223Y-40250777D01*
X31984747Y-40232599D01*
X31970132Y-40212893D01*
X31957520Y-40191850D01*
X31947030Y-40169671D01*
X31938765Y-40146572D01*
X31932804Y-40122773D01*
X31929204Y-40098505D01*
X31928000Y-40074001D01*
X31928000Y-39173999D01*
X31929204Y-39149495D01*
X31932804Y-39125227D01*
X31938765Y-39101428D01*
X31947030Y-39078329D01*
X31957520Y-39056150D01*
X31970132Y-39035107D01*
X31984747Y-39015401D01*
X32001223Y-38997223D01*
X32019401Y-38980747D01*
X32039107Y-38966132D01*
X32060150Y-38953520D01*
X32082329Y-38943030D01*
X32105428Y-38934765D01*
X32129227Y-38928804D01*
X32153495Y-38925204D01*
X32177999Y-38924000D01*
X32828001Y-38924000D01*
X32852505Y-38925204D01*
X32852505Y-38925204D01*
G37*
D18*
X32503000Y-39624000D03*
D17*
G36*
X34902505Y-38925204D02*
G01*
X34926773Y-38928804D01*
X34950572Y-38934765D01*
X34973671Y-38943030D01*
X34995850Y-38953520D01*
X35016893Y-38966132D01*
X35036599Y-38980747D01*
X35054777Y-38997223D01*
X35071253Y-39015401D01*
X35085868Y-39035107D01*
X35098480Y-39056150D01*
X35108970Y-39078329D01*
X35117235Y-39101428D01*
X35123196Y-39125227D01*
X35126796Y-39149495D01*
X35128000Y-39173999D01*
X35128000Y-40074001D01*
X35126796Y-40098505D01*
X35123196Y-40122773D01*
X35117235Y-40146572D01*
X35108970Y-40169671D01*
X35098480Y-40191850D01*
X35085868Y-40212893D01*
X35071253Y-40232599D01*
X35054777Y-40250777D01*
X35036599Y-40267253D01*
X35016893Y-40281868D01*
X34995850Y-40294480D01*
X34973671Y-40304970D01*
X34950572Y-40313235D01*
X34926773Y-40319196D01*
X34902505Y-40322796D01*
X34878001Y-40324000D01*
X34227999Y-40324000D01*
X34203495Y-40322796D01*
X34179227Y-40319196D01*
X34155428Y-40313235D01*
X34132329Y-40304970D01*
X34110150Y-40294480D01*
X34089107Y-40281868D01*
X34069401Y-40267253D01*
X34051223Y-40250777D01*
X34034747Y-40232599D01*
X34020132Y-40212893D01*
X34007520Y-40191850D01*
X33997030Y-40169671D01*
X33988765Y-40146572D01*
X33982804Y-40122773D01*
X33979204Y-40098505D01*
X33978000Y-40074001D01*
X33978000Y-39173999D01*
X33979204Y-39149495D01*
X33982804Y-39125227D01*
X33988765Y-39101428D01*
X33997030Y-39078329D01*
X34007520Y-39056150D01*
X34020132Y-39035107D01*
X34034747Y-39015401D01*
X34051223Y-38997223D01*
X34069401Y-38980747D01*
X34089107Y-38966132D01*
X34110150Y-38953520D01*
X34132329Y-38943030D01*
X34155428Y-38934765D01*
X34179227Y-38928804D01*
X34203495Y-38925204D01*
X34227999Y-38924000D01*
X34878001Y-38924000D01*
X34902505Y-38925204D01*
X34902505Y-38925204D01*
G37*
D18*
X34553000Y-39624000D03*
D11*
X32385000Y-22225000D03*
X32385000Y-19685000D03*
X32385000Y-17145000D03*
X32385000Y-14605000D03*
X32385000Y-12065000D03*
X32385000Y-9525000D03*
D12*
X32385000Y-6985000D03*
D11*
X37465000Y-37465000D03*
X37465000Y-34925000D03*
X37465000Y-32385000D03*
X37465000Y-29845000D03*
X37465000Y-27305000D03*
D12*
X37465000Y-24765000D03*
D23*
X11938000Y-38608000D03*
D24*
X9398000Y-38608000D03*
D23*
X11938000Y-32004000D03*
D24*
X9398000Y-32004000D03*
D25*
X35560000Y-10194000D03*
X35560000Y-8094000D03*
D17*
G36*
X28280505Y-38925204D02*
G01*
X28304773Y-38928804D01*
X28328572Y-38934765D01*
X28351671Y-38943030D01*
X28373850Y-38953520D01*
X28394893Y-38966132D01*
X28414599Y-38980747D01*
X28432777Y-38997223D01*
X28449253Y-39015401D01*
X28463868Y-39035107D01*
X28476480Y-39056150D01*
X28486970Y-39078329D01*
X28495235Y-39101428D01*
X28501196Y-39125227D01*
X28504796Y-39149495D01*
X28506000Y-39173999D01*
X28506000Y-40074001D01*
X28504796Y-40098505D01*
X28501196Y-40122773D01*
X28495235Y-40146572D01*
X28486970Y-40169671D01*
X28476480Y-40191850D01*
X28463868Y-40212893D01*
X28449253Y-40232599D01*
X28432777Y-40250777D01*
X28414599Y-40267253D01*
X28394893Y-40281868D01*
X28373850Y-40294480D01*
X28351671Y-40304970D01*
X28328572Y-40313235D01*
X28304773Y-40319196D01*
X28280505Y-40322796D01*
X28256001Y-40324000D01*
X27605999Y-40324000D01*
X27581495Y-40322796D01*
X27557227Y-40319196D01*
X27533428Y-40313235D01*
X27510329Y-40304970D01*
X27488150Y-40294480D01*
X27467107Y-40281868D01*
X27447401Y-40267253D01*
X27429223Y-40250777D01*
X27412747Y-40232599D01*
X27398132Y-40212893D01*
X27385520Y-40191850D01*
X27375030Y-40169671D01*
X27366765Y-40146572D01*
X27360804Y-40122773D01*
X27357204Y-40098505D01*
X27356000Y-40074001D01*
X27356000Y-39173999D01*
X27357204Y-39149495D01*
X27360804Y-39125227D01*
X27366765Y-39101428D01*
X27375030Y-39078329D01*
X27385520Y-39056150D01*
X27398132Y-39035107D01*
X27412747Y-39015401D01*
X27429223Y-38997223D01*
X27447401Y-38980747D01*
X27467107Y-38966132D01*
X27488150Y-38953520D01*
X27510329Y-38943030D01*
X27533428Y-38934765D01*
X27557227Y-38928804D01*
X27581495Y-38925204D01*
X27605999Y-38924000D01*
X28256001Y-38924000D01*
X28280505Y-38925204D01*
X28280505Y-38925204D01*
G37*
D18*
X27931000Y-39624000D03*
D17*
G36*
X30330505Y-38925204D02*
G01*
X30354773Y-38928804D01*
X30378572Y-38934765D01*
X30401671Y-38943030D01*
X30423850Y-38953520D01*
X30444893Y-38966132D01*
X30464599Y-38980747D01*
X30482777Y-38997223D01*
X30499253Y-39015401D01*
X30513868Y-39035107D01*
X30526480Y-39056150D01*
X30536970Y-39078329D01*
X30545235Y-39101428D01*
X30551196Y-39125227D01*
X30554796Y-39149495D01*
X30556000Y-39173999D01*
X30556000Y-40074001D01*
X30554796Y-40098505D01*
X30551196Y-40122773D01*
X30545235Y-40146572D01*
X30536970Y-40169671D01*
X30526480Y-40191850D01*
X30513868Y-40212893D01*
X30499253Y-40232599D01*
X30482777Y-40250777D01*
X30464599Y-40267253D01*
X30444893Y-40281868D01*
X30423850Y-40294480D01*
X30401671Y-40304970D01*
X30378572Y-40313235D01*
X30354773Y-40319196D01*
X30330505Y-40322796D01*
X30306001Y-40324000D01*
X29655999Y-40324000D01*
X29631495Y-40322796D01*
X29607227Y-40319196D01*
X29583428Y-40313235D01*
X29560329Y-40304970D01*
X29538150Y-40294480D01*
X29517107Y-40281868D01*
X29497401Y-40267253D01*
X29479223Y-40250777D01*
X29462747Y-40232599D01*
X29448132Y-40212893D01*
X29435520Y-40191850D01*
X29425030Y-40169671D01*
X29416765Y-40146572D01*
X29410804Y-40122773D01*
X29407204Y-40098505D01*
X29406000Y-40074001D01*
X29406000Y-39173999D01*
X29407204Y-39149495D01*
X29410804Y-39125227D01*
X29416765Y-39101428D01*
X29425030Y-39078329D01*
X29435520Y-39056150D01*
X29448132Y-39035107D01*
X29462747Y-39015401D01*
X29479223Y-38997223D01*
X29497401Y-38980747D01*
X29517107Y-38966132D01*
X29538150Y-38953520D01*
X29560329Y-38943030D01*
X29583428Y-38934765D01*
X29607227Y-38928804D01*
X29631495Y-38925204D01*
X29655999Y-38924000D01*
X30306001Y-38924000D01*
X30330505Y-38925204D01*
X30330505Y-38925204D01*
G37*
D18*
X29981000Y-39624000D03*
D23*
X11938000Y-45212000D03*
D24*
X9398000Y-45212000D03*
D17*
G36*
X9618505Y-21914204D02*
G01*
X9642773Y-21917804D01*
X9666572Y-21923765D01*
X9689671Y-21932030D01*
X9711850Y-21942520D01*
X9732893Y-21955132D01*
X9752599Y-21969747D01*
X9770777Y-21986223D01*
X9787253Y-22004401D01*
X9801868Y-22024107D01*
X9814480Y-22045150D01*
X9824970Y-22067329D01*
X9833235Y-22090428D01*
X9839196Y-22114227D01*
X9842796Y-22138495D01*
X9844000Y-22162999D01*
X9844000Y-22813001D01*
X9842796Y-22837505D01*
X9839196Y-22861773D01*
X9833235Y-22885572D01*
X9824970Y-22908671D01*
X9814480Y-22930850D01*
X9801868Y-22951893D01*
X9787253Y-22971599D01*
X9770777Y-22989777D01*
X9752599Y-23006253D01*
X9732893Y-23020868D01*
X9711850Y-23033480D01*
X9689671Y-23043970D01*
X9666572Y-23052235D01*
X9642773Y-23058196D01*
X9618505Y-23061796D01*
X9594001Y-23063000D01*
X8693999Y-23063000D01*
X8669495Y-23061796D01*
X8645227Y-23058196D01*
X8621428Y-23052235D01*
X8598329Y-23043970D01*
X8576150Y-23033480D01*
X8555107Y-23020868D01*
X8535401Y-23006253D01*
X8517223Y-22989777D01*
X8500747Y-22971599D01*
X8486132Y-22951893D01*
X8473520Y-22930850D01*
X8463030Y-22908671D01*
X8454765Y-22885572D01*
X8448804Y-22861773D01*
X8445204Y-22837505D01*
X8444000Y-22813001D01*
X8444000Y-22162999D01*
X8445204Y-22138495D01*
X8448804Y-22114227D01*
X8454765Y-22090428D01*
X8463030Y-22067329D01*
X8473520Y-22045150D01*
X8486132Y-22024107D01*
X8500747Y-22004401D01*
X8517223Y-21986223D01*
X8535401Y-21969747D01*
X8555107Y-21955132D01*
X8576150Y-21942520D01*
X8598329Y-21932030D01*
X8621428Y-21923765D01*
X8645227Y-21917804D01*
X8669495Y-21914204D01*
X8693999Y-21913000D01*
X9594001Y-21913000D01*
X9618505Y-21914204D01*
X9618505Y-21914204D01*
G37*
D18*
X9144000Y-22488000D03*
D17*
G36*
X9618505Y-19864204D02*
G01*
X9642773Y-19867804D01*
X9666572Y-19873765D01*
X9689671Y-19882030D01*
X9711850Y-19892520D01*
X9732893Y-19905132D01*
X9752599Y-19919747D01*
X9770777Y-19936223D01*
X9787253Y-19954401D01*
X9801868Y-19974107D01*
X9814480Y-19995150D01*
X9824970Y-20017329D01*
X9833235Y-20040428D01*
X9839196Y-20064227D01*
X9842796Y-20088495D01*
X9844000Y-20112999D01*
X9844000Y-20763001D01*
X9842796Y-20787505D01*
X9839196Y-20811773D01*
X9833235Y-20835572D01*
X9824970Y-20858671D01*
X9814480Y-20880850D01*
X9801868Y-20901893D01*
X9787253Y-20921599D01*
X9770777Y-20939777D01*
X9752599Y-20956253D01*
X9732893Y-20970868D01*
X9711850Y-20983480D01*
X9689671Y-20993970D01*
X9666572Y-21002235D01*
X9642773Y-21008196D01*
X9618505Y-21011796D01*
X9594001Y-21013000D01*
X8693999Y-21013000D01*
X8669495Y-21011796D01*
X8645227Y-21008196D01*
X8621428Y-21002235D01*
X8598329Y-20993970D01*
X8576150Y-20983480D01*
X8555107Y-20970868D01*
X8535401Y-20956253D01*
X8517223Y-20939777D01*
X8500747Y-20921599D01*
X8486132Y-20901893D01*
X8473520Y-20880850D01*
X8463030Y-20858671D01*
X8454765Y-20835572D01*
X8448804Y-20811773D01*
X8445204Y-20787505D01*
X8444000Y-20763001D01*
X8444000Y-20112999D01*
X8445204Y-20088495D01*
X8448804Y-20064227D01*
X8454765Y-20040428D01*
X8463030Y-20017329D01*
X8473520Y-19995150D01*
X8486132Y-19974107D01*
X8500747Y-19954401D01*
X8517223Y-19936223D01*
X8535401Y-19919747D01*
X8555107Y-19905132D01*
X8576150Y-19892520D01*
X8598329Y-19882030D01*
X8621428Y-19873765D01*
X8645227Y-19867804D01*
X8669495Y-19864204D01*
X8693999Y-19863000D01*
X9594001Y-19863000D01*
X9618505Y-19864204D01*
X9618505Y-19864204D01*
G37*
D18*
X9144000Y-20438000D03*
D17*
G36*
X13555505Y-23928204D02*
G01*
X13579773Y-23931804D01*
X13603572Y-23937765D01*
X13626671Y-23946030D01*
X13648850Y-23956520D01*
X13669893Y-23969132D01*
X13689599Y-23983747D01*
X13707777Y-24000223D01*
X13724253Y-24018401D01*
X13738868Y-24038107D01*
X13751480Y-24059150D01*
X13761970Y-24081329D01*
X13770235Y-24104428D01*
X13776196Y-24128227D01*
X13779796Y-24152495D01*
X13781000Y-24176999D01*
X13781000Y-24827001D01*
X13779796Y-24851505D01*
X13776196Y-24875773D01*
X13770235Y-24899572D01*
X13761970Y-24922671D01*
X13751480Y-24944850D01*
X13738868Y-24965893D01*
X13724253Y-24985599D01*
X13707777Y-25003777D01*
X13689599Y-25020253D01*
X13669893Y-25034868D01*
X13648850Y-25047480D01*
X13626671Y-25057970D01*
X13603572Y-25066235D01*
X13579773Y-25072196D01*
X13555505Y-25075796D01*
X13531001Y-25077000D01*
X12630999Y-25077000D01*
X12606495Y-25075796D01*
X12582227Y-25072196D01*
X12558428Y-25066235D01*
X12535329Y-25057970D01*
X12513150Y-25047480D01*
X12492107Y-25034868D01*
X12472401Y-25020253D01*
X12454223Y-25003777D01*
X12437747Y-24985599D01*
X12423132Y-24965893D01*
X12410520Y-24944850D01*
X12400030Y-24922671D01*
X12391765Y-24899572D01*
X12385804Y-24875773D01*
X12382204Y-24851505D01*
X12381000Y-24827001D01*
X12381000Y-24176999D01*
X12382204Y-24152495D01*
X12385804Y-24128227D01*
X12391765Y-24104428D01*
X12400030Y-24081329D01*
X12410520Y-24059150D01*
X12423132Y-24038107D01*
X12437747Y-24018401D01*
X12454223Y-24000223D01*
X12472401Y-23983747D01*
X12492107Y-23969132D01*
X12513150Y-23956520D01*
X12535329Y-23946030D01*
X12558428Y-23937765D01*
X12582227Y-23931804D01*
X12606495Y-23928204D01*
X12630999Y-23927000D01*
X13531001Y-23927000D01*
X13555505Y-23928204D01*
X13555505Y-23928204D01*
G37*
D18*
X13081000Y-24502000D03*
D17*
G36*
X13555505Y-25978204D02*
G01*
X13579773Y-25981804D01*
X13603572Y-25987765D01*
X13626671Y-25996030D01*
X13648850Y-26006520D01*
X13669893Y-26019132D01*
X13689599Y-26033747D01*
X13707777Y-26050223D01*
X13724253Y-26068401D01*
X13738868Y-26088107D01*
X13751480Y-26109150D01*
X13761970Y-26131329D01*
X13770235Y-26154428D01*
X13776196Y-26178227D01*
X13779796Y-26202495D01*
X13781000Y-26226999D01*
X13781000Y-26877001D01*
X13779796Y-26901505D01*
X13776196Y-26925773D01*
X13770235Y-26949572D01*
X13761970Y-26972671D01*
X13751480Y-26994850D01*
X13738868Y-27015893D01*
X13724253Y-27035599D01*
X13707777Y-27053777D01*
X13689599Y-27070253D01*
X13669893Y-27084868D01*
X13648850Y-27097480D01*
X13626671Y-27107970D01*
X13603572Y-27116235D01*
X13579773Y-27122196D01*
X13555505Y-27125796D01*
X13531001Y-27127000D01*
X12630999Y-27127000D01*
X12606495Y-27125796D01*
X12582227Y-27122196D01*
X12558428Y-27116235D01*
X12535329Y-27107970D01*
X12513150Y-27097480D01*
X12492107Y-27084868D01*
X12472401Y-27070253D01*
X12454223Y-27053777D01*
X12437747Y-27035599D01*
X12423132Y-27015893D01*
X12410520Y-26994850D01*
X12400030Y-26972671D01*
X12391765Y-26949572D01*
X12385804Y-26925773D01*
X12382204Y-26901505D01*
X12381000Y-26877001D01*
X12381000Y-26226999D01*
X12382204Y-26202495D01*
X12385804Y-26178227D01*
X12391765Y-26154428D01*
X12400030Y-26131329D01*
X12410520Y-26109150D01*
X12423132Y-26088107D01*
X12437747Y-26068401D01*
X12454223Y-26050223D01*
X12472401Y-26033747D01*
X12492107Y-26019132D01*
X12513150Y-26006520D01*
X12535329Y-25996030D01*
X12558428Y-25987765D01*
X12582227Y-25981804D01*
X12606495Y-25978204D01*
X12630999Y-25977000D01*
X13531001Y-25977000D01*
X13555505Y-25978204D01*
X13555505Y-25978204D01*
G37*
D18*
X13081000Y-26552000D03*
D17*
G36*
X47947005Y-25971204D02*
G01*
X47971273Y-25974804D01*
X47995072Y-25980765D01*
X48018171Y-25989030D01*
X48040350Y-25999520D01*
X48061393Y-26012132D01*
X48081099Y-26026747D01*
X48099277Y-26043223D01*
X48115753Y-26061401D01*
X48130368Y-26081107D01*
X48142980Y-26102150D01*
X48153470Y-26124329D01*
X48161735Y-26147428D01*
X48167696Y-26171227D01*
X48171296Y-26195495D01*
X48172500Y-26219999D01*
X48172500Y-27120001D01*
X48171296Y-27144505D01*
X48167696Y-27168773D01*
X48161735Y-27192572D01*
X48153470Y-27215671D01*
X48142980Y-27237850D01*
X48130368Y-27258893D01*
X48115753Y-27278599D01*
X48099277Y-27296777D01*
X48081099Y-27313253D01*
X48061393Y-27327868D01*
X48040350Y-27340480D01*
X48018171Y-27350970D01*
X47995072Y-27359235D01*
X47971273Y-27365196D01*
X47947005Y-27368796D01*
X47922501Y-27370000D01*
X47272499Y-27370000D01*
X47247995Y-27368796D01*
X47223727Y-27365196D01*
X47199928Y-27359235D01*
X47176829Y-27350970D01*
X47154650Y-27340480D01*
X47133607Y-27327868D01*
X47113901Y-27313253D01*
X47095723Y-27296777D01*
X47079247Y-27278599D01*
X47064632Y-27258893D01*
X47052020Y-27237850D01*
X47041530Y-27215671D01*
X47033265Y-27192572D01*
X47027304Y-27168773D01*
X47023704Y-27144505D01*
X47022500Y-27120001D01*
X47022500Y-26219999D01*
X47023704Y-26195495D01*
X47027304Y-26171227D01*
X47033265Y-26147428D01*
X47041530Y-26124329D01*
X47052020Y-26102150D01*
X47064632Y-26081107D01*
X47079247Y-26061401D01*
X47095723Y-26043223D01*
X47113901Y-26026747D01*
X47133607Y-26012132D01*
X47154650Y-25999520D01*
X47176829Y-25989030D01*
X47199928Y-25980765D01*
X47223727Y-25974804D01*
X47247995Y-25971204D01*
X47272499Y-25970000D01*
X47922501Y-25970000D01*
X47947005Y-25971204D01*
X47947005Y-25971204D01*
G37*
D18*
X47597500Y-26670000D03*
D17*
G36*
X45897005Y-25971204D02*
G01*
X45921273Y-25974804D01*
X45945072Y-25980765D01*
X45968171Y-25989030D01*
X45990350Y-25999520D01*
X46011393Y-26012132D01*
X46031099Y-26026747D01*
X46049277Y-26043223D01*
X46065753Y-26061401D01*
X46080368Y-26081107D01*
X46092980Y-26102150D01*
X46103470Y-26124329D01*
X46111735Y-26147428D01*
X46117696Y-26171227D01*
X46121296Y-26195495D01*
X46122500Y-26219999D01*
X46122500Y-27120001D01*
X46121296Y-27144505D01*
X46117696Y-27168773D01*
X46111735Y-27192572D01*
X46103470Y-27215671D01*
X46092980Y-27237850D01*
X46080368Y-27258893D01*
X46065753Y-27278599D01*
X46049277Y-27296777D01*
X46031099Y-27313253D01*
X46011393Y-27327868D01*
X45990350Y-27340480D01*
X45968171Y-27350970D01*
X45945072Y-27359235D01*
X45921273Y-27365196D01*
X45897005Y-27368796D01*
X45872501Y-27370000D01*
X45222499Y-27370000D01*
X45197995Y-27368796D01*
X45173727Y-27365196D01*
X45149928Y-27359235D01*
X45126829Y-27350970D01*
X45104650Y-27340480D01*
X45083607Y-27327868D01*
X45063901Y-27313253D01*
X45045723Y-27296777D01*
X45029247Y-27278599D01*
X45014632Y-27258893D01*
X45002020Y-27237850D01*
X44991530Y-27215671D01*
X44983265Y-27192572D01*
X44977304Y-27168773D01*
X44973704Y-27144505D01*
X44972500Y-27120001D01*
X44972500Y-26219999D01*
X44973704Y-26195495D01*
X44977304Y-26171227D01*
X44983265Y-26147428D01*
X44991530Y-26124329D01*
X45002020Y-26102150D01*
X45014632Y-26081107D01*
X45029247Y-26061401D01*
X45045723Y-26043223D01*
X45063901Y-26026747D01*
X45083607Y-26012132D01*
X45104650Y-25999520D01*
X45126829Y-25989030D01*
X45149928Y-25980765D01*
X45173727Y-25974804D01*
X45197995Y-25971204D01*
X45222499Y-25970000D01*
X45872501Y-25970000D01*
X45897005Y-25971204D01*
X45897005Y-25971204D01*
G37*
D18*
X45547500Y-26670000D03*
D17*
G36*
X29822505Y-4127204D02*
G01*
X29846773Y-4130804D01*
X29870572Y-4136765D01*
X29893671Y-4145030D01*
X29915850Y-4155520D01*
X29936893Y-4168132D01*
X29956599Y-4182747D01*
X29974777Y-4199223D01*
X29991253Y-4217401D01*
X30005868Y-4237107D01*
X30018480Y-4258150D01*
X30028970Y-4280329D01*
X30037235Y-4303428D01*
X30043196Y-4327227D01*
X30046796Y-4351495D01*
X30048000Y-4375999D01*
X30048000Y-5276001D01*
X30046796Y-5300505D01*
X30043196Y-5324773D01*
X30037235Y-5348572D01*
X30028970Y-5371671D01*
X30018480Y-5393850D01*
X30005868Y-5414893D01*
X29991253Y-5434599D01*
X29974777Y-5452777D01*
X29956599Y-5469253D01*
X29936893Y-5483868D01*
X29915850Y-5496480D01*
X29893671Y-5506970D01*
X29870572Y-5515235D01*
X29846773Y-5521196D01*
X29822505Y-5524796D01*
X29798001Y-5526000D01*
X29147999Y-5526000D01*
X29123495Y-5524796D01*
X29099227Y-5521196D01*
X29075428Y-5515235D01*
X29052329Y-5506970D01*
X29030150Y-5496480D01*
X29009107Y-5483868D01*
X28989401Y-5469253D01*
X28971223Y-5452777D01*
X28954747Y-5434599D01*
X28940132Y-5414893D01*
X28927520Y-5393850D01*
X28917030Y-5371671D01*
X28908765Y-5348572D01*
X28902804Y-5324773D01*
X28899204Y-5300505D01*
X28898000Y-5276001D01*
X28898000Y-4375999D01*
X28899204Y-4351495D01*
X28902804Y-4327227D01*
X28908765Y-4303428D01*
X28917030Y-4280329D01*
X28927520Y-4258150D01*
X28940132Y-4237107D01*
X28954747Y-4217401D01*
X28971223Y-4199223D01*
X28989401Y-4182747D01*
X29009107Y-4168132D01*
X29030150Y-4155520D01*
X29052329Y-4145030D01*
X29075428Y-4136765D01*
X29099227Y-4130804D01*
X29123495Y-4127204D01*
X29147999Y-4126000D01*
X29798001Y-4126000D01*
X29822505Y-4127204D01*
X29822505Y-4127204D01*
G37*
D18*
X29473000Y-4826000D03*
D17*
G36*
X27772505Y-4127204D02*
G01*
X27796773Y-4130804D01*
X27820572Y-4136765D01*
X27843671Y-4145030D01*
X27865850Y-4155520D01*
X27886893Y-4168132D01*
X27906599Y-4182747D01*
X27924777Y-4199223D01*
X27941253Y-4217401D01*
X27955868Y-4237107D01*
X27968480Y-4258150D01*
X27978970Y-4280329D01*
X27987235Y-4303428D01*
X27993196Y-4327227D01*
X27996796Y-4351495D01*
X27998000Y-4375999D01*
X27998000Y-5276001D01*
X27996796Y-5300505D01*
X27993196Y-5324773D01*
X27987235Y-5348572D01*
X27978970Y-5371671D01*
X27968480Y-5393850D01*
X27955868Y-5414893D01*
X27941253Y-5434599D01*
X27924777Y-5452777D01*
X27906599Y-5469253D01*
X27886893Y-5483868D01*
X27865850Y-5496480D01*
X27843671Y-5506970D01*
X27820572Y-5515235D01*
X27796773Y-5521196D01*
X27772505Y-5524796D01*
X27748001Y-5526000D01*
X27097999Y-5526000D01*
X27073495Y-5524796D01*
X27049227Y-5521196D01*
X27025428Y-5515235D01*
X27002329Y-5506970D01*
X26980150Y-5496480D01*
X26959107Y-5483868D01*
X26939401Y-5469253D01*
X26921223Y-5452777D01*
X26904747Y-5434599D01*
X26890132Y-5414893D01*
X26877520Y-5393850D01*
X26867030Y-5371671D01*
X26858765Y-5348572D01*
X26852804Y-5324773D01*
X26849204Y-5300505D01*
X26848000Y-5276001D01*
X26848000Y-4375999D01*
X26849204Y-4351495D01*
X26852804Y-4327227D01*
X26858765Y-4303428D01*
X26867030Y-4280329D01*
X26877520Y-4258150D01*
X26890132Y-4237107D01*
X26904747Y-4217401D01*
X26921223Y-4199223D01*
X26939401Y-4182747D01*
X26959107Y-4168132D01*
X26980150Y-4155520D01*
X27002329Y-4145030D01*
X27025428Y-4136765D01*
X27049227Y-4130804D01*
X27073495Y-4127204D01*
X27097999Y-4126000D01*
X27748001Y-4126000D01*
X27772505Y-4127204D01*
X27772505Y-4127204D01*
G37*
D18*
X27423000Y-4826000D03*
D17*
G36*
X26636505Y-18975204D02*
G01*
X26660773Y-18978804D01*
X26684572Y-18984765D01*
X26707671Y-18993030D01*
X26729850Y-19003520D01*
X26750893Y-19016132D01*
X26770599Y-19030747D01*
X26788777Y-19047223D01*
X26805253Y-19065401D01*
X26819868Y-19085107D01*
X26832480Y-19106150D01*
X26842970Y-19128329D01*
X26851235Y-19151428D01*
X26857196Y-19175227D01*
X26860796Y-19199495D01*
X26862000Y-19223999D01*
X26862000Y-19874001D01*
X26860796Y-19898505D01*
X26857196Y-19922773D01*
X26851235Y-19946572D01*
X26842970Y-19969671D01*
X26832480Y-19991850D01*
X26819868Y-20012893D01*
X26805253Y-20032599D01*
X26788777Y-20050777D01*
X26770599Y-20067253D01*
X26750893Y-20081868D01*
X26729850Y-20094480D01*
X26707671Y-20104970D01*
X26684572Y-20113235D01*
X26660773Y-20119196D01*
X26636505Y-20122796D01*
X26612001Y-20124000D01*
X25711999Y-20124000D01*
X25687495Y-20122796D01*
X25663227Y-20119196D01*
X25639428Y-20113235D01*
X25616329Y-20104970D01*
X25594150Y-20094480D01*
X25573107Y-20081868D01*
X25553401Y-20067253D01*
X25535223Y-20050777D01*
X25518747Y-20032599D01*
X25504132Y-20012893D01*
X25491520Y-19991850D01*
X25481030Y-19969671D01*
X25472765Y-19946572D01*
X25466804Y-19922773D01*
X25463204Y-19898505D01*
X25462000Y-19874001D01*
X25462000Y-19223999D01*
X25463204Y-19199495D01*
X25466804Y-19175227D01*
X25472765Y-19151428D01*
X25481030Y-19128329D01*
X25491520Y-19106150D01*
X25504132Y-19085107D01*
X25518747Y-19065401D01*
X25535223Y-19047223D01*
X25553401Y-19030747D01*
X25573107Y-19016132D01*
X25594150Y-19003520D01*
X25616329Y-18993030D01*
X25639428Y-18984765D01*
X25663227Y-18978804D01*
X25687495Y-18975204D01*
X25711999Y-18974000D01*
X26612001Y-18974000D01*
X26636505Y-18975204D01*
X26636505Y-18975204D01*
G37*
D18*
X26162000Y-19549000D03*
D17*
G36*
X26636505Y-21025204D02*
G01*
X26660773Y-21028804D01*
X26684572Y-21034765D01*
X26707671Y-21043030D01*
X26729850Y-21053520D01*
X26750893Y-21066132D01*
X26770599Y-21080747D01*
X26788777Y-21097223D01*
X26805253Y-21115401D01*
X26819868Y-21135107D01*
X26832480Y-21156150D01*
X26842970Y-21178329D01*
X26851235Y-21201428D01*
X26857196Y-21225227D01*
X26860796Y-21249495D01*
X26862000Y-21273999D01*
X26862000Y-21924001D01*
X26860796Y-21948505D01*
X26857196Y-21972773D01*
X26851235Y-21996572D01*
X26842970Y-22019671D01*
X26832480Y-22041850D01*
X26819868Y-22062893D01*
X26805253Y-22082599D01*
X26788777Y-22100777D01*
X26770599Y-22117253D01*
X26750893Y-22131868D01*
X26729850Y-22144480D01*
X26707671Y-22154970D01*
X26684572Y-22163235D01*
X26660773Y-22169196D01*
X26636505Y-22172796D01*
X26612001Y-22174000D01*
X25711999Y-22174000D01*
X25687495Y-22172796D01*
X25663227Y-22169196D01*
X25639428Y-22163235D01*
X25616329Y-22154970D01*
X25594150Y-22144480D01*
X25573107Y-22131868D01*
X25553401Y-22117253D01*
X25535223Y-22100777D01*
X25518747Y-22082599D01*
X25504132Y-22062893D01*
X25491520Y-22041850D01*
X25481030Y-22019671D01*
X25472765Y-21996572D01*
X25466804Y-21972773D01*
X25463204Y-21948505D01*
X25462000Y-21924001D01*
X25462000Y-21273999D01*
X25463204Y-21249495D01*
X25466804Y-21225227D01*
X25472765Y-21201428D01*
X25481030Y-21178329D01*
X25491520Y-21156150D01*
X25504132Y-21135107D01*
X25518747Y-21115401D01*
X25535223Y-21097223D01*
X25553401Y-21080747D01*
X25573107Y-21066132D01*
X25594150Y-21053520D01*
X25616329Y-21043030D01*
X25639428Y-21034765D01*
X25663227Y-21028804D01*
X25687495Y-21025204D01*
X25711999Y-21024000D01*
X26612001Y-21024000D01*
X26636505Y-21025204D01*
X26636505Y-21025204D01*
G37*
D18*
X26162000Y-21599000D03*
D26*
X23368000Y-1905000D03*
X15748000Y-34925000D03*
X23368000Y-4445000D03*
X15748000Y-32385000D03*
X23368000Y-6985000D03*
X15748000Y-29845000D03*
X23368000Y-9525000D03*
X15748000Y-27305000D03*
X23368000Y-12065000D03*
X15748000Y-24765000D03*
X23368000Y-14605000D03*
X15748000Y-22225000D03*
X23368000Y-17145000D03*
X15748000Y-19685000D03*
X23368000Y-19685000D03*
X15748000Y-17145000D03*
X23368000Y-22225000D03*
X15748000Y-14605000D03*
X23368000Y-24765000D03*
X15748000Y-12065000D03*
X23368000Y-27305000D03*
X15748000Y-9525000D03*
X23368000Y-29845000D03*
X15748000Y-6985000D03*
X23368000Y-32385000D03*
X15748000Y-4445000D03*
X23368000Y-34925000D03*
D27*
X15748000Y-1905000D03*
D13*
X45085000Y-46990000D03*
D14*
X45085000Y-31750000D03*
D13*
X45085000Y-41910000D03*
X45085000Y-36830000D03*
D11*
X12065000Y-19685000D03*
X12065000Y-17145000D03*
X12065000Y-14605000D03*
X12065000Y-12065000D03*
X12065000Y-9525000D03*
X12065000Y-6985000D03*
X12065000Y-4445000D03*
D12*
X12065000Y-1905000D03*
D11*
X40005000Y-19685000D03*
X37465000Y-19685000D03*
X40005000Y-17145000D03*
X37465000Y-17145000D03*
X40005000Y-14605000D03*
D12*
X37465000Y-14605000D03*
D28*
X39600000Y-8890000D03*
D29*
X38100000Y-8890000D03*
X19304000Y-39116000D03*
D28*
X20804000Y-39116000D03*
M02*
