G04 #@! TF.GenerationSoftware,KiCad,Pcbnew,(5.1.2)-1*
G04 #@! TF.CreationDate,2019-06-09T10:24:48-07:00*
G04 #@! TF.ProjectId,gen3basic,67656e33-6261-4736-9963-2e6b69636164,v1.0a*
G04 #@! TF.SameCoordinates,PX3072580PY2a640d0*
G04 #@! TF.FileFunction,Soldermask,Bot*
G04 #@! TF.FilePolarity,Negative*
%FSLAX46Y46*%
G04 Gerber Fmt 4.6, Leading zero omitted, Abs format (unit mm)*
G04 Created by KiCad (PCBNEW (5.1.2)-1) date 2019-06-09 10:24:48*
%MOMM*%
%LPD*%
G04 APERTURE LIST*
%ADD10O,1.700000X1.700000*%
%ADD11R,1.700000X1.700000*%
%ADD12C,3.000000*%
%ADD13R,3.000000X3.000000*%
%ADD14C,1.700000*%
%ADD15C,2.000000*%
%ADD16C,2.200000*%
%ADD17C,1.500000*%
%ADD18C,1.800000*%
%ADD19R,1.800000X1.800000*%
%ADD20O,1.600000X1.600000*%
%ADD21R,1.600000X1.600000*%
%ADD22C,1.200000*%
%ADD23R,1.200000X1.200000*%
G04 APERTURE END LIST*
D10*
X40005000Y-1905000D03*
X37465000Y-1905000D03*
X34925000Y-1905000D03*
X32385000Y-1905000D03*
X29845000Y-1905000D03*
D11*
X27305000Y-1905000D03*
D12*
X22860000Y-45720000D03*
D13*
X17780000Y-45720000D03*
D14*
X37210000Y-44196000D03*
X33210000Y-44196000D03*
X29210000Y-44196000D03*
D15*
X27210000Y-48446000D03*
X39210000Y-48446000D03*
X39210000Y-42446000D03*
X27210000Y-42446000D03*
D16*
X31496000Y-36322000D03*
X27432000Y-12954000D03*
X3556000Y-45466000D03*
D17*
X4572000Y-20901000D03*
X4572000Y-25781000D03*
D10*
X32385000Y-22225000D03*
X32385000Y-19685000D03*
X32385000Y-17145000D03*
X32385000Y-14605000D03*
X32385000Y-12065000D03*
X32385000Y-9525000D03*
D11*
X32385000Y-6985000D03*
D10*
X37465000Y-37465000D03*
X37465000Y-34925000D03*
X37465000Y-32385000D03*
X37465000Y-29845000D03*
X37465000Y-27305000D03*
D11*
X37465000Y-24765000D03*
D18*
X11938000Y-38608000D03*
D19*
X9398000Y-38608000D03*
D18*
X11938000Y-32004000D03*
D19*
X9398000Y-32004000D03*
D18*
X11938000Y-45212000D03*
D19*
X9398000Y-45212000D03*
D20*
X23368000Y-1905000D03*
X15748000Y-34925000D03*
X23368000Y-4445000D03*
X15748000Y-32385000D03*
X23368000Y-6985000D03*
X15748000Y-29845000D03*
X23368000Y-9525000D03*
X15748000Y-27305000D03*
X23368000Y-12065000D03*
X15748000Y-24765000D03*
X23368000Y-14605000D03*
X15748000Y-22225000D03*
X23368000Y-17145000D03*
X15748000Y-19685000D03*
X23368000Y-19685000D03*
X15748000Y-17145000D03*
X23368000Y-22225000D03*
X15748000Y-14605000D03*
X23368000Y-24765000D03*
X15748000Y-12065000D03*
X23368000Y-27305000D03*
X15748000Y-9525000D03*
X23368000Y-29845000D03*
X15748000Y-6985000D03*
X23368000Y-32385000D03*
X15748000Y-4445000D03*
X23368000Y-34925000D03*
D21*
X15748000Y-1905000D03*
D12*
X45085000Y-46990000D03*
D13*
X45085000Y-31750000D03*
D12*
X45085000Y-41910000D03*
X45085000Y-36830000D03*
D10*
X12065000Y-19685000D03*
X12065000Y-17145000D03*
X12065000Y-14605000D03*
X12065000Y-12065000D03*
X12065000Y-9525000D03*
X12065000Y-6985000D03*
X12065000Y-4445000D03*
D11*
X12065000Y-1905000D03*
D10*
X40005000Y-19685000D03*
X37465000Y-19685000D03*
X40005000Y-17145000D03*
X37465000Y-17145000D03*
X40005000Y-14605000D03*
D11*
X37465000Y-14605000D03*
D22*
X39600000Y-8890000D03*
D23*
X38100000Y-8890000D03*
X19304000Y-39116000D03*
D22*
X20804000Y-39116000D03*
M02*
